<svg width="14" height="22" viewBox="0 0 14 22" fill="none" xmlns="http://www.w3.org/2000/svg">
<path d="M6.46176 5.39664C6.65672 4.87529 6.7542 4.61462 6.91268 4.57077C6.96897 4.55519 7.02843 4.55519 7.08472 4.57077C7.2432 4.61462 7.34068 4.87529 7.53564 5.39663C8.1253 6.97341 8.42013 7.7618 8.9368 8.38752C9.13238 8.62438 9.35007 8.84207 9.58692 9.03764C10.2126 9.55432 11.001 9.84915 12.5778 10.4388C13.0992 10.6338 13.3598 10.7313 13.4037 10.8897C13.4193 10.946 13.4193 11.0055 13.4037 11.0618C13.3598 11.2202 13.0992 11.3177 12.5778 11.5127C11.001 12.1024 10.2126 12.3972 9.58692 12.9139C9.35007 13.1094 9.13238 13.3271 8.9368 13.564C8.42013 14.1897 8.1253 14.9781 7.53564 16.5549C7.34068 17.0762 7.2432 17.3369 7.08472 17.3807C7.02843 17.3963 6.96897 17.3963 6.91268 17.3807C6.7542 17.3369 6.65672 17.0762 6.46176 16.5549C5.8721 14.9781 5.57727 14.1897 5.06059 13.564C4.86501 13.3271 4.64733 13.1094 4.41047 12.9139C3.78475 12.3972 2.99636 12.1024 1.41958 11.5127C0.898242 11.3177 0.637572 11.2202 0.593715 11.0618C0.578137 11.0055 0.578137 10.946 0.593715 10.8897C0.637572 10.7313 0.898242 10.6338 1.41958 10.4388C2.99636 9.84915 3.78475 9.55432 4.41047 9.03764C4.64733 8.84207 4.86501 8.62438 5.06059 8.38752C5.57727 7.7618 5.8721 6.97341 6.46176 5.39664Z" fill="url(#paint0_linear_790_4898)"/>
<defs>
<linearGradient id="paint0_linear_790_4898" x1="13.4154" y1="4.55908" x2="-1.34132" y2="7.39925" gradientUnits="userSpaceOnUse">
<stop stop-color="#8F55FD"/>
<stop offset="0.3" stop-color="#6B36FA"/>
<stop offset="0.85" stop-color="#6B36FA"/>
<stop offset="1" stop-color="#3544EB"/>
</linearGradient>
</defs>
</svg>
