<svg width="1024" height="1024" viewBox="0 0 1024 1024" fill="none" xmlns="http://www.w3.org/2000/svg">
  <defs>
    <linearGradient id="rocketGradient" x1="214" y1="132" x2="812" y2="894" gradientUnits="userSpaceOnUse">
      <stop offset="0" stop-color="#34D8FF"/>
      <stop offset="0.42" stop-color="#6D62FF"/>
      <stop offset="1" stop-color="#C23BFF"/>
    </linearGradient>
    <linearGradient id="rimGradient" x1="228" y1="188" x2="782" y2="842" gradientUnits="userSpaceOnUse">
      <stop offset="0" stop-color="#FFFFFF" stop-opacity="0.92"/>
      <stop offset="0.34" stop-color="#70F0FF" stop-opacity="0.75"/>
      <stop offset="0.7" stop-color="#8B63FF" stop-opacity="0.62"/>
      <stop offset="1" stop-color="#F06BFF" stop-opacity="0.9"/>
    </linearGradient>
    <radialGradient id="innerGlow" cx="0" cy="0" r="1" gradientUnits="userSpaceOnUse" gradientTransform="translate(492 390) rotate(83) scale(344 255)">
      <stop offset="0" stop-color="#FFFFFF" stop-opacity="0.54"/>
      <stop offset="0.44" stop-color="#A7F4FF" stop-opacity="0.23"/>
      <stop offset="1" stop-color="#FFFFFF" stop-opacity="0"/>
    </radialGradient>
    <linearGradient id="bottomRefraction" x1="512" y1="650" x2="512" y2="890" gradientUnits="userSpaceOnUse">
      <stop offset="0" stop-color="#FFFFFF" stop-opacity="0.24"/>
      <stop offset="0.34" stop-color="#43E3FF" stop-opacity="0.17"/>
      <stop offset="1" stop-color="#551BDB" stop-opacity="0.62"/>
    </linearGradient>
    <filter id="shadow" x="120" y="102" width="784" height="858" filterUnits="userSpaceOnUse" color-interpolation-filters="sRGB">
      <feDropShadow dx="0" dy="24" stdDeviation="24" flood-color="#371078" flood-opacity="0.22"/>
    </filter>
    <filter id="softHighlight" x="160" y="80" width="704" height="820" filterUnits="userSpaceOnUse" color-interpolation-filters="sRGB">
      <feGaussianBlur stdDeviation="1.8"/>
    </filter>
    <clipPath id="rocketClip">
      <path fill-rule="evenodd" clip-rule="evenodd" d="M512 116C468 130 424 154 388 188C328 244 292 322 292 404V608L214 698V776H810V698L732 608V404C732 322 696 244 636 188C600 154 556 130 512 116ZM512 474C554 474 588 440 588 398C588 356 554 322 512 322C470 322 436 356 436 398C436 440 470 474 512 474ZM373 812C402 879 455 925 512 944C569 925 622 879 651 812H373Z"/>
    </clipPath>
  </defs>

  <g filter="url(#shadow)">
    <path fill-rule="evenodd" clip-rule="evenodd" d="M512 116C468 130 424 154 388 188C328 244 292 322 292 404V608L214 698V776H810V698L732 608V404C732 322 696 244 636 188C600 154 556 130 512 116ZM512 474C554 474 588 440 588 398C588 356 554 322 512 322C470 322 436 356 436 398C436 440 470 474 512 474ZM373 812C402 879 455 925 512 944C569 925 622 879 651 812H373Z" fill="url(#rocketGradient)" fill-opacity="0.88"/>
    <path fill-rule="evenodd" clip-rule="evenodd" d="M512 116C468 130 424 154 388 188C328 244 292 322 292 404V608L214 698V776H810V698L732 608V404C732 322 696 244 636 188C600 154 556 130 512 116ZM512 474C554 474 588 440 588 398C588 356 554 322 512 322C470 322 436 356 436 398C436 440 470 474 512 474ZM373 812C402 879 455 925 512 944C569 925 622 879 651 812H373Z" fill="url(#innerGlow)"/>
    <g clip-path="url(#rocketClip)">
      <rect x="164" y="640" width="696" height="306" fill="url(#bottomRefraction)"/>
      <path d="M306 618C390 678 616 702 720 608" stroke="#FFFFFF" stroke-opacity="0.18" stroke-width="24" stroke-linecap="round"/>
      <path d="M260 735H764" stroke="#78F1FF" stroke-opacity="0.28" stroke-width="26" stroke-linecap="round"/>
      <path d="M398 840C438 882 475 910 512 923C549 910 586 882 626 840" stroke="#F175FF" stroke-opacity="0.5" stroke-width="24" stroke-linecap="round"/>
    </g>
    <path d="M512 118C466 132 423 157 388 190C329 246 294 323 294 404V609L216 699V774H808V699L730 609V404C730 323 695 246 636 190C601 157 558 132 512 118Z" stroke="url(#rimGradient)" stroke-width="18" stroke-linejoin="round"/>
    <path d="M373 812C402 879 455 925 512 944C569 925 622 879 651 812" stroke="url(#rimGradient)" stroke-width="18" stroke-linejoin="round"/>
    <circle cx="512" cy="398" r="76" fill="#F9FEFF" fill-opacity="0.92"/>
    <circle cx="512" cy="398" r="76" stroke="url(#rimGradient)" stroke-width="16"/>
    <circle cx="512" cy="398" r="48" fill="#FFFFFF" fill-opacity="0.5"/>
  </g>

  <g filter="url(#softHighlight)">
    <path d="M398 250C352 305 336 366 338 463" stroke="#FFFFFF" stroke-opacity="0.58" stroke-width="20" stroke-linecap="round"/>
    <path d="M424 218C456 184 486 166 512 158" stroke="#B9FAFF" stroke-opacity="0.48" stroke-width="12" stroke-linecap="round"/>
    <path d="M642 300C688 388 686 510 684 602" stroke="#FFFFFF" stroke-opacity="0.22" stroke-width="14" stroke-linecap="round"/>
    <path d="M340 686H684" stroke="#FFFFFF" stroke-opacity="0.22" stroke-width="14" stroke-linecap="round"/>
  </g>

  <circle cx="374" cy="286" r="8" fill="#FFFFFF" fill-opacity="0.82"/>
  <circle cx="654" cy="432" r="6" fill="#FFFFFF" fill-opacity="0.62"/>
  <circle cx="696" cy="644" r="5" fill="#FFFFFF" fill-opacity="0.58"/>
  <circle cx="320" cy="705" r="5" fill="#FFFFFF" fill-opacity="0.5"/>
</svg>
