<svg xmlns="http://www.w3.org/2000/svg" version="1.1" xmlns:xlink="http://www.w3.org/1999/xlink" fill="none" width="120" height="75.591" viewBox="0 0 120 75.591"><defs><mask id="mask_6:24307"><path d="M0 0L120 0L120 75.591003L0 75.591003L0 0Z" fill="white"></path></mask></defs><g mask="url(#mask_6:24307)"></g><path d="M0 0L120 0L120 75.591003L0 75.591003L0 0Z" fill="#ffffff"></path><path d="M0.26800001 0.50999999C0.215 0.50999999 0.171 0.50800002 0.13600001 0.50300002C0.103 0.498 0.075999998 0.486 0.052999999 0.46900001C0.033 0.449 0.018999999 0.42199999 0.011 0.389C0.0040000002 0.35699999 0 0.31099999 0 0.25299999C0 0.19499999 0.0040000002 0.15000001 0.011 0.117C0.018999999 0.082000002 0.033 0.057 0.052999999 0.041999999C0.075999998 0.024 0.103 0.013 0.13600001 0.0080000004C0.171 0.003 0.215 0 0.26800001 0C0.32100001 0 0.36399999 0.003 0.39700001 0.0080000004C0.43200001 0.013 0.46000001 0.024 0.47999999 0.041999999C0.50300002 0.057 0.51800001 0.082000002 0.52499998 0.117C0.53299999 0.15000001 0.537 0.19499999 0.537 0.25299999C0.537 0.31099999 0.53299999 0.35699999 0.52499998 0.389C0.51800001 0.42199999 0.50300002 0.449 0.47999999 0.46900001C0.46000001 0.486 0.43200001 0.498 0.39700001 0.50300002C0.36399999 0.50800002 0.32100001 0.50999999 0.26800001 0.50999999ZM0.029999999 0.824L0.50300002 0.824L0.50300002 2.865L0.029999999 2.865L0.029999999 0.824ZM1.604 1.202L1.604 2.1849999C1.604 2.25 1.6059999 2.3039999 1.6109999 2.3469999C1.619 2.3900001 1.631 2.424 1.649 2.4489999C1.669 2.474 1.696 2.4920001 1.728 2.5020001C1.761 2.51 1.804 2.513 1.857 2.513C1.892 2.513 1.925 2.5120001 1.955 2.51C1.985 2.507 2.0139999 2.5020001 2.0420001 2.494L2.0420001 2.869C2.0020001 2.8740001 1.96 2.8770001 1.9170001 2.8800001C1.874 2.885 1.832 2.888 1.789 2.888C1.668 2.888 1.5650001 2.8789999 1.479 2.8610001C1.396 2.8410001 1.3279999 2.8069999 1.275 2.7590001C1.224 2.7090001 1.188 2.641 1.165 2.5550001C1.142 2.467 1.131 2.3559999 1.131 2.2219999L1.131 1.202L0.84799999 1.202L0.84799999 0.824L1.131 0.824L1.131 0.34L1.604 0.34L1.604 0.824L2.053 0.824L2.053 1.202L1.604 1.202ZM4.1459999 1.6670001C4.1459999 1.717 4.1430001 1.766 4.138 1.814C4.1360002 1.86 4.132 1.9 4.1269999 1.9349999L2.789 2.0220001C2.7939999 2.1930001 2.842 2.319 2.9319999 2.4000001C3.023 2.4809999 3.1700001 2.5209999 3.375 2.5209999C3.4349999 2.5209999 3.497 2.517 3.5599999 2.51C3.625 2.5020001 3.687 2.4920001 3.7449999 2.4790001C3.8050001 2.464 3.8610001 2.4489999 3.911 2.434C3.9619999 2.4159999 4.0050001 2.3989999 4.04 2.381L4.04 2.767C3.9790001 2.802 3.881 2.8329999 3.7449999 2.8610001C3.609 2.8889999 3.4579999 2.9030001 3.2909999 2.9030001C3.135 2.9030001 2.997 2.8859999 2.8759999 2.8540001C2.7550001 2.8210001 2.6530001 2.7639999 2.5699999 2.6830001C2.4860001 2.6029999 2.4219999 2.494 2.3770001 2.358C2.3340001 2.2219999 2.313 2.0510001 2.313 1.844C2.313 1.638 2.3340001 1.466 2.3770001 1.33C2.4219999 1.194 2.4860001 1.086 2.5699999 1.005C2.6530001 0.92500001 2.7550001 0.86799997 2.8759999 0.83499998C2.997 0.80299997 3.135 0.78600001 3.2909999 0.78600001C3.4679999 0.78600001 3.6110001 0.81 3.7219999 0.85799998C3.8329999 0.903 3.9200001 0.96600002 3.983 1.0470001C4.046 1.128 4.0890002 1.221 4.112 1.327C4.1339998 1.432 4.1459999 1.546 4.1459999 1.6670001ZM3.707 1.618C3.707 1.5549999 3.7019999 1.495 3.6919999 1.4400001C3.6849999 1.382 3.6659999 1.332 3.635 1.289C3.605 1.2460001 3.562 1.212 3.507 1.187C3.454 1.1619999 3.382 1.149 3.2909999 1.149C3.1960001 1.149 3.1159999 1.16 3.053 1.183C2.99 1.206 2.9400001 1.24 2.902 1.285C2.8640001 1.33 2.8369999 1.387 2.819 1.455C2.8010001 1.521 2.7909999 1.597 2.789 1.686L3.707 1.618ZM6.901 0.78600001C7.1350002 0.78600001 7.3070002 0.84500003 7.415 0.96399999C7.5229998 1.08 7.5770001 1.256 7.5770001 1.493L7.5770001 2.865L7.105 2.865L7.105 1.599C7.105 1.455 7.0809999 1.349 7.033 1.281C6.9850001 1.2130001 6.8969998 1.179 6.7690001 1.179C6.6550002 1.179 6.5609999 1.202 6.4850001 1.247C6.4120002 1.293 6.3600001 1.376 6.3299999 1.497L6.3299999 2.865L5.8579998 2.865L5.8579998 1.599C5.8579998 1.455 5.8340001 1.349 5.7859998 1.281C5.7410002 1.2130001 5.6550002 1.179 5.5289998 1.179C5.4159999 1.179 5.3239999 1.201 5.2529998 1.243C5.1820002 1.286 5.131 1.367 5.098 1.485L5.098 2.865L4.6259999 2.865L4.6259999 0.824L5.098 0.824L5.098 1.066C5.1560001 0.96499997 5.2329998 0.89300001 5.329 0.85000002C5.4239998 0.80800003 5.54 0.78600001 5.6760001 0.78600001C5.835 0.78600001 5.961 0.81300002 6.0539999 0.866C6.1479998 0.91600001 6.217 0.99000001 6.2620001 1.089C6.3200002 0.97799999 6.4060001 0.89999998 6.5190001 0.85399997C6.6329999 0.80900002 6.7600002 0.78600001 6.901 0.78600001ZM9.7410002 2.1689999L8.6450005 2.1689999L8.3959999 2.865L7.8860002 2.865L8.868 0.242L9.5340004 0.242L10.509 2.865L9.9829998 2.865L9.7410002 2.1689999ZM9.5939999 1.7539999L9.2200003 0.68400002L9.1739998 0.68400002L8.7930002 1.7539999L9.5939999 1.7539999Z" transform="translate(14.434, 65.639)" fill="#000000" opacity="0.3"></path><path d="M0.26800001 0.50999999C0.215 0.50999999 0.171 0.50800002 0.13600001 0.50300002C0.103 0.498 0.075999998 0.486 0.052999999 0.46900001C0.033 0.449 0.018999999 0.42199999 0.011 0.389C0.0040000002 0.35699999 0 0.31099999 0 0.25299999C0 0.19499999 0.0040000002 0.15000001 0.011 0.117C0.018999999 0.082000002 0.033 0.057 0.052999999 0.041999999C0.075999998 0.024 0.103 0.013 0.13600001 0.0080000004C0.171 0.003 0.215 0 0.26800001 0C0.32100001 0 0.36399999 0.003 0.39700001 0.0080000004C0.43200001 0.013 0.46000001 0.024 0.47999999 0.041999999C0.50300002 0.057 0.51800001 0.082000002 0.52499998 0.117C0.53299999 0.15000001 0.537 0.19499999 0.537 0.25299999C0.537 0.31099999 0.53299999 0.35699999 0.52499998 0.389C0.51800001 0.42199999 0.50300002 0.449 0.47999999 0.46900001C0.46000001 0.486 0.43200001 0.498 0.39700001 0.50300002C0.36399999 0.50800002 0.32100001 0.50999999 0.26800001 0.50999999ZM0.029999999 0.824L0.50300002 0.824L0.50300002 2.865L0.029999999 2.865L0.029999999 0.824ZM1.603 1.202L1.603 2.1849999C1.603 2.25 1.6059999 2.3039999 1.6109999 2.3469999C1.619 2.3900001 1.631 2.424 1.649 2.4489999C1.669 2.474 1.6950001 2.4920001 1.728 2.5020001C1.761 2.51 1.804 2.513 1.857 2.513C1.892 2.513 1.925 2.5120001 1.955 2.51C1.985 2.507 2.0139999 2.5020001 2.0420001 2.494L2.0420001 2.869C2.0020001 2.8740001 1.96 2.8770001 1.9170001 2.8800001C1.874 2.885 1.831 2.888 1.789 2.888C1.668 2.888 1.564 2.8789999 1.479 2.8610001C1.396 2.8410001 1.3279999 2.8069999 1.275 2.7590001C1.224 2.7090001 1.188 2.641 1.165 2.5550001C1.142 2.467 1.131 2.3559999 1.131 2.2219999L1.131 1.202L0.84799999 1.202L0.84799999 0.824L1.131 0.824L1.131 0.34L1.603 0.34L1.603 0.824L2.053 0.824L2.053 1.202L1.603 1.202ZM4.1459999 1.6670001C4.1459999 1.717 4.1430001 1.766 4.138 1.814C4.1350002 1.86 4.132 1.9 4.1269999 1.9349999L2.789 2.0220001C2.7939999 2.1930001 2.842 2.319 2.9319999 2.4000001C3.023 2.4809999 3.1700001 2.5209999 3.3740001 2.5209999C3.4349999 2.5209999 3.497 2.517 3.5599999 2.51C3.625 2.5020001 3.687 2.4920001 3.7449999 2.4790001C3.8050001 2.464 3.8610001 2.4489999 3.911 2.434C3.9619999 2.4159999 4.0040002 2.3989999 4.04 2.381L4.04 2.767C3.9790001 2.802 3.881 2.8329999 3.7449999 2.8610001C3.609 2.8889999 3.4579999 2.9030001 3.2909999 2.9030001C3.135 2.9030001 2.997 2.8859999 2.8759999 2.8540001C2.7550001 2.8210001 2.6530001 2.7639999 2.569 2.6830001C2.4860001 2.6029999 2.4219999 2.494 2.3770001 2.358C2.3340001 2.2219999 2.312 2.0510001 2.312 1.844C2.312 1.638 2.3340001 1.466 2.3770001 1.33C2.4219999 1.194 2.4860001 1.086 2.569 1.005C2.6530001 0.92500001 2.7550001 0.86799997 2.8759999 0.83499998C2.997 0.80299997 3.135 0.78600001 3.2909999 0.78600001C3.4679999 0.78600001 3.6110001 0.81 3.7219999 0.85799998C3.8329999 0.903 3.9200001 0.96600002 3.983 1.0470001C4.046 1.128 4.0890002 1.221 4.1110001 1.327C4.1339998 1.432 4.1459999 1.546 4.1459999 1.6670001ZM3.707 1.618C3.707 1.5549999 3.7019999 1.495 3.6919999 1.4400001C3.684 1.382 3.6659999 1.332 3.635 1.289C3.605 1.2460001 3.562 1.212 3.507 1.187C3.454 1.1619999 3.382 1.149 3.2909999 1.149C3.1960001 1.149 3.1159999 1.16 3.053 1.183C2.99 1.206 2.9400001 1.24 2.902 1.285C2.8640001 1.33 2.8369999 1.387 2.819 1.455C2.8010001 1.521 2.7909999 1.597 2.789 1.686L3.707 1.618ZM6.901 0.78600001C7.1350002 0.78600001 7.3060002 0.84500003 7.415 0.96399999C7.5229998 1.08 7.5770001 1.256 7.5770001 1.493L7.5770001 2.865L7.105 2.865L7.105 1.599C7.105 1.455 7.0809999 1.349 7.033 1.281C6.9850001 1.2130001 6.8969998 1.179 6.7690001 1.179C6.6550002 1.179 6.5609999 1.202 6.4850001 1.247C6.4120002 1.293 6.3600001 1.376 6.3299999 1.497L6.3299999 2.865L5.8579998 2.865L5.8579998 1.599C5.8579998 1.455 5.8340001 1.349 5.7859998 1.281C5.7399998 1.2130001 5.6550002 1.179 5.5289998 1.179C5.415 1.179 5.323 1.201 5.2529998 1.243C5.1820002 1.286 5.131 1.367 5.098 1.485L5.098 2.865L4.6259999 2.865L4.6259999 0.824L5.098 0.824L5.098 1.066C5.1560001 0.96499997 5.2329998 0.89300001 5.329 0.85000002C5.4239998 0.80800003 5.54 0.78600001 5.6760001 0.78600001C5.835 0.78600001 5.961 0.81300002 6.0539999 0.866C6.1469998 0.91600001 6.217 0.99000001 6.2620001 1.089C6.3200002 0.97799999 6.4060001 0.89999998 6.5190001 0.85399997C6.632 0.80900002 6.7600002 0.78600001 6.901 0.78600001ZM8.1730003 0.242L9.0159998 0.242C9.1999998 0.242 9.3520002 0.257 9.4729996 0.287C9.5970001 0.315 9.6940002 0.35800001 9.7639999 0.41600001C9.8369999 0.47400001 9.8879995 0.54699999 9.915 0.63499999C9.9460001 0.72299999 9.9610004 0.82599998 9.9610004 0.94499999C9.9610004 1.081 9.9320002 1.196 9.8739996 1.289C9.8179998 1.38 9.7200003 1.446 9.5790005 1.489L9.5790005 1.5039999C9.743 1.5420001 9.8599997 1.613 9.9300003 1.716C10.003 1.817 10.04 1.948 10.04 2.109C10.04 2.227 10.025 2.3340001 9.9949999 2.4300001C9.967 2.523 9.9169998 2.6029999 9.8430004 2.668C9.7700005 2.7309999 9.6719999 2.78 9.5489998 2.816C9.4280005 2.849 9.2749996 2.865 9.0909996 2.865L8.1730003 2.865L8.1730003 0.242ZM8.8830004 1.346C8.9870005 1.346 9.0749998 1.34 9.1479998 1.33C9.224 1.3200001 9.2849998 1.303 9.3330002 1.277C9.3809996 1.25 9.4160004 1.2130001 9.4390001 1.168C9.4619999 1.123 9.4729996 1.063 9.4729996 0.99000001C9.4729996 0.912 9.4619999 0.85000002 9.4390001 0.80500001C9.4160004 0.75999999 9.3809996 0.72600001 9.3330002 0.70300001C9.2880001 0.67799997 9.2270002 0.66100001 9.1520004 0.65399998C9.0790005 0.64600003 8.9890003 0.64300001 8.8830004 0.64300001L8.6680002 0.64300001L8.6680002 1.346L8.8830004 1.346ZM8.9630003 2.46C9.0760002 2.46 9.1689997 2.4549999 9.243 2.4449999C9.3179998 2.4349999 9.3769999 2.4159999 9.4200001 2.3889999C9.4659996 2.358 9.4969997 2.319 9.5150003 2.2709999C9.5319996 2.224 9.5410004 2.1619999 9.5410004 2.086C9.5410004 2.0179999 9.5319996 1.96 9.5150003 1.9119999C9.4969997 1.865 9.4659996 1.827 9.4200001 1.799C9.3769999 1.7690001 9.3179998 1.747 9.243 1.735C9.1689997 1.72 9.0760002 1.712 8.9630003 1.712L8.6680002 1.712L8.6680002 2.46L8.9630003 2.46Z" transform="translate(30.969, 65.639)" fill="#000000" opacity="0.3"></path><path d="M0.26800001 0.50999999C0.215 0.50999999 0.171 0.50800002 0.13600001 0.50300002C0.103 0.498 0.075999998 0.486 0.052999999 0.46900001C0.033 0.449 0.018999999 0.42199999 0.011 0.389C0.0040000002 0.35699999 0 0.31099999 0 0.25299999C0 0.19499999 0.0040000002 0.15000001 0.011 0.117C0.018999999 0.082000002 0.033 0.057 0.052999999 0.041999999C0.075999998 0.024 0.103 0.013 0.13600001 0.0080000004C0.171 0.003 0.215 0 0.26800001 0C0.32100001 0 0.36399999 0.003 0.39700001 0.0080000004C0.43200001 0.013 0.46000001 0.024 0.47999999 0.041999999C0.50300002 0.057 0.51800001 0.082000002 0.52499998 0.117C0.53299999 0.15000001 0.537 0.19499999 0.537 0.25299999C0.537 0.31099999 0.53299999 0.35699999 0.52499998 0.389C0.51800001 0.42199999 0.50300002 0.449 0.47999999 0.46900001C0.46000001 0.486 0.43200001 0.498 0.39700001 0.50300002C0.36399999 0.50800002 0.32100001 0.50999999 0.26800001 0.50999999ZM0.029999999 0.824L0.50300002 0.824L0.50300002 2.865L0.029999999 2.865L0.029999999 0.824ZM1.603 1.202L1.603 2.1849999C1.603 2.25 1.6059999 2.3039999 1.6109999 2.3469999C1.619 2.3900001 1.631 2.424 1.649 2.4489999C1.669 2.474 1.6950001 2.4920001 1.728 2.5020001C1.761 2.51 1.804 2.513 1.857 2.513C1.892 2.513 1.925 2.5120001 1.955 2.51C1.985 2.507 2.0139999 2.5020001 2.0420001 2.494L2.0420001 2.869C2.0020001 2.8740001 1.96 2.8770001 1.9170001 2.8800001C1.874 2.885 1.831 2.888 1.789 2.888C1.668 2.888 1.564 2.8789999 1.479 2.8610001C1.396 2.8410001 1.3279999 2.8069999 1.275 2.7590001C1.224 2.7090001 1.188 2.641 1.165 2.5550001C1.142 2.467 1.131 2.3559999 1.131 2.2219999L1.131 1.202L0.84799999 1.202L0.84799999 0.824L1.131 0.824L1.131 0.34L1.603 0.34L1.603 0.824L2.053 0.824L2.053 1.202L1.603 1.202ZM4.1459999 1.6670001C4.1459999 1.717 4.1430001 1.766 4.138 1.814C4.1350002 1.86 4.132 1.9 4.1269999 1.9349999L2.789 2.0220001C2.7939999 2.1930001 2.842 2.319 2.9319999 2.4000001C3.023 2.4809999 3.1700001 2.5209999 3.3740001 2.5209999C3.4349999 2.5209999 3.497 2.517 3.5599999 2.51C3.625 2.5020001 3.687 2.4920001 3.7449999 2.4790001C3.8050001 2.464 3.8610001 2.4489999 3.911 2.434C3.9619999 2.4159999 4.0040002 2.3989999 4.04 2.381L4.04 2.767C3.9790001 2.802 3.881 2.8329999 3.7449999 2.8610001C3.609 2.8889999 3.4579999 2.9030001 3.2909999 2.9030001C3.135 2.9030001 2.997 2.8859999 2.8759999 2.8540001C2.7550001 2.8210001 2.6530001 2.7639999 2.569 2.6830001C2.4860001 2.6029999 2.4219999 2.494 2.3770001 2.358C2.3340001 2.2219999 2.312 2.0510001 2.312 1.844C2.312 1.638 2.3340001 1.466 2.3770001 1.33C2.4219999 1.194 2.4860001 1.086 2.569 1.005C2.6530001 0.92500001 2.7550001 0.86799997 2.8759999 0.83499998C2.997 0.80299997 3.135 0.78600001 3.2909999 0.78600001C3.4679999 0.78600001 3.6110001 0.81 3.7219999 0.85799998C3.8329999 0.903 3.9200001 0.96600002 3.983 1.0470001C4.046 1.128 4.0890002 1.221 4.1110001 1.327C4.1339998 1.432 4.1459999 1.546 4.1459999 1.6670001ZM3.707 1.618C3.707 1.5549999 3.7019999 1.495 3.6919999 1.4400001C3.684 1.382 3.6659999 1.332 3.635 1.289C3.605 1.2460001 3.562 1.212 3.507 1.187C3.454 1.1619999 3.382 1.149 3.2909999 1.149C3.1960001 1.149 3.1159999 1.16 3.053 1.183C2.99 1.206 2.9400001 1.24 2.902 1.285C2.8640001 1.33 2.8369999 1.387 2.819 1.455C2.8010001 1.521 2.7909999 1.597 2.789 1.686L3.707 1.618ZM6.901 0.78600001C7.1350002 0.78600001 7.3060002 0.84500003 7.415 0.96399999C7.5229998 1.08 7.5770001 1.256 7.5770001 1.493L7.5770001 2.865L7.105 2.865L7.105 1.599C7.105 1.455 7.0809999 1.349 7.033 1.281C6.9850001 1.2130001 6.8969998 1.179 6.7690001 1.179C6.6550002 1.179 6.5609999 1.202 6.4850001 1.247C6.4120002 1.293 6.3600001 1.376 6.3299999 1.497L6.3299999 2.865L5.8579998 2.865L5.8579998 1.599C5.8579998 1.455 5.8340001 1.349 5.7859998 1.281C5.7399998 1.2130001 5.6550002 1.179 5.5289998 1.179C5.415 1.179 5.323 1.201 5.2529998 1.243C5.1820002 1.286 5.131 1.367 5.098 1.485L5.098 2.865L4.6259999 2.865L4.6259999 0.824L5.098 0.824L5.098 1.066C5.1560001 0.96499997 5.2329998 0.89300001 5.329 0.85000002C5.4239998 0.80800003 5.54 0.78600001 5.6760001 0.78600001C5.835 0.78600001 5.961 0.81300002 6.0539999 0.866C6.1469998 0.91600001 6.217 0.99000001 6.2620001 1.089C6.3200002 0.97799999 6.4060001 0.89999998 6.5190001 0.85399997C6.632 0.80900002 6.7600002 0.78600001 6.901 0.78600001ZM9.3450003 2.9030001C9.1560001 2.9030001 8.9840002 2.8840001 8.8310003 2.846C8.6789999 2.8080001 8.5500002 2.74 8.441 2.642C8.3330002 2.5409999 8.2489996 2.404 8.1879997 2.23C8.1300001 2.0539999 8.1009998 1.8279999 8.1009998 1.553C8.1009998 1.301 8.1300001 1.09 8.1879997 0.91799998C8.2489996 0.745 8.3330002 0.60500002 8.441 0.49900001C8.5500002 0.39300001 8.6809998 0.317 8.8339996 0.27200001C8.9879999 0.227 9.1610003 0.204 9.3520002 0.204C9.4779997 0.204 9.5889997 0.212 9.6850004 0.227C9.783 0.23899999 9.8719997 0.25999999 9.9530001 0.287L9.9530001 0.722C9.8719997 0.69400001 9.7860003 0.67299998 9.6920004 0.65799999C9.599 0.63999999 9.4960003 0.63099998 9.382 0.63099998C9.2539997 0.63099998 9.1420002 0.64600003 9.0459995 0.67699999C8.9530001 0.70700002 8.875 0.75800002 8.8120003 0.83099997C8.7510004 0.90200001 8.7060003 0.99699998 8.6759996 1.115C8.6450005 1.2309999 8.6300001 1.376 8.6300001 1.55C8.6300001 1.734 8.6440001 1.885 8.6719999 2.003C8.7019997 2.122 8.7469997 2.2160001 8.8079996 2.2869999C8.868 2.355 8.9440002 2.4030001 9.0349998 2.4300001C9.1280003 2.4549999 9.2370005 2.4679999 9.3629999 2.4679999C9.4790001 2.4679999 9.5860004 2.46 9.6850004 2.4449999C9.783 2.428 9.8830004 2.401 9.9829998 2.3659999L9.9829998 2.793C9.9049997 2.823 9.8109999 2.849 9.6999998 2.869C9.5909996 2.891 9.4729996 2.9030001 9.3450003 2.9030001Z" transform="translate(47.269, 65.639)" fill="#000000" opacity="0.3"></path><path d="M0.26800001 0.50999999C0.215 0.50999999 0.171 0.50800002 0.13600001 0.50300002C0.103 0.498 0.075999998 0.486 0.052999999 0.46900001C0.033 0.449 0.018999999 0.42199999 0.011 0.389C0.0040000002 0.35699999 0 0.31099999 0 0.25299999C0 0.19499999 0.0040000002 0.15000001 0.011 0.117C0.018999999 0.082000002 0.033 0.057 0.052999999 0.041999999C0.075999998 0.024 0.103 0.013 0.13600001 0.0080000004C0.171 0.003 0.215 0 0.26800001 0C0.32100001 0 0.36399999 0.003 0.39700001 0.0080000004C0.43200001 0.013 0.46000001 0.024 0.47999999 0.041999999C0.50300002 0.057 0.51800001 0.082000002 0.52499998 0.117C0.53299999 0.15000001 0.537 0.19499999 0.537 0.25299999C0.537 0.31099999 0.53299999 0.35699999 0.52499998 0.389C0.51800001 0.42199999 0.50300002 0.449 0.47999999 0.46900001C0.46000001 0.486 0.43200001 0.498 0.39700001 0.50300002C0.36399999 0.50800002 0.32100001 0.50999999 0.26800001 0.50999999ZM0.029999999 0.824L0.50300002 0.824L0.50300002 2.865L0.029999999 2.865L0.029999999 0.824ZM1.603 1.202L1.603 2.1849999C1.603 2.25 1.6059999 2.3039999 1.6109999 2.3469999C1.619 2.3900001 1.631 2.424 1.649 2.4489999C1.669 2.474 1.6950001 2.4920001 1.728 2.5020001C1.761 2.51 1.804 2.513 1.857 2.513C1.892 2.513 1.925 2.5120001 1.955 2.51C1.985 2.507 2.0139999 2.5020001 2.0420001 2.494L2.0420001 2.869C2.0020001 2.8740001 1.96 2.8770001 1.9170001 2.8800001C1.874 2.885 1.831 2.888 1.789 2.888C1.668 2.888 1.564 2.8789999 1.479 2.8610001C1.396 2.8410001 1.3279999 2.8069999 1.275 2.7590001C1.224 2.7090001 1.188 2.641 1.165 2.5550001C1.142 2.467 1.131 2.3559999 1.131 2.2219999L1.131 1.202L0.84799999 1.202L0.84799999 0.824L1.131 0.824L1.131 0.34L1.603 0.34L1.603 0.824L2.053 0.824L2.053 1.202L1.603 1.202ZM4.1459999 1.6670001C4.1459999 1.717 4.1430001 1.766 4.138 1.814C4.1350002 1.86 4.132 1.9 4.1269999 1.9349999L2.789 2.0220001C2.7939999 2.1930001 2.842 2.319 2.9319999 2.4000001C3.023 2.4809999 3.1700001 2.5209999 3.3740001 2.5209999C3.4349999 2.5209999 3.497 2.517 3.5599999 2.51C3.625 2.5020001 3.687 2.4920001 3.7449999 2.4790001C3.8050001 2.464 3.8610001 2.4489999 3.911 2.434C3.9619999 2.4159999 4.0040002 2.3989999 4.04 2.381L4.04 2.767C3.9790001 2.802 3.881 2.8329999 3.7449999 2.8610001C3.609 2.8889999 3.4579999 2.9030001 3.2909999 2.9030001C3.135 2.9030001 2.997 2.8859999 2.8759999 2.8540001C2.7550001 2.8210001 2.6530001 2.7639999 2.569 2.6830001C2.4860001 2.6029999 2.4219999 2.494 2.3770001 2.358C2.3340001 2.2219999 2.312 2.0510001 2.312 1.844C2.312 1.638 2.3340001 1.466 2.3770001 1.33C2.4219999 1.194 2.4860001 1.086 2.569 1.005C2.6530001 0.92500001 2.7550001 0.86799997 2.8759999 0.83499998C2.997 0.80299997 3.135 0.78600001 3.2909999 0.78600001C3.4679999 0.78600001 3.6110001 0.81 3.7219999 0.85799998C3.8329999 0.903 3.9200001 0.96600002 3.983 1.0470001C4.046 1.128 4.0890002 1.221 4.1110001 1.327C4.1339998 1.432 4.1459999 1.546 4.1459999 1.6670001ZM3.707 1.618C3.707 1.5549999 3.7019999 1.495 3.6919999 1.4400001C3.684 1.382 3.6659999 1.332 3.635 1.289C3.605 1.2460001 3.562 1.212 3.507 1.187C3.454 1.1619999 3.382 1.149 3.2909999 1.149C3.1960001 1.149 3.1159999 1.16 3.053 1.183C2.99 1.206 2.9400001 1.24 2.902 1.285C2.8640001 1.33 2.8369999 1.387 2.819 1.455C2.8010001 1.521 2.7909999 1.597 2.789 1.686L3.707 1.618ZM6.901 0.78600001C7.1350002 0.78600001 7.3060002 0.84500003 7.415 0.96399999C7.5229998 1.08 7.5770001 1.256 7.5770001 1.493L7.5770001 2.865L7.105 2.865L7.105 1.599C7.105 1.455 7.0809999 1.349 7.033 1.281C6.9850001 1.2130001 6.8969998 1.179 6.7690001 1.179C6.6550002 1.179 6.5609999 1.202 6.4850001 1.247C6.4120002 1.293 6.3600001 1.376 6.3299999 1.497L6.3299999 2.865L5.8579998 2.865L5.8579998 1.599C5.8579998 1.455 5.8340001 1.349 5.7859998 1.281C5.7399998 1.2130001 5.6550002 1.179 5.5289998 1.179C5.415 1.179 5.323 1.201 5.2529998 1.243C5.1820002 1.286 5.131 1.367 5.098 1.485L5.098 2.865L4.6259999 2.865L4.6259999 0.824L5.098 0.824L5.098 1.066C5.1560001 0.96499997 5.2329998 0.89300001 5.329 0.85000002C5.4239998 0.80800003 5.54 0.78600001 5.6760001 0.78600001C5.835 0.78600001 5.961 0.81300002 6.0539999 0.866C6.1469998 0.91600001 6.217 0.99000001 6.2620001 1.089C6.3200002 0.97799999 6.4060001 0.89999998 6.5190001 0.85399997C6.632 0.80900002 6.7600002 0.78600001 6.901 0.78600001ZM9.0229998 0.242C9.2150002 0.242 9.3889999 0.25999999 9.5450001 0.29499999C9.7010002 0.32800001 9.835 0.39199999 9.9460001 0.48800001C10.056 0.583 10.142 0.71700001 10.203 0.88800001C10.266 1.0599999 10.297 1.281 10.297 1.553C10.297 1.808 10.266 2.02 10.203 2.188C10.142 2.355 10.056 2.4879999 9.9460001 2.589C9.835 2.6900001 9.7010002 2.7620001 9.5450001 2.8039999C9.3889999 2.845 9.2150002 2.865 9.0229998 2.865L8.1730003 2.865L8.1730003 0.242L9.0229998 0.242ZM9.0010004 2.438C9.1269999 2.438 9.2390003 2.424 9.3369999 2.3959999C9.4350004 2.369 9.5170002 2.322 9.5830002 2.256C9.651 2.188 9.7010002 2.098 9.7340002 1.984C9.7690001 1.8710001 9.7869997 1.727 9.7869997 1.553C9.7869997 1.372 9.7690001 1.223 9.7340002 1.107C9.6990004 0.991 9.6470003 0.90100002 9.5790005 0.83499998C9.5109997 0.76700002 9.4280005 0.722 9.3290005 0.699C9.2340002 0.67400002 9.1239996 0.66100001 9.0010004 0.66100001L8.6680002 0.66100001L8.6680002 2.438L9.0010004 2.438Z" transform="translate(63.568, 65.639)" fill="#000000" opacity="0.3"></path><path d="M0.26800001 0.50999999C0.215 0.50999999 0.171 0.50800002 0.13600001 0.50300002C0.103 0.498 0.075999998 0.486 0.052999999 0.46900001C0.033 0.449 0.018999999 0.42199999 0.011 0.389C0.0040000002 0.35699999 0 0.31099999 0 0.25299999C0 0.19499999 0.0040000002 0.15000001 0.011 0.117C0.018999999 0.082000002 0.033 0.057 0.052999999 0.041999999C0.075999998 0.024 0.103 0.013 0.13600001 0.0080000004C0.171 0.003 0.215 0 0.26800001 0C0.32100001 0 0.36399999 0.003 0.39700001 0.0080000004C0.43200001 0.013 0.46000001 0.024 0.47999999 0.041999999C0.50300002 0.057 0.51800001 0.082000002 0.52499998 0.117C0.53299999 0.15000001 0.537 0.19499999 0.537 0.25299999C0.537 0.31099999 0.53299999 0.35699999 0.52499998 0.389C0.51800001 0.42199999 0.50300002 0.449 0.47999999 0.46900001C0.46000001 0.486 0.43200001 0.498 0.39700001 0.50300002C0.36399999 0.50800002 0.32100001 0.50999999 0.26800001 0.50999999ZM0.029999999 0.824L0.50300002 0.824L0.50300002 2.865L0.029999999 2.865L0.029999999 0.824ZM1.603 1.202L1.603 2.1849999C1.603 2.25 1.6059999 2.3039999 1.6109999 2.3469999C1.619 2.3900001 1.631 2.424 1.649 2.4489999C1.669 2.474 1.6950001 2.4920001 1.728 2.5020001C1.761 2.51 1.804 2.513 1.857 2.513C1.892 2.513 1.925 2.5120001 1.955 2.51C1.985 2.507 2.0139999 2.5020001 2.0420001 2.494L2.0420001 2.869C2.0020001 2.8740001 1.96 2.8770001 1.9170001 2.8800001C1.874 2.885 1.831 2.888 1.789 2.888C1.668 2.888 1.564 2.8789999 1.479 2.8610001C1.396 2.8410001 1.3279999 2.8069999 1.275 2.7590001C1.224 2.7090001 1.188 2.641 1.165 2.5550001C1.142 2.467 1.131 2.3559999 1.131 2.2219999L1.131 1.202L0.84799999 1.202L0.84799999 0.824L1.131 0.824L1.131 0.34L1.603 0.34L1.603 0.824L2.053 0.824L2.053 1.202L1.603 1.202ZM4.1459999 1.6670001C4.1459999 1.717 4.1430001 1.766 4.138 1.814C4.1350002 1.86 4.132 1.9 4.1269999 1.9349999L2.789 2.0220001C2.7939999 2.1930001 2.842 2.319 2.9319999 2.4000001C3.023 2.4809999 3.1700001 2.5209999 3.3740001 2.5209999C3.4349999 2.5209999 3.497 2.517 3.5599999 2.51C3.625 2.5020001 3.687 2.4920001 3.7449999 2.4790001C3.8050001 2.464 3.8610001 2.4489999 3.911 2.434C3.9619999 2.4159999 4.0040002 2.3989999 4.04 2.381L4.04 2.767C3.9790001 2.802 3.881 2.8329999 3.7449999 2.8610001C3.609 2.8889999 3.4579999 2.9030001 3.2909999 2.9030001C3.135 2.9030001 2.997 2.8859999 2.8759999 2.8540001C2.7550001 2.8210001 2.6530001 2.7639999 2.569 2.6830001C2.4860001 2.6029999 2.4219999 2.494 2.3770001 2.358C2.3340001 2.2219999 2.312 2.0510001 2.312 1.844C2.312 1.638 2.3340001 1.466 2.3770001 1.33C2.4219999 1.194 2.4860001 1.086 2.569 1.005C2.6530001 0.92500001 2.7550001 0.86799997 2.8759999 0.83499998C2.997 0.80299997 3.135 0.78600001 3.2909999 0.78600001C3.4679999 0.78600001 3.6110001 0.81 3.7219999 0.85799998C3.8329999 0.903 3.9200001 0.96600002 3.983 1.0470001C4.046 1.128 4.0890002 1.221 4.1110001 1.327C4.1339998 1.432 4.1459999 1.546 4.1459999 1.6670001ZM3.707 1.618C3.707 1.5549999 3.7019999 1.495 3.6919999 1.4400001C3.684 1.382 3.6659999 1.332 3.635 1.289C3.605 1.2460001 3.562 1.212 3.507 1.187C3.454 1.1619999 3.382 1.149 3.2909999 1.149C3.1960001 1.149 3.1159999 1.16 3.053 1.183C2.99 1.206 2.9400001 1.24 2.902 1.285C2.8640001 1.33 2.8369999 1.387 2.819 1.455C2.8010001 1.521 2.7909999 1.597 2.789 1.686L3.707 1.618ZM6.901 0.78600001C7.1350002 0.78600001 7.3060002 0.84500003 7.415 0.96399999C7.5229998 1.08 7.5770001 1.256 7.5770001 1.493L7.5770001 2.865L7.105 2.865L7.105 1.599C7.105 1.455 7.0809999 1.349 7.033 1.281C6.9850001 1.2130001 6.8969998 1.179 6.7690001 1.179C6.6550002 1.179 6.5609999 1.202 6.4850001 1.247C6.4120002 1.293 6.3600001 1.376 6.3299999 1.497L6.3299999 2.865L5.8579998 2.865L5.8579998 1.599C5.8579998 1.455 5.8340001 1.349 5.7859998 1.281C5.7399998 1.2130001 5.6550002 1.179 5.5289998 1.179C5.415 1.179 5.323 1.201 5.2529998 1.243C5.1820002 1.286 5.131 1.367 5.098 1.485L5.098 2.865L4.6259999 2.865L4.6259999 0.824L5.098 0.824L5.098 1.066C5.1560001 0.96499997 5.2329998 0.89300001 5.329 0.85000002C5.4239998 0.80800003 5.54 0.78600001 5.6760001 0.78600001C5.835 0.78600001 5.961 0.81300002 6.0539999 0.866C6.1469998 0.91600001 6.217 0.99000001 6.2620001 1.089C6.3200002 0.97799999 6.4060001 0.89999998 6.5190001 0.85399997C6.632 0.80900002 6.7600002 0.78600001 6.901 0.78600001ZM9.7939997 2.4300001L9.7939997 2.865L8.1730003 2.865L8.1730003 0.242L9.7259998 0.242L9.7259998 0.67299998L8.6680002 0.67299998L8.6680002 1.308L9.651 1.308L9.651 1.72L8.6680002 1.72L8.6680002 2.4300001L9.7939997 2.4300001Z" transform="translate(80.103, 65.639)" fill="#000000" opacity="0.3"></path><path d="M0.23622048 -0.15748031L0 -0.15748031L0 0.15748031L0.23622048 0.15748031L0.23622048 -0.15748031ZM1.6535434 -0.15748031L1.1811024 -0.15748031L1.1811024 0.15748031L1.6535434 0.15748031L1.6535434 -0.15748031ZM3.0708661 -0.15748031L2.5984254 -0.15748031L2.5984254 0.15748031L3.0708661 0.15748031L3.0708661 -0.15748031ZM4.4881892 -0.15748031L4.015748 -0.15748031L4.015748 0.15748031L4.4881892 0.15748031L4.4881892 -0.15748031ZM5.9055119 -0.15748031L5.4330711 -0.15748031L5.4330711 0.15748031L5.9055119 0.15748031L5.9055119 -0.15748031ZM7.322835 -0.15748031L6.8503938 -0.15748031L6.8503938 0.15748031L7.322835 0.15748031L7.322835 -0.15748031ZM8.7401581 -0.15748031L8.2677164 -0.15748031L8.2677164 0.15748031L8.7401581 0.15748031L8.7401581 -0.15748031ZM10.15748 -0.15748031L9.6850395 -0.15748031L9.6850395 0.15748031L10.15748 0.15748031L10.15748 -0.15748031ZM11.574803 -0.15748031L11.102363 -0.15748031L11.102363 0.15748031L11.574803 0.15748031L11.574803 -0.15748031ZM12.992126 -0.15748031L12.519686 -0.15748031L12.519686 0.15748031L12.992126 0.15748031L12.992126 -0.15748031ZM14.40945 -0.15748031L13.937008 -0.15748031L13.937008 0.15748031L14.40945 0.15748031L14.40945 -0.15748031ZM15.826772 -0.15748031L15.354331 -0.15748031L15.354331 0.15748031L15.826772 0.15748031L15.826772 -0.15748031ZM17.244095 -0.15748031L16.771654 -0.15748031L16.771654 0.15748031L17.244095 0.15748031L17.244095 -0.15748031ZM18.661417 -0.15748031L18.188976 -0.15748031L18.188976 0.15748031L18.661417 0.15748031L18.661417 -0.15748031ZM20.078741 -0.15748031L19.6063 -0.15748031L19.6063 0.15748031L20.078741 0.15748031L20.078741 -0.15748031ZM21.496063 -0.15748031L21.023623 -0.15748031L21.023623 0.15748031L21.496063 0.15748031L21.496063 -0.15748031ZM22.913387 -0.15748031L22.440945 -0.15748031L22.440945 0.15748031L22.913387 0.15748031L22.913387 -0.15748031ZM24.330709 -0.15748031L23.858269 -0.15748031L23.858269 0.15748031L24.330709 0.15748031L24.330709 -0.15748031ZM25.748032 -0.15748031L25.275591 -0.15748031L25.275591 0.15748031L25.748032 0.15748031L25.748032 -0.15748031ZM27.165356 -0.15748031L26.692915 -0.15748031L26.692915 0.15748031L27.165356 0.15748031L27.165356 -0.15748031ZM28.582678 -0.15748031L28.110237 -0.15748031L28.110237 0.15748031L28.582678 0.15748031L28.582678 -0.15748031ZM30 -0.15748031L29.527559 -0.15748031L29.527559 0.15748031L30 0.15748031L30 -0.15748031ZM31.417324 -0.15748031L30.944883 -0.15748031L30.944883 0.15748031L31.417324 0.15748031L31.417324 -0.15748031ZM32.834648 -0.15748031L32.362206 -0.15748031L32.362206 0.15748031L32.834648 0.15748031L32.834648 -0.15748031ZM34.251968 -0.15748031L33.77953 -0.15748031L33.77953 0.15748031L34.251968 0.15748031L34.251968 -0.15748031ZM35.669292 -0.15748031L35.19685 -0.15748031L35.19685 0.15748031L35.669292 0.15748031L35.669292 -0.15748031ZM37.086617 -0.15748031L36.614174 -0.15748031L36.614174 0.15748031L37.086617 0.15748031L37.086617 -0.15748031ZM38.503937 -0.15748031L38.031498 -0.15748031L38.031498 0.15748031L38.503937 0.15748031L38.503937 -0.15748031ZM39.921261 -0.15748031L39.448818 -0.15748031L39.448818 0.15748031L39.921261 0.15748031L39.921261 -0.15748031ZM41.338585 -0.15748031L40.866142 -0.15748031L40.866142 0.15748031L41.338585 0.15748031L41.338585 -0.15748031ZM42.755905 -0.15748031L42.283466 -0.15748031L42.283466 0.15748031L42.755905 0.15748031L42.755905 -0.15748031ZM44.173229 -0.15748031L43.70079 -0.15748031L43.70079 0.15748031L44.173229 0.15748031L44.173229 -0.15748031ZM45.590553 -0.15748031L45.118111 -0.15748031L45.118111 0.15748031L45.590553 0.15748031L45.590553 -0.15748031ZM47.007874 -0.15748031L46.535435 -0.15748031L46.535435 0.15748031L47.007874 0.15748031L47.007874 -0.15748031ZM48.425198 -0.15748031L47.952759 -0.15748031L47.952759 0.15748031L48.425198 0.15748031L48.425198 -0.15748031ZM49.842522 -0.15748031L49.370079 -0.15748031L49.370079 0.15748031L49.842522 0.15748031L49.842522 -0.15748031ZM51.259846 -0.15748031L50.787403 -0.15748031L50.787403 0.15748031L51.259846 0.15748031L51.259846 -0.15748031ZM52.677166 -0.15748031L52.204727 -0.15748031L52.204727 0.15748031L52.677166 0.15748031L52.677166 -0.15748031ZM54.09449 -0.15748031L53.622047 -0.15748031L53.622047 0.15748031L54.09449 0.15748031L54.09449 -0.15748031ZM55.511814 -0.15748031L55.039371 -0.15748031L55.039371 0.15748031L55.511814 0.15748031L55.511814 -0.15748031ZM56.929134 -0.15748031L56.456696 -0.15748031L56.456696 0.15748031L56.929134 0.15748031L56.929134 -0.15748031ZM58.346458 -0.15748031L57.874016 -0.15748031L57.874016 0.15748031L58.346458 0.15748031L58.346458 -0.15748031ZM59.763783 -0.15748031L59.29134 -0.15748031L59.29134 0.15748031L59.763783 0.15748031L59.763783 -0.15748031ZM61.181103 -0.15748031L60.708664 -0.15748031L60.708664 0.15748031L61.181103 0.15748031L61.181103 -0.15748031ZM62.598427 -0.15748031L62.125984 -0.15748031L62.125984 0.15748031L62.598427 0.15748031L62.598427 -0.15748031ZM64.015747 -0.15748031L63.543308 -0.15748031L63.543308 0.15748031L64.015747 0.15748031L64.015747 -0.15748031ZM65.433075 -0.15748031L64.960632 -0.15748031L64.960632 0.15748031L65.433075 0.15748031L65.433075 -0.15748031ZM66.850395 -0.15748031L66.377953 -0.15748031L66.377953 0.15748031L66.850395 0.15748031L66.850395 -0.15748031ZM68.267715 -0.15748031L67.79528 -0.15748031L67.79528 0.15748031L68.267715 0.15748031L68.267715 -0.15748031ZM69.685043 -0.15748031L69.212601 -0.15748031L69.212601 0.15748031L69.685043 0.15748031L69.685043 -0.15748031ZM71.102364 -0.15748031L70.629921 -0.15748031L70.629921 0.15748031L71.102364 0.15748031L71.102364 -0.15748031ZM72.519684 -0.15748031L72.047249 -0.15748031L72.047249 0.15748031L72.519684 0.15748031L72.519684 -0.15748031ZM73.937012 -0.15748031L73.464569 -0.15748031L73.464569 0.15748031L73.937012 0.15748031L73.937012 -0.15748031ZM75.354332 -0.15748031L74.881889 -0.15748031L74.881889 0.15748031L75.354332 0.15748031L75.354332 -0.15748031ZM76.771652 -0.15748031L76.299217 -0.15748031L76.299217 0.15748031L76.771652 0.15748031L76.771652 -0.15748031ZM78.18898 -0.15748031L77.716537 -0.15748031L77.716537 0.15748031L78.18898 0.15748031L78.18898 -0.15748031ZM79.6063 -0.15748031L79.133858 -0.15748031L79.133858 0.15748031L79.6063 0.15748031L79.6063 -0.15748031ZM81.023621 -0.15748031L80.551186 -0.15748031L80.551186 0.15748031L81.023621 0.15748031L81.023621 -0.15748031ZM82.440948 -0.15748031L81.968506 -0.15748031L81.968506 0.15748031L82.440948 0.15748031L82.440948 -0.15748031ZM83.858269 -0.15748031L83.385826 -0.15748031L83.385826 0.15748031L83.858269 0.15748031L83.858269 -0.15748031ZM85.275597 -0.15748031L84.803154 -0.15748031L84.803154 0.15748031L85.275597 0.15748031L85.275597 -0.15748031ZM86.692917 -0.15748031L86.220474 -0.15748031L86.220474 0.15748031L86.692917 0.15748031L86.692917 -0.15748031ZM88.110237 -0.15748031L87.637794 -0.15748031L87.637794 0.15748031L88.110237 0.15748031L88.110237 -0.15748031ZM89.527565 -0.15748031L89.055122 -0.15748031L89.055122 0.15748031L89.527565 0.15748031L89.527565 -0.15748031ZM90.944885 -0.15748031L90.472443 -0.15748031L90.472443 0.15748031L90.944885 0.15748031L90.944885 -0.15748031ZM91.889999 -0.15748031L91.889763 -0.15748031L91.889763 0.15748031L91.889999 0.15748031L91.889999 -0.15748031Z" fill-rule="evenodd" transform="translate(13.819, 17.717)" fill="#000000" opacity="0.2"></path><path d="M0.23622048 -0.15748031L0 -0.15748031L0 0.15748031L0.23622048 0.15748031L0.23622048 -0.15748031ZM1.6535434 -0.15748031L1.1811024 -0.15748031L1.1811024 0.15748031L1.6535434 0.15748031L1.6535434 -0.15748031ZM3.0708661 -0.15748031L2.5984254 -0.15748031L2.5984254 0.15748031L3.0708661 0.15748031L3.0708661 -0.15748031ZM4.4881892 -0.15748031L4.015748 -0.15748031L4.015748 0.15748031L4.4881892 0.15748031L4.4881892 -0.15748031ZM5.9055119 -0.15748031L5.4330711 -0.15748031L5.4330711 0.15748031L5.9055119 0.15748031L5.9055119 -0.15748031ZM7.322835 -0.15748031L6.8503938 -0.15748031L6.8503938 0.15748031L7.322835 0.15748031L7.322835 -0.15748031ZM8.7401581 -0.15748031L8.2677164 -0.15748031L8.2677164 0.15748031L8.7401581 0.15748031L8.7401581 -0.15748031ZM10.15748 -0.15748031L9.6850395 -0.15748031L9.6850395 0.15748031L10.15748 0.15748031L10.15748 -0.15748031ZM11.574803 -0.15748031L11.102363 -0.15748031L11.102363 0.15748031L11.574803 0.15748031L11.574803 -0.15748031ZM12.992126 -0.15748031L12.519686 -0.15748031L12.519686 0.15748031L12.992126 0.15748031L12.992126 -0.15748031ZM14.40945 -0.15748031L13.937008 -0.15748031L13.937008 0.15748031L14.40945 0.15748031L14.40945 -0.15748031ZM15.826772 -0.15748031L15.354331 -0.15748031L15.354331 0.15748031L15.826772 0.15748031L15.826772 -0.15748031ZM17.244095 -0.15748031L16.771654 -0.15748031L16.771654 0.15748031L17.244095 0.15748031L17.244095 -0.15748031ZM18.661417 -0.15748031L18.188976 -0.15748031L18.188976 0.15748031L18.661417 0.15748031L18.661417 -0.15748031ZM20.078741 -0.15748031L19.6063 -0.15748031L19.6063 0.15748031L20.078741 0.15748031L20.078741 -0.15748031ZM21.496063 -0.15748031L21.023623 -0.15748031L21.023623 0.15748031L21.496063 0.15748031L21.496063 -0.15748031ZM22.913387 -0.15748031L22.440945 -0.15748031L22.440945 0.15748031L22.913387 0.15748031L22.913387 -0.15748031ZM24.330709 -0.15748031L23.858269 -0.15748031L23.858269 0.15748031L24.330709 0.15748031L24.330709 -0.15748031ZM25.748032 -0.15748031L25.275591 -0.15748031L25.275591 0.15748031L25.748032 0.15748031L25.748032 -0.15748031ZM27.165356 -0.15748031L26.692915 -0.15748031L26.692915 0.15748031L27.165356 0.15748031L27.165356 -0.15748031ZM28.582678 -0.15748031L28.110237 -0.15748031L28.110237 0.15748031L28.582678 0.15748031L28.582678 -0.15748031ZM30 -0.15748031L29.527559 -0.15748031L29.527559 0.15748031L30 0.15748031L30 -0.15748031ZM31.417324 -0.15748031L30.944883 -0.15748031L30.944883 0.15748031L31.417324 0.15748031L31.417324 -0.15748031ZM32.834648 -0.15748031L32.362206 -0.15748031L32.362206 0.15748031L32.834648 0.15748031L32.834648 -0.15748031ZM34.251968 -0.15748031L33.77953 -0.15748031L33.77953 0.15748031L34.251968 0.15748031L34.251968 -0.15748031ZM35.669292 -0.15748031L35.19685 -0.15748031L35.19685 0.15748031L35.669292 0.15748031L35.669292 -0.15748031ZM37.086617 -0.15748031L36.614174 -0.15748031L36.614174 0.15748031L37.086617 0.15748031L37.086617 -0.15748031ZM38.503937 -0.15748031L38.031498 -0.15748031L38.031498 0.15748031L38.503937 0.15748031L38.503937 -0.15748031ZM39.921261 -0.15748031L39.448818 -0.15748031L39.448818 0.15748031L39.921261 0.15748031L39.921261 -0.15748031ZM41.338585 -0.15748031L40.866142 -0.15748031L40.866142 0.15748031L41.338585 0.15748031L41.338585 -0.15748031ZM42.755905 -0.15748031L42.283466 -0.15748031L42.283466 0.15748031L42.755905 0.15748031L42.755905 -0.15748031ZM44.173229 -0.15748031L43.70079 -0.15748031L43.70079 0.15748031L44.173229 0.15748031L44.173229 -0.15748031ZM45.590553 -0.15748031L45.118111 -0.15748031L45.118111 0.15748031L45.590553 0.15748031L45.590553 -0.15748031ZM47.007874 -0.15748031L46.535435 -0.15748031L46.535435 0.15748031L47.007874 0.15748031L47.007874 -0.15748031ZM48.425198 -0.15748031L47.952759 -0.15748031L47.952759 0.15748031L48.425198 0.15748031L48.425198 -0.15748031ZM49.842522 -0.15748031L49.370079 -0.15748031L49.370079 0.15748031L49.842522 0.15748031L49.842522 -0.15748031ZM51.259846 -0.15748031L50.787403 -0.15748031L50.787403 0.15748031L51.259846 0.15748031L51.259846 -0.15748031ZM52.677166 -0.15748031L52.204727 -0.15748031L52.204727 0.15748031L52.677166 0.15748031L52.677166 -0.15748031ZM54.09449 -0.15748031L53.622047 -0.15748031L53.622047 0.15748031L54.09449 0.15748031L54.09449 -0.15748031ZM55.511814 -0.15748031L55.039371 -0.15748031L55.039371 0.15748031L55.511814 0.15748031L55.511814 -0.15748031ZM56.929134 -0.15748031L56.456696 -0.15748031L56.456696 0.15748031L56.929134 0.15748031L56.929134 -0.15748031ZM58.346458 -0.15748031L57.874016 -0.15748031L57.874016 0.15748031L58.346458 0.15748031L58.346458 -0.15748031ZM59.763783 -0.15748031L59.29134 -0.15748031L59.29134 0.15748031L59.763783 0.15748031L59.763783 -0.15748031ZM61.181103 -0.15748031L60.708664 -0.15748031L60.708664 0.15748031L61.181103 0.15748031L61.181103 -0.15748031ZM62.598427 -0.15748031L62.125984 -0.15748031L62.125984 0.15748031L62.598427 0.15748031L62.598427 -0.15748031ZM64.015747 -0.15748031L63.543308 -0.15748031L63.543308 0.15748031L64.015747 0.15748031L64.015747 -0.15748031ZM65.433075 -0.15748031L64.960632 -0.15748031L64.960632 0.15748031L65.433075 0.15748031L65.433075 -0.15748031ZM66.850395 -0.15748031L66.377953 -0.15748031L66.377953 0.15748031L66.850395 0.15748031L66.850395 -0.15748031ZM68.267715 -0.15748031L67.79528 -0.15748031L67.79528 0.15748031L68.267715 0.15748031L68.267715 -0.15748031ZM69.685043 -0.15748031L69.212601 -0.15748031L69.212601 0.15748031L69.685043 0.15748031L69.685043 -0.15748031ZM71.102364 -0.15748031L70.629921 -0.15748031L70.629921 0.15748031L71.102364 0.15748031L71.102364 -0.15748031ZM72.519684 -0.15748031L72.047249 -0.15748031L72.047249 0.15748031L72.519684 0.15748031L72.519684 -0.15748031ZM73.937012 -0.15748031L73.464569 -0.15748031L73.464569 0.15748031L73.937012 0.15748031L73.937012 -0.15748031ZM75.354332 -0.15748031L74.881889 -0.15748031L74.881889 0.15748031L75.354332 0.15748031L75.354332 -0.15748031ZM76.771652 -0.15748031L76.299217 -0.15748031L76.299217 0.15748031L76.771652 0.15748031L76.771652 -0.15748031ZM78.18898 -0.15748031L77.716537 -0.15748031L77.716537 0.15748031L78.18898 0.15748031L78.18898 -0.15748031ZM79.6063 -0.15748031L79.133858 -0.15748031L79.133858 0.15748031L79.6063 0.15748031L79.6063 -0.15748031ZM81.023621 -0.15748031L80.551186 -0.15748031L80.551186 0.15748031L81.023621 0.15748031L81.023621 -0.15748031ZM82.440948 -0.15748031L81.968506 -0.15748031L81.968506 0.15748031L82.440948 0.15748031L82.440948 -0.15748031ZM83.858269 -0.15748031L83.385826 -0.15748031L83.385826 0.15748031L83.858269 0.15748031L83.858269 -0.15748031ZM85.275597 -0.15748031L84.803154 -0.15748031L84.803154 0.15748031L85.275597 0.15748031L85.275597 -0.15748031ZM86.692917 -0.15748031L86.220474 -0.15748031L86.220474 0.15748031L86.692917 0.15748031L86.692917 -0.15748031ZM88.110237 -0.15748031L87.637794 -0.15748031L87.637794 0.15748031L88.110237 0.15748031L88.110237 -0.15748031ZM89.527565 -0.15748031L89.055122 -0.15748031L89.055122 0.15748031L89.527565 0.15748031L89.527565 -0.15748031ZM90.944885 -0.15748031L90.472443 -0.15748031L90.472443 0.15748031L90.944885 0.15748031L90.944885 -0.15748031ZM91.889999 -0.15748031L91.889763 -0.15748031L91.889763 0.15748031L91.889999 0.15748031L91.889999 -0.15748031Z" fill-rule="evenodd" transform="translate(13.819, 26.457)" fill="#000000" opacity="0.2"></path><path d="M0.23622048 -0.15748031L0 -0.15748031L0 0.15748031L0.23622048 0.15748031L0.23622048 -0.15748031ZM1.6535434 -0.15748031L1.1811024 -0.15748031L1.1811024 0.15748031L1.6535434 0.15748031L1.6535434 -0.15748031ZM3.0708661 -0.15748031L2.5984254 -0.15748031L2.5984254 0.15748031L3.0708661 0.15748031L3.0708661 -0.15748031ZM4.4881892 -0.15748031L4.015748 -0.15748031L4.015748 0.15748031L4.4881892 0.15748031L4.4881892 -0.15748031ZM5.9055119 -0.15748031L5.4330711 -0.15748031L5.4330711 0.15748031L5.9055119 0.15748031L5.9055119 -0.15748031ZM7.322835 -0.15748031L6.8503938 -0.15748031L6.8503938 0.15748031L7.322835 0.15748031L7.322835 -0.15748031ZM8.7401581 -0.15748031L8.2677164 -0.15748031L8.2677164 0.15748031L8.7401581 0.15748031L8.7401581 -0.15748031ZM10.15748 -0.15748031L9.6850395 -0.15748031L9.6850395 0.15748031L10.15748 0.15748031L10.15748 -0.15748031ZM11.574803 -0.15748031L11.102363 -0.15748031L11.102363 0.15748031L11.574803 0.15748031L11.574803 -0.15748031ZM12.992126 -0.15748031L12.519686 -0.15748031L12.519686 0.15748031L12.992126 0.15748031L12.992126 -0.15748031ZM14.40945 -0.15748031L13.937008 -0.15748031L13.937008 0.15748031L14.40945 0.15748031L14.40945 -0.15748031ZM15.826772 -0.15748031L15.354331 -0.15748031L15.354331 0.15748031L15.826772 0.15748031L15.826772 -0.15748031ZM17.244095 -0.15748031L16.771654 -0.15748031L16.771654 0.15748031L17.244095 0.15748031L17.244095 -0.15748031ZM18.661417 -0.15748031L18.188976 -0.15748031L18.188976 0.15748031L18.661417 0.15748031L18.661417 -0.15748031ZM20.078741 -0.15748031L19.6063 -0.15748031L19.6063 0.15748031L20.078741 0.15748031L20.078741 -0.15748031ZM21.496063 -0.15748031L21.023623 -0.15748031L21.023623 0.15748031L21.496063 0.15748031L21.496063 -0.15748031ZM22.913387 -0.15748031L22.440945 -0.15748031L22.440945 0.15748031L22.913387 0.15748031L22.913387 -0.15748031ZM24.330709 -0.15748031L23.858269 -0.15748031L23.858269 0.15748031L24.330709 0.15748031L24.330709 -0.15748031ZM25.748032 -0.15748031L25.275591 -0.15748031L25.275591 0.15748031L25.748032 0.15748031L25.748032 -0.15748031ZM27.165356 -0.15748031L26.692915 -0.15748031L26.692915 0.15748031L27.165356 0.15748031L27.165356 -0.15748031ZM28.582678 -0.15748031L28.110237 -0.15748031L28.110237 0.15748031L28.582678 0.15748031L28.582678 -0.15748031ZM30 -0.15748031L29.527559 -0.15748031L29.527559 0.15748031L30 0.15748031L30 -0.15748031ZM31.417324 -0.15748031L30.944883 -0.15748031L30.944883 0.15748031L31.417324 0.15748031L31.417324 -0.15748031ZM32.834648 -0.15748031L32.362206 -0.15748031L32.362206 0.15748031L32.834648 0.15748031L32.834648 -0.15748031ZM34.251968 -0.15748031L33.77953 -0.15748031L33.77953 0.15748031L34.251968 0.15748031L34.251968 -0.15748031ZM35.669292 -0.15748031L35.19685 -0.15748031L35.19685 0.15748031L35.669292 0.15748031L35.669292 -0.15748031ZM37.086617 -0.15748031L36.614174 -0.15748031L36.614174 0.15748031L37.086617 0.15748031L37.086617 -0.15748031ZM38.503937 -0.15748031L38.031498 -0.15748031L38.031498 0.15748031L38.503937 0.15748031L38.503937 -0.15748031ZM39.921261 -0.15748031L39.448818 -0.15748031L39.448818 0.15748031L39.921261 0.15748031L39.921261 -0.15748031ZM41.338585 -0.15748031L40.866142 -0.15748031L40.866142 0.15748031L41.338585 0.15748031L41.338585 -0.15748031ZM42.755905 -0.15748031L42.283466 -0.15748031L42.283466 0.15748031L42.755905 0.15748031L42.755905 -0.15748031ZM44.173229 -0.15748031L43.70079 -0.15748031L43.70079 0.15748031L44.173229 0.15748031L44.173229 -0.15748031ZM45.590553 -0.15748031L45.118111 -0.15748031L45.118111 0.15748031L45.590553 0.15748031L45.590553 -0.15748031ZM47.007874 -0.15748031L46.535435 -0.15748031L46.535435 0.15748031L47.007874 0.15748031L47.007874 -0.15748031ZM48.425198 -0.15748031L47.952759 -0.15748031L47.952759 0.15748031L48.425198 0.15748031L48.425198 -0.15748031ZM49.842522 -0.15748031L49.370079 -0.15748031L49.370079 0.15748031L49.842522 0.15748031L49.842522 -0.15748031ZM51.259846 -0.15748031L50.787403 -0.15748031L50.787403 0.15748031L51.259846 0.15748031L51.259846 -0.15748031ZM52.677166 -0.15748031L52.204727 -0.15748031L52.204727 0.15748031L52.677166 0.15748031L52.677166 -0.15748031ZM54.09449 -0.15748031L53.622047 -0.15748031L53.622047 0.15748031L54.09449 0.15748031L54.09449 -0.15748031ZM55.511814 -0.15748031L55.039371 -0.15748031L55.039371 0.15748031L55.511814 0.15748031L55.511814 -0.15748031ZM56.929134 -0.15748031L56.456696 -0.15748031L56.456696 0.15748031L56.929134 0.15748031L56.929134 -0.15748031ZM58.346458 -0.15748031L57.874016 -0.15748031L57.874016 0.15748031L58.346458 0.15748031L58.346458 -0.15748031ZM59.763783 -0.15748031L59.29134 -0.15748031L59.29134 0.15748031L59.763783 0.15748031L59.763783 -0.15748031ZM61.181103 -0.15748031L60.708664 -0.15748031L60.708664 0.15748031L61.181103 0.15748031L61.181103 -0.15748031ZM62.598427 -0.15748031L62.125984 -0.15748031L62.125984 0.15748031L62.598427 0.15748031L62.598427 -0.15748031ZM64.015747 -0.15748031L63.543308 -0.15748031L63.543308 0.15748031L64.015747 0.15748031L64.015747 -0.15748031ZM65.433075 -0.15748031L64.960632 -0.15748031L64.960632 0.15748031L65.433075 0.15748031L65.433075 -0.15748031ZM66.850395 -0.15748031L66.377953 -0.15748031L66.377953 0.15748031L66.850395 0.15748031L66.850395 -0.15748031ZM68.267715 -0.15748031L67.79528 -0.15748031L67.79528 0.15748031L68.267715 0.15748031L68.267715 -0.15748031ZM69.685043 -0.15748031L69.212601 -0.15748031L69.212601 0.15748031L69.685043 0.15748031L69.685043 -0.15748031ZM71.102364 -0.15748031L70.629921 -0.15748031L70.629921 0.15748031L71.102364 0.15748031L71.102364 -0.15748031ZM72.519684 -0.15748031L72.047249 -0.15748031L72.047249 0.15748031L72.519684 0.15748031L72.519684 -0.15748031ZM73.937012 -0.15748031L73.464569 -0.15748031L73.464569 0.15748031L73.937012 0.15748031L73.937012 -0.15748031ZM75.354332 -0.15748031L74.881889 -0.15748031L74.881889 0.15748031L75.354332 0.15748031L75.354332 -0.15748031ZM76.771652 -0.15748031L76.299217 -0.15748031L76.299217 0.15748031L76.771652 0.15748031L76.771652 -0.15748031ZM78.18898 -0.15748031L77.716537 -0.15748031L77.716537 0.15748031L78.18898 0.15748031L78.18898 -0.15748031ZM79.6063 -0.15748031L79.133858 -0.15748031L79.133858 0.15748031L79.6063 0.15748031L79.6063 -0.15748031ZM81.023621 -0.15748031L80.551186 -0.15748031L80.551186 0.15748031L81.023621 0.15748031L81.023621 -0.15748031ZM82.440948 -0.15748031L81.968506 -0.15748031L81.968506 0.15748031L82.440948 0.15748031L82.440948 -0.15748031ZM83.858269 -0.15748031L83.385826 -0.15748031L83.385826 0.15748031L83.858269 0.15748031L83.858269 -0.15748031ZM85.275597 -0.15748031L84.803154 -0.15748031L84.803154 0.15748031L85.275597 0.15748031L85.275597 -0.15748031ZM86.692917 -0.15748031L86.220474 -0.15748031L86.220474 0.15748031L86.692917 0.15748031L86.692917 -0.15748031ZM88.110237 -0.15748031L87.637794 -0.15748031L87.637794 0.15748031L88.110237 0.15748031L88.110237 -0.15748031ZM89.527565 -0.15748031L89.055122 -0.15748031L89.055122 0.15748031L89.527565 0.15748031L89.527565 -0.15748031ZM90.944885 -0.15748031L90.472443 -0.15748031L90.472443 0.15748031L90.944885 0.15748031L90.944885 -0.15748031ZM91.889999 -0.15748031L91.889763 -0.15748031L91.889763 0.15748031L91.889999 0.15748031L91.889999 -0.15748031Z" fill-rule="evenodd" transform="translate(13.819, 35.197)" fill="#000000" opacity="0.2"></path><path d="M0.23622048 -0.15748031L0 -0.15748031L0 0.15748031L0.23622048 0.15748031L0.23622048 -0.15748031ZM1.6535434 -0.15748031L1.1811024 -0.15748031L1.1811024 0.15748031L1.6535434 0.15748031L1.6535434 -0.15748031ZM3.0708661 -0.15748031L2.5984254 -0.15748031L2.5984254 0.15748031L3.0708661 0.15748031L3.0708661 -0.15748031ZM4.4881892 -0.15748031L4.015748 -0.15748031L4.015748 0.15748031L4.4881892 0.15748031L4.4881892 -0.15748031ZM5.9055119 -0.15748031L5.4330711 -0.15748031L5.4330711 0.15748031L5.9055119 0.15748031L5.9055119 -0.15748031ZM7.322835 -0.15748031L6.8503938 -0.15748031L6.8503938 0.15748031L7.322835 0.15748031L7.322835 -0.15748031ZM8.7401581 -0.15748031L8.2677164 -0.15748031L8.2677164 0.15748031L8.7401581 0.15748031L8.7401581 -0.15748031ZM10.15748 -0.15748031L9.6850395 -0.15748031L9.6850395 0.15748031L10.15748 0.15748031L10.15748 -0.15748031ZM11.574803 -0.15748031L11.102363 -0.15748031L11.102363 0.15748031L11.574803 0.15748031L11.574803 -0.15748031ZM12.992126 -0.15748031L12.519686 -0.15748031L12.519686 0.15748031L12.992126 0.15748031L12.992126 -0.15748031ZM14.40945 -0.15748031L13.937008 -0.15748031L13.937008 0.15748031L14.40945 0.15748031L14.40945 -0.15748031ZM15.826772 -0.15748031L15.354331 -0.15748031L15.354331 0.15748031L15.826772 0.15748031L15.826772 -0.15748031ZM17.244095 -0.15748031L16.771654 -0.15748031L16.771654 0.15748031L17.244095 0.15748031L17.244095 -0.15748031ZM18.661417 -0.15748031L18.188976 -0.15748031L18.188976 0.15748031L18.661417 0.15748031L18.661417 -0.15748031ZM20.078741 -0.15748031L19.6063 -0.15748031L19.6063 0.15748031L20.078741 0.15748031L20.078741 -0.15748031ZM21.496063 -0.15748031L21.023623 -0.15748031L21.023623 0.15748031L21.496063 0.15748031L21.496063 -0.15748031ZM22.913387 -0.15748031L22.440945 -0.15748031L22.440945 0.15748031L22.913387 0.15748031L22.913387 -0.15748031ZM24.330709 -0.15748031L23.858269 -0.15748031L23.858269 0.15748031L24.330709 0.15748031L24.330709 -0.15748031ZM25.748032 -0.15748031L25.275591 -0.15748031L25.275591 0.15748031L25.748032 0.15748031L25.748032 -0.15748031ZM27.165356 -0.15748031L26.692915 -0.15748031L26.692915 0.15748031L27.165356 0.15748031L27.165356 -0.15748031ZM28.582678 -0.15748031L28.110237 -0.15748031L28.110237 0.15748031L28.582678 0.15748031L28.582678 -0.15748031ZM30 -0.15748031L29.527559 -0.15748031L29.527559 0.15748031L30 0.15748031L30 -0.15748031ZM31.417324 -0.15748031L30.944883 -0.15748031L30.944883 0.15748031L31.417324 0.15748031L31.417324 -0.15748031ZM32.834648 -0.15748031L32.362206 -0.15748031L32.362206 0.15748031L32.834648 0.15748031L32.834648 -0.15748031ZM34.251968 -0.15748031L33.77953 -0.15748031L33.77953 0.15748031L34.251968 0.15748031L34.251968 -0.15748031ZM35.669292 -0.15748031L35.19685 -0.15748031L35.19685 0.15748031L35.669292 0.15748031L35.669292 -0.15748031ZM37.086617 -0.15748031L36.614174 -0.15748031L36.614174 0.15748031L37.086617 0.15748031L37.086617 -0.15748031ZM38.503937 -0.15748031L38.031498 -0.15748031L38.031498 0.15748031L38.503937 0.15748031L38.503937 -0.15748031ZM39.921261 -0.15748031L39.448818 -0.15748031L39.448818 0.15748031L39.921261 0.15748031L39.921261 -0.15748031ZM41.338585 -0.15748031L40.866142 -0.15748031L40.866142 0.15748031L41.338585 0.15748031L41.338585 -0.15748031ZM42.755905 -0.15748031L42.283466 -0.15748031L42.283466 0.15748031L42.755905 0.15748031L42.755905 -0.15748031ZM44.173229 -0.15748031L43.70079 -0.15748031L43.70079 0.15748031L44.173229 0.15748031L44.173229 -0.15748031ZM45.590553 -0.15748031L45.118111 -0.15748031L45.118111 0.15748031L45.590553 0.15748031L45.590553 -0.15748031ZM47.007874 -0.15748031L46.535435 -0.15748031L46.535435 0.15748031L47.007874 0.15748031L47.007874 -0.15748031ZM48.425198 -0.15748031L47.952759 -0.15748031L47.952759 0.15748031L48.425198 0.15748031L48.425198 -0.15748031ZM49.842522 -0.15748031L49.370079 -0.15748031L49.370079 0.15748031L49.842522 0.15748031L49.842522 -0.15748031ZM51.259846 -0.15748031L50.787403 -0.15748031L50.787403 0.15748031L51.259846 0.15748031L51.259846 -0.15748031ZM52.677166 -0.15748031L52.204727 -0.15748031L52.204727 0.15748031L52.677166 0.15748031L52.677166 -0.15748031ZM54.09449 -0.15748031L53.622047 -0.15748031L53.622047 0.15748031L54.09449 0.15748031L54.09449 -0.15748031ZM55.511814 -0.15748031L55.039371 -0.15748031L55.039371 0.15748031L55.511814 0.15748031L55.511814 -0.15748031ZM56.929134 -0.15748031L56.456696 -0.15748031L56.456696 0.15748031L56.929134 0.15748031L56.929134 -0.15748031ZM58.346458 -0.15748031L57.874016 -0.15748031L57.874016 0.15748031L58.346458 0.15748031L58.346458 -0.15748031ZM59.763783 -0.15748031L59.29134 -0.15748031L59.29134 0.15748031L59.763783 0.15748031L59.763783 -0.15748031ZM61.181103 -0.15748031L60.708664 -0.15748031L60.708664 0.15748031L61.181103 0.15748031L61.181103 -0.15748031ZM62.598427 -0.15748031L62.125984 -0.15748031L62.125984 0.15748031L62.598427 0.15748031L62.598427 -0.15748031ZM64.015747 -0.15748031L63.543308 -0.15748031L63.543308 0.15748031L64.015747 0.15748031L64.015747 -0.15748031ZM65.433075 -0.15748031L64.960632 -0.15748031L64.960632 0.15748031L65.433075 0.15748031L65.433075 -0.15748031ZM66.850395 -0.15748031L66.377953 -0.15748031L66.377953 0.15748031L66.850395 0.15748031L66.850395 -0.15748031ZM68.267715 -0.15748031L67.79528 -0.15748031L67.79528 0.15748031L68.267715 0.15748031L68.267715 -0.15748031ZM69.685043 -0.15748031L69.212601 -0.15748031L69.212601 0.15748031L69.685043 0.15748031L69.685043 -0.15748031ZM71.102364 -0.15748031L70.629921 -0.15748031L70.629921 0.15748031L71.102364 0.15748031L71.102364 -0.15748031ZM72.519684 -0.15748031L72.047249 -0.15748031L72.047249 0.15748031L72.519684 0.15748031L72.519684 -0.15748031ZM73.937012 -0.15748031L73.464569 -0.15748031L73.464569 0.15748031L73.937012 0.15748031L73.937012 -0.15748031ZM75.354332 -0.15748031L74.881889 -0.15748031L74.881889 0.15748031L75.354332 0.15748031L75.354332 -0.15748031ZM76.771652 -0.15748031L76.299217 -0.15748031L76.299217 0.15748031L76.771652 0.15748031L76.771652 -0.15748031ZM78.18898 -0.15748031L77.716537 -0.15748031L77.716537 0.15748031L78.18898 0.15748031L78.18898 -0.15748031ZM79.6063 -0.15748031L79.133858 -0.15748031L79.133858 0.15748031L79.6063 0.15748031L79.6063 -0.15748031ZM81.023621 -0.15748031L80.551186 -0.15748031L80.551186 0.15748031L81.023621 0.15748031L81.023621 -0.15748031ZM82.440948 -0.15748031L81.968506 -0.15748031L81.968506 0.15748031L82.440948 0.15748031L82.440948 -0.15748031ZM83.858269 -0.15748031L83.385826 -0.15748031L83.385826 0.15748031L83.858269 0.15748031L83.858269 -0.15748031ZM85.275597 -0.15748031L84.803154 -0.15748031L84.803154 0.15748031L85.275597 0.15748031L85.275597 -0.15748031ZM86.692917 -0.15748031L86.220474 -0.15748031L86.220474 0.15748031L86.692917 0.15748031L86.692917 -0.15748031ZM88.110237 -0.15748031L87.637794 -0.15748031L87.637794 0.15748031L88.110237 0.15748031L88.110237 -0.15748031ZM89.527565 -0.15748031L89.055122 -0.15748031L89.055122 0.15748031L89.527565 0.15748031L89.527565 -0.15748031ZM90.944885 -0.15748031L90.472443 -0.15748031L90.472443 0.15748031L90.944885 0.15748031L90.944885 -0.15748031ZM91.889999 -0.15748031L91.889763 -0.15748031L91.889763 0.15748031L91.889999 0.15748031L91.889999 -0.15748031Z" fill-rule="evenodd" transform="translate(13.819, 43.937)" fill="#000000" opacity="0.2"></path><path d="M0.23622048 -0.15748031L0 -0.15748031L0 0.15748031L0.23622048 0.15748031L0.23622048 -0.15748031ZM1.6535434 -0.15748031L1.1811024 -0.15748031L1.1811024 0.15748031L1.6535434 0.15748031L1.6535434 -0.15748031ZM3.0708661 -0.15748031L2.5984254 -0.15748031L2.5984254 0.15748031L3.0708661 0.15748031L3.0708661 -0.15748031ZM4.4881892 -0.15748031L4.015748 -0.15748031L4.015748 0.15748031L4.4881892 0.15748031L4.4881892 -0.15748031ZM5.9055119 -0.15748031L5.4330711 -0.15748031L5.4330711 0.15748031L5.9055119 0.15748031L5.9055119 -0.15748031ZM7.322835 -0.15748031L6.8503938 -0.15748031L6.8503938 0.15748031L7.322835 0.15748031L7.322835 -0.15748031ZM8.7401581 -0.15748031L8.2677164 -0.15748031L8.2677164 0.15748031L8.7401581 0.15748031L8.7401581 -0.15748031ZM10.15748 -0.15748031L9.6850395 -0.15748031L9.6850395 0.15748031L10.15748 0.15748031L10.15748 -0.15748031ZM11.574803 -0.15748031L11.102363 -0.15748031L11.102363 0.15748031L11.574803 0.15748031L11.574803 -0.15748031ZM12.992126 -0.15748031L12.519686 -0.15748031L12.519686 0.15748031L12.992126 0.15748031L12.992126 -0.15748031ZM14.40945 -0.15748031L13.937008 -0.15748031L13.937008 0.15748031L14.40945 0.15748031L14.40945 -0.15748031ZM15.826772 -0.15748031L15.354331 -0.15748031L15.354331 0.15748031L15.826772 0.15748031L15.826772 -0.15748031ZM17.244095 -0.15748031L16.771654 -0.15748031L16.771654 0.15748031L17.244095 0.15748031L17.244095 -0.15748031ZM18.661417 -0.15748031L18.188976 -0.15748031L18.188976 0.15748031L18.661417 0.15748031L18.661417 -0.15748031ZM20.078741 -0.15748031L19.6063 -0.15748031L19.6063 0.15748031L20.078741 0.15748031L20.078741 -0.15748031ZM21.496063 -0.15748031L21.023623 -0.15748031L21.023623 0.15748031L21.496063 0.15748031L21.496063 -0.15748031ZM22.913387 -0.15748031L22.440945 -0.15748031L22.440945 0.15748031L22.913387 0.15748031L22.913387 -0.15748031ZM24.330709 -0.15748031L23.858269 -0.15748031L23.858269 0.15748031L24.330709 0.15748031L24.330709 -0.15748031ZM25.748032 -0.15748031L25.275591 -0.15748031L25.275591 0.15748031L25.748032 0.15748031L25.748032 -0.15748031ZM27.165356 -0.15748031L26.692915 -0.15748031L26.692915 0.15748031L27.165356 0.15748031L27.165356 -0.15748031ZM28.582678 -0.15748031L28.110237 -0.15748031L28.110237 0.15748031L28.582678 0.15748031L28.582678 -0.15748031ZM30 -0.15748031L29.527559 -0.15748031L29.527559 0.15748031L30 0.15748031L30 -0.15748031ZM31.417324 -0.15748031L30.944883 -0.15748031L30.944883 0.15748031L31.417324 0.15748031L31.417324 -0.15748031ZM32.834648 -0.15748031L32.362206 -0.15748031L32.362206 0.15748031L32.834648 0.15748031L32.834648 -0.15748031ZM34.251968 -0.15748031L33.77953 -0.15748031L33.77953 0.15748031L34.251968 0.15748031L34.251968 -0.15748031ZM35.669292 -0.15748031L35.19685 -0.15748031L35.19685 0.15748031L35.669292 0.15748031L35.669292 -0.15748031ZM37.086617 -0.15748031L36.614174 -0.15748031L36.614174 0.15748031L37.086617 0.15748031L37.086617 -0.15748031ZM38.503937 -0.15748031L38.031498 -0.15748031L38.031498 0.15748031L38.503937 0.15748031L38.503937 -0.15748031ZM39.921261 -0.15748031L39.448818 -0.15748031L39.448818 0.15748031L39.921261 0.15748031L39.921261 -0.15748031ZM41.338585 -0.15748031L40.866142 -0.15748031L40.866142 0.15748031L41.338585 0.15748031L41.338585 -0.15748031ZM42.755905 -0.15748031L42.283466 -0.15748031L42.283466 0.15748031L42.755905 0.15748031L42.755905 -0.15748031ZM44.173229 -0.15748031L43.70079 -0.15748031L43.70079 0.15748031L44.173229 0.15748031L44.173229 -0.15748031ZM45.590553 -0.15748031L45.118111 -0.15748031L45.118111 0.15748031L45.590553 0.15748031L45.590553 -0.15748031ZM47.007874 -0.15748031L46.535435 -0.15748031L46.535435 0.15748031L47.007874 0.15748031L47.007874 -0.15748031ZM48.425198 -0.15748031L47.952759 -0.15748031L47.952759 0.15748031L48.425198 0.15748031L48.425198 -0.15748031ZM49.842522 -0.15748031L49.370079 -0.15748031L49.370079 0.15748031L49.842522 0.15748031L49.842522 -0.15748031ZM51.259846 -0.15748031L50.787403 -0.15748031L50.787403 0.15748031L51.259846 0.15748031L51.259846 -0.15748031ZM52.677166 -0.15748031L52.204727 -0.15748031L52.204727 0.15748031L52.677166 0.15748031L52.677166 -0.15748031ZM54.09449 -0.15748031L53.622047 -0.15748031L53.622047 0.15748031L54.09449 0.15748031L54.09449 -0.15748031ZM55.511814 -0.15748031L55.039371 -0.15748031L55.039371 0.15748031L55.511814 0.15748031L55.511814 -0.15748031ZM56.929134 -0.15748031L56.456696 -0.15748031L56.456696 0.15748031L56.929134 0.15748031L56.929134 -0.15748031ZM58.346458 -0.15748031L57.874016 -0.15748031L57.874016 0.15748031L58.346458 0.15748031L58.346458 -0.15748031ZM59.763783 -0.15748031L59.29134 -0.15748031L59.29134 0.15748031L59.763783 0.15748031L59.763783 -0.15748031ZM61.181103 -0.15748031L60.708664 -0.15748031L60.708664 0.15748031L61.181103 0.15748031L61.181103 -0.15748031ZM62.598427 -0.15748031L62.125984 -0.15748031L62.125984 0.15748031L62.598427 0.15748031L62.598427 -0.15748031ZM64.015747 -0.15748031L63.543308 -0.15748031L63.543308 0.15748031L64.015747 0.15748031L64.015747 -0.15748031ZM65.433075 -0.15748031L64.960632 -0.15748031L64.960632 0.15748031L65.433075 0.15748031L65.433075 -0.15748031ZM66.850395 -0.15748031L66.377953 -0.15748031L66.377953 0.15748031L66.850395 0.15748031L66.850395 -0.15748031ZM68.267715 -0.15748031L67.79528 -0.15748031L67.79528 0.15748031L68.267715 0.15748031L68.267715 -0.15748031ZM69.685043 -0.15748031L69.212601 -0.15748031L69.212601 0.15748031L69.685043 0.15748031L69.685043 -0.15748031ZM71.102364 -0.15748031L70.629921 -0.15748031L70.629921 0.15748031L71.102364 0.15748031L71.102364 -0.15748031ZM72.519684 -0.15748031L72.047249 -0.15748031L72.047249 0.15748031L72.519684 0.15748031L72.519684 -0.15748031ZM73.937012 -0.15748031L73.464569 -0.15748031L73.464569 0.15748031L73.937012 0.15748031L73.937012 -0.15748031ZM75.354332 -0.15748031L74.881889 -0.15748031L74.881889 0.15748031L75.354332 0.15748031L75.354332 -0.15748031ZM76.771652 -0.15748031L76.299217 -0.15748031L76.299217 0.15748031L76.771652 0.15748031L76.771652 -0.15748031ZM78.18898 -0.15748031L77.716537 -0.15748031L77.716537 0.15748031L78.18898 0.15748031L78.18898 -0.15748031ZM79.6063 -0.15748031L79.133858 -0.15748031L79.133858 0.15748031L79.6063 0.15748031L79.6063 -0.15748031ZM81.023621 -0.15748031L80.551186 -0.15748031L80.551186 0.15748031L81.023621 0.15748031L81.023621 -0.15748031ZM82.440948 -0.15748031L81.968506 -0.15748031L81.968506 0.15748031L82.440948 0.15748031L82.440948 -0.15748031ZM83.858269 -0.15748031L83.385826 -0.15748031L83.385826 0.15748031L83.858269 0.15748031L83.858269 -0.15748031ZM85.275597 -0.15748031L84.803154 -0.15748031L84.803154 0.15748031L85.275597 0.15748031L85.275597 -0.15748031ZM86.692917 -0.15748031L86.220474 -0.15748031L86.220474 0.15748031L86.692917 0.15748031L86.692917 -0.15748031ZM88.110237 -0.15748031L87.637794 -0.15748031L87.637794 0.15748031L88.110237 0.15748031L88.110237 -0.15748031ZM89.527565 -0.15748031L89.055122 -0.15748031L89.055122 0.15748031L89.527565 0.15748031L89.527565 -0.15748031ZM90.944885 -0.15748031L90.472443 -0.15748031L90.472443 0.15748031L90.944885 0.15748031L90.944885 -0.15748031ZM91.889999 -0.15748031L91.889763 -0.15748031L91.889763 0.15748031L91.889999 0.15748031L91.889999 -0.15748031Z" fill-rule="evenodd" transform="translate(13.819, 52.677)" fill="#000000" opacity="0.2"></path><path d="M0.23622048 -0.15748031L0 -0.15748031L0 0.15748031L0.23622048 0.15748031L0.23622048 -0.15748031ZM1.6535434 -0.15748031L1.1811024 -0.15748031L1.1811024 0.15748031L1.6535434 0.15748031L1.6535434 -0.15748031ZM3.0708661 -0.15748031L2.5984254 -0.15748031L2.5984254 0.15748031L3.0708661 0.15748031L3.0708661 -0.15748031ZM4.4881892 -0.15748031L4.015748 -0.15748031L4.015748 0.15748031L4.4881892 0.15748031L4.4881892 -0.15748031ZM5.9055119 -0.15748031L5.4330711 -0.15748031L5.4330711 0.15748031L5.9055119 0.15748031L5.9055119 -0.15748031ZM7.322835 -0.15748031L6.8503938 -0.15748031L6.8503938 0.15748031L7.322835 0.15748031L7.322835 -0.15748031ZM8.7401581 -0.15748031L8.2677164 -0.15748031L8.2677164 0.15748031L8.7401581 0.15748031L8.7401581 -0.15748031ZM10.15748 -0.15748031L9.6850395 -0.15748031L9.6850395 0.15748031L10.15748 0.15748031L10.15748 -0.15748031ZM11.574803 -0.15748031L11.102363 -0.15748031L11.102363 0.15748031L11.574803 0.15748031L11.574803 -0.15748031ZM12.992126 -0.15748031L12.519686 -0.15748031L12.519686 0.15748031L12.992126 0.15748031L12.992126 -0.15748031ZM14.40945 -0.15748031L13.937008 -0.15748031L13.937008 0.15748031L14.40945 0.15748031L14.40945 -0.15748031ZM15.826772 -0.15748031L15.354331 -0.15748031L15.354331 0.15748031L15.826772 0.15748031L15.826772 -0.15748031ZM17.244095 -0.15748031L16.771654 -0.15748031L16.771654 0.15748031L17.244095 0.15748031L17.244095 -0.15748031ZM18.661417 -0.15748031L18.188976 -0.15748031L18.188976 0.15748031L18.661417 0.15748031L18.661417 -0.15748031ZM20.078741 -0.15748031L19.6063 -0.15748031L19.6063 0.15748031L20.078741 0.15748031L20.078741 -0.15748031ZM21.496063 -0.15748031L21.023623 -0.15748031L21.023623 0.15748031L21.496063 0.15748031L21.496063 -0.15748031ZM22.913387 -0.15748031L22.440945 -0.15748031L22.440945 0.15748031L22.913387 0.15748031L22.913387 -0.15748031ZM24.330709 -0.15748031L23.858269 -0.15748031L23.858269 0.15748031L24.330709 0.15748031L24.330709 -0.15748031ZM25.748032 -0.15748031L25.275591 -0.15748031L25.275591 0.15748031L25.748032 0.15748031L25.748032 -0.15748031ZM27.165356 -0.15748031L26.692915 -0.15748031L26.692915 0.15748031L27.165356 0.15748031L27.165356 -0.15748031ZM28.582678 -0.15748031L28.110237 -0.15748031L28.110237 0.15748031L28.582678 0.15748031L28.582678 -0.15748031ZM30 -0.15748031L29.527559 -0.15748031L29.527559 0.15748031L30 0.15748031L30 -0.15748031ZM31.417324 -0.15748031L30.944883 -0.15748031L30.944883 0.15748031L31.417324 0.15748031L31.417324 -0.15748031ZM32.834648 -0.15748031L32.362206 -0.15748031L32.362206 0.15748031L32.834648 0.15748031L32.834648 -0.15748031ZM34.251968 -0.15748031L33.77953 -0.15748031L33.77953 0.15748031L34.251968 0.15748031L34.251968 -0.15748031ZM35.669292 -0.15748031L35.19685 -0.15748031L35.19685 0.15748031L35.669292 0.15748031L35.669292 -0.15748031ZM37.086617 -0.15748031L36.614174 -0.15748031L36.614174 0.15748031L37.086617 0.15748031L37.086617 -0.15748031ZM38.503937 -0.15748031L38.031498 -0.15748031L38.031498 0.15748031L38.503937 0.15748031L38.503937 -0.15748031ZM39.921261 -0.15748031L39.448818 -0.15748031L39.448818 0.15748031L39.921261 0.15748031L39.921261 -0.15748031ZM41.338585 -0.15748031L40.866142 -0.15748031L40.866142 0.15748031L41.338585 0.15748031L41.338585 -0.15748031ZM42.755905 -0.15748031L42.283466 -0.15748031L42.283466 0.15748031L42.755905 0.15748031L42.755905 -0.15748031ZM44.173229 -0.15748031L43.70079 -0.15748031L43.70079 0.15748031L44.173229 0.15748031L44.173229 -0.15748031ZM45.590553 -0.15748031L45.118111 -0.15748031L45.118111 0.15748031L45.590553 0.15748031L45.590553 -0.15748031ZM47.007874 -0.15748031L46.535435 -0.15748031L46.535435 0.15748031L47.007874 0.15748031L47.007874 -0.15748031ZM48.425198 -0.15748031L47.952759 -0.15748031L47.952759 0.15748031L48.425198 0.15748031L48.425198 -0.15748031ZM49.842522 -0.15748031L49.370079 -0.15748031L49.370079 0.15748031L49.842522 0.15748031L49.842522 -0.15748031ZM51.259846 -0.15748031L50.787403 -0.15748031L50.787403 0.15748031L51.259846 0.15748031L51.259846 -0.15748031ZM52.677166 -0.15748031L52.204727 -0.15748031L52.204727 0.15748031L52.677166 0.15748031L52.677166 -0.15748031ZM54.09449 -0.15748031L53.622047 -0.15748031L53.622047 0.15748031L54.09449 0.15748031L54.09449 -0.15748031ZM55.511814 -0.15748031L55.039371 -0.15748031L55.039371 0.15748031L55.511814 0.15748031L55.511814 -0.15748031ZM56.929134 -0.15748031L56.456696 -0.15748031L56.456696 0.15748031L56.929134 0.15748031L56.929134 -0.15748031ZM58.346458 -0.15748031L57.874016 -0.15748031L57.874016 0.15748031L58.346458 0.15748031L58.346458 -0.15748031ZM59.763783 -0.15748031L59.29134 -0.15748031L59.29134 0.15748031L59.763783 0.15748031L59.763783 -0.15748031ZM61.181103 -0.15748031L60.708664 -0.15748031L60.708664 0.15748031L61.181103 0.15748031L61.181103 -0.15748031ZM62.598427 -0.15748031L62.125984 -0.15748031L62.125984 0.15748031L62.598427 0.15748031L62.598427 -0.15748031ZM64.015747 -0.15748031L63.543308 -0.15748031L63.543308 0.15748031L64.015747 0.15748031L64.015747 -0.15748031ZM65.433075 -0.15748031L64.960632 -0.15748031L64.960632 0.15748031L65.433075 0.15748031L65.433075 -0.15748031ZM66.850395 -0.15748031L66.377953 -0.15748031L66.377953 0.15748031L66.850395 0.15748031L66.850395 -0.15748031ZM68.267715 -0.15748031L67.79528 -0.15748031L67.79528 0.15748031L68.267715 0.15748031L68.267715 -0.15748031ZM69.685043 -0.15748031L69.212601 -0.15748031L69.212601 0.15748031L69.685043 0.15748031L69.685043 -0.15748031ZM71.102364 -0.15748031L70.629921 -0.15748031L70.629921 0.15748031L71.102364 0.15748031L71.102364 -0.15748031ZM72.519684 -0.15748031L72.047249 -0.15748031L72.047249 0.15748031L72.519684 0.15748031L72.519684 -0.15748031ZM73.937012 -0.15748031L73.464569 -0.15748031L73.464569 0.15748031L73.937012 0.15748031L73.937012 -0.15748031ZM75.354332 -0.15748031L74.881889 -0.15748031L74.881889 0.15748031L75.354332 0.15748031L75.354332 -0.15748031ZM76.771652 -0.15748031L76.299217 -0.15748031L76.299217 0.15748031L76.771652 0.15748031L76.771652 -0.15748031ZM78.18898 -0.15748031L77.716537 -0.15748031L77.716537 0.15748031L78.18898 0.15748031L78.18898 -0.15748031ZM79.6063 -0.15748031L79.133858 -0.15748031L79.133858 0.15748031L79.6063 0.15748031L79.6063 -0.15748031ZM81.023621 -0.15748031L80.551186 -0.15748031L80.551186 0.15748031L81.023621 0.15748031L81.023621 -0.15748031ZM82.440948 -0.15748031L81.968506 -0.15748031L81.968506 0.15748031L82.440948 0.15748031L82.440948 -0.15748031ZM83.858269 -0.15748031L83.385826 -0.15748031L83.385826 0.15748031L83.858269 0.15748031L83.858269 -0.15748031ZM85.275597 -0.15748031L84.803154 -0.15748031L84.803154 0.15748031L85.275597 0.15748031L85.275597 -0.15748031ZM86.692917 -0.15748031L86.220474 -0.15748031L86.220474 0.15748031L86.692917 0.15748031L86.692917 -0.15748031ZM88.110237 -0.15748031L87.637794 -0.15748031L87.637794 0.15748031L88.110237 0.15748031L88.110237 -0.15748031ZM89.527565 -0.15748031L89.055122 -0.15748031L89.055122 0.15748031L89.527565 0.15748031L89.527565 -0.15748031ZM90.944885 -0.15748031L90.472443 -0.15748031L90.472443 0.15748031L90.944885 0.15748031L90.944885 -0.15748031ZM91.889999 -0.15748031L91.889763 -0.15748031L91.889763 0.15748031L91.889999 0.15748031L91.889999 -0.15748031Z" fill-rule="evenodd" transform="translate(13.819, 61.417)" fill="#000000" opacity="0.2"></path><path d="M0.26800001 0.50999999C0.215 0.50999999 0.171 0.50800002 0.13600001 0.50300002C0.103 0.498 0.075999998 0.486 0.052999999 0.46900001C0.033 0.449 0.018999999 0.42199999 0.011 0.389C0.0040000002 0.35699999 0 0.31099999 0 0.25299999C0 0.19499999 0.0040000002 0.15000001 0.011 0.117C0.018999999 0.082000002 0.033 0.057 0.052999999 0.041999999C0.075999998 0.024 0.103 0.013 0.13600001 0.0080000004C0.171 0.003 0.215 0 0.26800001 0C0.32100001 0 0.36399999 0.003 0.39700001 0.0080000004C0.43200001 0.013 0.46000001 0.024 0.47999999 0.041999999C0.50300002 0.057 0.51800001 0.082000002 0.52499998 0.117C0.53299999 0.15000001 0.537 0.19499999 0.537 0.25299999C0.537 0.31099999 0.53299999 0.35699999 0.52499998 0.389C0.51800001 0.42199999 0.50300002 0.449 0.47999999 0.46900001C0.46000001 0.486 0.43200001 0.498 0.39700001 0.50300002C0.36399999 0.50800002 0.32100001 0.50999999 0.26800001 0.50999999ZM0.029999999 0.824L0.50300002 0.824L0.50300002 2.865L0.029999999 2.865L0.029999999 0.824ZM1.603 1.202L1.603 2.1849999C1.603 2.25 1.6059999 2.3039999 1.6109999 2.3469999C1.619 2.3900001 1.631 2.424 1.649 2.4489999C1.669 2.474 1.6950001 2.4920001 1.728 2.5020001C1.761 2.51 1.804 2.513 1.857 2.513C1.892 2.513 1.925 2.5120001 1.955 2.51C1.985 2.507 2.0139999 2.5020001 2.0420001 2.494L2.0420001 2.869C2.0020001 2.8740001 1.96 2.8770001 1.9170001 2.8800001C1.874 2.885 1.831 2.888 1.789 2.888C1.668 2.888 1.564 2.8789999 1.479 2.8610001C1.396 2.8410001 1.3279999 2.8069999 1.275 2.7590001C1.224 2.7090001 1.188 2.641 1.165 2.5550001C1.142 2.467 1.131 2.3559999 1.131 2.2219999L1.131 1.202L0.84799999 1.202L0.84799999 0.824L1.131 0.824L1.131 0.34L1.603 0.34L1.603 0.824L2.053 0.824L2.053 1.202L1.603 1.202ZM4.1459999 1.6670001C4.1459999 1.717 4.1430001 1.766 4.138 1.814C4.1350002 1.86 4.132 1.9 4.1269999 1.9349999L2.789 2.0220001C2.7939999 2.1930001 2.842 2.319 2.9319999 2.4000001C3.023 2.4809999 3.1700001 2.5209999 3.3740001 2.5209999C3.4349999 2.5209999 3.497 2.517 3.5599999 2.51C3.625 2.5020001 3.687 2.4920001 3.7449999 2.4790001C3.8050001 2.464 3.8610001 2.4489999 3.911 2.434C3.9619999 2.4159999 4.0040002 2.3989999 4.04 2.381L4.04 2.767C3.9790001 2.802 3.881 2.8329999 3.7449999 2.8610001C3.609 2.8889999 3.4579999 2.9030001 3.2909999 2.9030001C3.135 2.9030001 2.997 2.8859999 2.8759999 2.8540001C2.7550001 2.8210001 2.6530001 2.7639999 2.569 2.6830001C2.4860001 2.6029999 2.4219999 2.494 2.3770001 2.358C2.3340001 2.2219999 2.312 2.0510001 2.312 1.844C2.312 1.638 2.3340001 1.466 2.3770001 1.33C2.4219999 1.194 2.4860001 1.086 2.569 1.005C2.6530001 0.92500001 2.7550001 0.86799997 2.8759999 0.83499998C2.997 0.80299997 3.135 0.78600001 3.2909999 0.78600001C3.4679999 0.78600001 3.6110001 0.81 3.7219999 0.85799998C3.8329999 0.903 3.9200001 0.96600002 3.983 1.0470001C4.046 1.128 4.0890002 1.221 4.1110001 1.327C4.1339998 1.432 4.1459999 1.546 4.1459999 1.6670001ZM3.707 1.618C3.707 1.5549999 3.7019999 1.495 3.6919999 1.4400001C3.684 1.382 3.6659999 1.332 3.635 1.289C3.605 1.2460001 3.562 1.212 3.507 1.187C3.454 1.1619999 3.382 1.149 3.2909999 1.149C3.1960001 1.149 3.1159999 1.16 3.053 1.183C2.99 1.206 2.9400001 1.24 2.902 1.285C2.8640001 1.33 2.8369999 1.387 2.819 1.455C2.8010001 1.521 2.7909999 1.597 2.789 1.686L3.707 1.618ZM6.901 0.78600001C7.1350002 0.78600001 7.3060002 0.84500003 7.415 0.96399999C7.5229998 1.08 7.5770001 1.256 7.5770001 1.493L7.5770001 2.865L7.105 2.865L7.105 1.599C7.105 1.455 7.0809999 1.349 7.033 1.281C6.9850001 1.2130001 6.8969998 1.179 6.7690001 1.179C6.6550002 1.179 6.5609999 1.202 6.4850001 1.247C6.4120002 1.293 6.3600001 1.376 6.3299999 1.497L6.3299999 2.865L5.8579998 2.865L5.8579998 1.599C5.8579998 1.455 5.8340001 1.349 5.7859998 1.281C5.7399998 1.2130001 5.6550002 1.179 5.5289998 1.179C5.415 1.179 5.323 1.201 5.2529998 1.243C5.1820002 1.286 5.131 1.367 5.098 1.485L5.098 2.865L4.6259999 2.865L4.6259999 0.824L5.098 0.824L5.098 1.066C5.1560001 0.96499997 5.2329998 0.89300001 5.329 0.85000002C5.4239998 0.80800003 5.54 0.78600001 5.6760001 0.78600001C5.835 0.78600001 5.961 0.81300002 6.0539999 0.866C6.1469998 0.91600001 6.217 0.99000001 6.2620001 1.089C6.3200002 0.97799999 6.4060001 0.89999998 6.5190001 0.85399997C6.632 0.80900002 6.7600002 0.78600001 6.901 0.78600001ZM8.6680002 0.67299998L8.6680002 1.364L9.651 1.364L9.651 1.795L8.6680002 1.795L8.6680002 2.865L8.1730003 2.865L8.1730003 0.242L9.7259998 0.242L9.7259998 0.67299998L8.6680002 0.67299998Z" transform="translate(96.166, 65.639)" fill="#000000" opacity="0.3"></path><path d="M0 4.8429999C0 7.5170002 2.168 9.6850004 4.8429999 9.6850004C7.5170002 9.6850004 9.6850004 7.5170002 9.6850004 4.8429999C9.6850004 2.168 7.5170002 0 4.8429999 0C2.168 0 0 2.168 0 4.8429999Z" transform="translate(72.756, 29.291)" fill="#a6afc4" opacity="0.6"></path><path d="M0 9.5670004C0 14.851 4.283 19.134001 9.5670004 19.134001C14.851 19.134001 19.134001 14.851 19.134001 9.5670004C19.134001 4.283 14.851 0 9.5670004 0C4.283 0 0 4.283 0 9.5670004Z" transform="translate(43.228, 36.614)" fill="#6d7a97" opacity="0.6"></path><path d="M0 4.0159998C0 6.2340002 1.798 8.0310001 4.0159998 8.0310001C6.2340002 8.0310001 8.0310001 6.2340002 8.0310001 4.0159998C8.0310001 1.798 6.2340002 0 4.0159998 0C1.798 0 0 1.798 0 4.0159998Z" transform="translate(59.055, 47.717)" fill="#dde0e9" opacity="0.6"></path><path d="M0 2.244C0 3.483 1.005 4.4879999 2.244 4.4879999C3.483 4.4879999 4.4879999 3.483 4.4879999 2.244C4.4879999 1.005 3.483 0 2.244 0C1.005 0 0 1.005 0 2.244Z" transform="translate(90.236, 27.638)" fill="#a6afc4" opacity="0.6"></path><path d="M0 6.2600002C0 9.717 2.803 12.52 6.2600002 12.52C9.717 12.52 12.52 9.717 12.52 6.2600002C12.52 2.803 9.717 0 6.2600002 0C2.803 0 0 2.803 0 6.2600002Z" transform="translate(63.307, 15.118)" fill="#6d7a97" opacity="0.6"></path><path d="M0 2.598C0 4.033 1.163 5.197 2.598 5.197C4.033 5.197 5.197 4.033 5.197 2.598C5.197 1.163 4.033 0 2.598 0C1.163 0 0 1.163 0 2.598Z" transform="translate(79.843, 43.465)" fill="#6d7a97" opacity="0.6"></path><path d="M0 4.3699999C0 6.7839999 1.957 8.7399998 4.3699999 8.7399998C6.7839999 8.7399998 8.7399998 6.7839999 8.7399998 4.3699999C8.7399998 1.957 6.7839999 0 4.3699999 0C1.957 0 0 1.957 0 4.3699999Z" transform="translate(39.449, 20.315)" fill="#dde0e9" opacity="0.6"></path><path d="M0 1.654C0 2.5669999 0.74000001 3.3069999 1.654 3.3069999C2.5669999 3.3069999 3.3069999 2.5669999 3.3069999 1.654C3.3069999 0.74000001 2.5669999 0 1.654 0C0.74000001 0 0 0.74000001 0 1.654Z" transform="translate(34.252, 46.772)" fill="#a6afc4" opacity="0.6"></path><path d="M0 1.654C0 2.5669999 0.74000001 3.3069999 1.654 3.3069999C2.5669999 3.3069999 3.3069999 2.5669999 3.3069999 1.654C3.3069999 0.74000001 2.5669999 0 1.654 0C0.74000001 0 0 0.74000001 0 1.654Z" transform="translate(25.748, 28.819)" fill="#6d7a97" opacity="0.6"></path></svg>