<svg xmlns="http://www.w3.org/2000/svg" version="1.1" xmlns:xlink="http://www.w3.org/1999/xlink" fill="none" width="18" height="18" viewBox="0 0 18 18"><g fill="#8c8d91"><path d="M16.466999 7.4699998C16.444 7.2179999 16.41 6.9679999 16.364 6.7189999C16.259001 6.1529999 16.094999 5.5970001 15.873 5.0619998C15.459 4.0609999 14.851 3.151 14.085 2.385C13.319 1.619 12.409 1.011 11.408 0.597C10.873 0.375 10.317 0.211 9.7510004 0.106C9.5019999 0.059999999 9.2519999 0.026000001 9 0.003C8.5869999 -0.035 8.2510004 0.30500001 8.2510004 0.71899998L8.2510004 4.9580002C8.2510004 5.0960002 8.3629999 5.2069998 8.5 5.2179999C8.8100004 5.244 9.1149998 5.3179998 9.4029999 5.4369998C9.7679996 5.5879998 10.1 5.8099999 10.38 6.0900002C10.66 6.3699999 10.882 6.7020001 11.033 7.0669999C11.152 7.355 11.226 7.6599998 11.252 7.9699998C11.263 8.1070004 11.374 8.2189999 11.512 8.2189999L15.751 8.2189999C16.165001 8.2189999 16.504999 7.8829999 16.466999 7.4699998ZM14.487 5.6360002C14.633 5.9879999 14.748 6.3499999 14.832 6.7189999L12.505 6.7189999C12.479 6.6430001 12.45 6.5679998 12.419 6.493C12.192 5.9460001 11.86 5.448 11.441 5.0289998C11.022 4.6100001 10.524 4.2779999 9.9770002 4.0510001C9.9020004 4.02 9.8269997 3.9909999 9.7510004 3.9649999L9.7510004 1.638C10.12 1.722 10.482 1.837 10.834 1.983C11.653 2.322 12.397 2.819 13.024 3.4460001C13.651 4.073 14.148 4.8169999 14.487 5.6360002Z" transform="translate(0.75, 0.781)"></path><path d="M6.4559999 0.164C6.6090002 0.131 6.75 0.249 6.75 0.405L6.75 1.437C6.75 1.553 6.6690001 1.654 6.5560002 1.683C3.648 2.4349999 1.5 5.0760002 1.5 8.2189999C1.5 11.948 4.5219998 14.97 8.2510004 14.97C11.394 14.97 14.035 12.822 14.787 9.9139996C14.816 9.8009996 14.917 9.7200003 15.033 9.7200003L16.065001 9.7200003C16.221001 9.7200003 16.339001 9.8610001 16.306 10.014C15.486 13.708 12.191 16.469999 8.2510004 16.469999C3.694 16.469999 0 12.776 0 8.2189999C0 4.2789998 2.7620001 0.98400003 6.4559999 0.164Z" transform="translate(0.75, 0.781)"></path><path d="M6.4219999 4.1059999C6.5799999 4.0359998 6.75 4.1560001 6.75 4.329L6.75 5.4759998C6.75 5.566 6.7020001 5.6469998 6.6269999 5.6960001C5.7989998 6.23 5.25 7.1599998 5.25 8.2189999C5.25 9.8760004 6.5939999 11.22 8.2510004 11.22C9.3100004 11.22 10.24 10.671 10.774 9.8430004C10.823 9.7679996 10.904 9.7200003 10.994 9.7200003L12.141 9.7200003C12.314 9.7200003 12.434 9.8900003 12.364 10.048C11.663 11.622 10.085 12.72 8.2510004 12.72C5.7649999 12.72 3.75 10.705 3.75 8.2189999C3.75 6.3850002 4.848 4.8070002 6.4219999 4.1059999Z" transform="translate(0.75, 0.781)"></path></g></svg>