<svg xmlns="http://www.w3.org/2000/svg" version="1.1" xmlns:xlink="http://www.w3.org/1999/xlink" fill="none" width="18" height="18" viewBox="0 0 18 18"><g fill="#8c8d91"><path d="M1.5 0.25C1.5 0.112 1.388 0 1.25 0L0.25 0C0.112 0 0 0.112 0 0.25L0 13.5C0 14.328 0.67199999 15 1.5 15L14.75 15C14.888 15 15 14.888 15 14.75L15 13.75C15 13.612 14.888 13.5 14.75 13.5L1.5 13.5L1.5 0.25Z" transform="translate(1.5, 1.5)"></path><path d="M10.5 1C10.5 0.86199999 10.388 0.75 10.25 0.75L9.25 0.75C9.1120005 0.75 9 0.86199999 9 1L9 11.75C9 11.888 9.1120005 12 9.25 12L10.25 12C10.388 12 10.5 11.888 10.5 11.75L10.5 1Z" transform="translate(1.5, 1.5)"></path><path d="M7.2509999 6C7.3889999 6 7.5009999 6.112 7.5009999 6.25L7.5009999 11.75C7.5009999 11.888 7.3889999 12 7.2509999 12L6.2509999 12C6.1129999 12 6.0009999 11.888 6.0009999 11.75L6.0009999 6.25C6.0009999 6.112 6.1129999 6 6.2509999 6L7.2509999 6Z" transform="translate(1.5, 1.5)"></path><path d="M4.2490001 9C4.3870001 9 4.4990001 9.1120005 4.4990001 9.25L4.4990001 11.75C4.4990001 11.888 4.3870001 12 4.2490001 12L3.2490001 12C3.1110001 12 2.9990001 11.888 2.9990001 11.75L2.9990001 9.25C2.9990001 9.1120005 3.1110001 9 3.2490001 9L4.2490001 9Z" transform="translate(1.5, 1.5)"></path><path d="M13.25 3.75C13.388 3.75 13.5 3.862 13.5 4L13.5 11.75C13.5 11.888 13.388 12 13.25 12L12.25 12C12.112 12 12 11.888 12 11.75L12 4C12 3.862 12.112 3.75 12.25 3.75L13.25 3.75Z" transform="translate(1.5, 1.5)"></path></g></svg>