<svg xmlns="http://www.w3.org/2000/svg" version="1.1" xmlns:xlink="http://www.w3.org/1999/xlink" fill="none" width="18" height="18" viewBox="0 0 18 18"><path d="M1.502 0C0.41600001 0 -0.31 1.117 0.131 2.109L4.7979999 12.609C5.039 13.151 5.5770001 13.5 6.1690001 13.5L10.221 13.5C10.813 13.5 11.351 13.151 11.592 12.609L16.259001 2.109C16.700001 1.117 15.974 0 14.888 0L1.502 0ZM14.888 1.5L13.777 4L2.6129999 4L1.502 1.5L14.888 1.5ZM4.3909998 8L3.28 5.5L13.11 5.5L11.999 8L4.3909998 8ZM5.0580001 9.5L11.332 9.5L10.221 12L6.1690001 12L5.0580001 9.5Z" transform="translate(0.807, 2.249)" fill="#8c8d91"></path></svg>