<svg xmlns="http://www.w3.org/2000/svg" version="1.1" xmlns:xlink="http://www.w3.org/1999/xlink" fill="none" width="18" height="18" viewBox="0 0 18 18"><path d="M9.3579998 2.043L14.977 6.125L13.306 6.684L9.3579998 3.8150001L9.3579998 2.043ZM7.8590002 3.8169999L3.9130001 6.684L2.243 6.1240001L7.8590002 2.046L7.8590002 3.8169999ZM5.6599998 7.2690001L7.8590002 5.671L7.8590002 8.0059996L5.6599998 7.2690001ZM3.2850001 8.0550003L4.0760002 13.946L3.9300001 14.143L1.789 7.5539999L3.2850001 8.0550003ZM5.3559999 12.205L4.8699999 8.5860004L7.395 9.4320002L5.3559999 12.205ZM5.4850001 14.562L10.42 12.772L12.075 15.02L5.1469998 15.02L5.4850001 14.562ZM9.4919996 11.513L7.0840001 12.386L8.6090002 10.313L9.4919996 11.513ZM11.552 11.781L13.513 8.1960001L15.431 7.5539999L13.29 14.141L11.552 11.781ZM11.42 8.8970003L10.572 10.449L9.823 9.4320002L11.42 8.8970003ZM11.56 7.2690001L9.3579998 8.0059996L9.3579998 5.6690001L11.56 7.2690001ZM9.4910002 0.28600001C8.9659996 -0.094999999 8.2539997 -0.094999999 7.7290001 0.28600001L0.61900002 5.4510002C0.093000002 5.8330002 -0.127 6.5100002 0.074000001 7.1279998L2.789 15.484C2.99 16.101999 3.566 16.52 4.2150002 16.52L13.005 16.52C13.654 16.52 14.23 16.101999 14.431 15.484L17.146 7.1279998C17.347 6.5100002 17.127001 5.8330002 16.601 5.4510002L9.4910002 0.28600001Z" transform="translate(0.389, 0.729)" fill="#8c8d91"></path></svg>