<svg xmlns="http://www.w3.org/2000/svg" version="1.1" xmlns:xlink="http://www.w3.org/1999/xlink" fill="none" width="18" height="18" viewBox="0 0 18 18"><g fill="#1c1d1f"><path d="M1.5 0.25C1.5 0.112 1.388 0 1.25 0L0.25 0C0.112 0 0 0.112 0 0.25L0 13.5C0 14.328 0.67199999 15 1.5 15L14.75 15C14.888 15 15 14.888 15 14.75L15 13.75C15 13.612 14.888 13.5 14.75 13.5L1.5 13.5L1.5 0.25Z" transform="translate(1.5, 1.5)"></path><path d="M14.072 5.415C14.17 5.3169999 14.17 5.1589999 14.072 5.0609999L13.365 4.3540001C13.268 4.256 13.109 4.256 13.012 4.3540001L9.75 7.6149998L7.2670002 5.1290002C7.1690001 5.0300002 7.0089998 5.0310001 6.9120002 5.1300001L2.859 9.2530003C2.7620001 9.3520002 2.7639999 9.5100002 2.862 9.6070004L3.575 10.308C3.674 10.405 3.832 10.403 3.9289999 10.305L7.0970001 7.0809999L9.573 9.5600004C9.6700001 9.658 9.8290005 9.658 9.927 9.5600004L14.072 5.415Z" transform="translate(1.5, 1.5)"></path></g></svg>