<svg xmlns="http://www.w3.org/2000/svg" version="1.1" xmlns:xlink="http://www.w3.org/1999/xlink" fill="none" width="18" height="18" viewBox="0 0 18 18"><g fill="#8c8d91"><path d="M1.5 0.25C1.5 0.112 1.388 0 1.25 0L0.25 0C0.112 0 0 0.112 0 0.25L0 13.5C0 14.328 0.67199999 15 1.5 15L14.75 15C14.888 15 15 14.888 15 14.75L15 13.75C15 13.612 14.888 13.5 14.75 13.5L1.5 13.5L1.5 0.25Z" transform="translate(1.5, 1.5)"></path><path d="M10.5 6C10.5 7.243 9.493 8.25 8.25 8.25C7.007 8.25 6 7.243 6 6C6 4.757 7.007 3.75 8.25 3.75C9.493 3.75 10.5 4.757 10.5 6Z" transform="translate(1.5, 1.5)"></path><path d="M6.375 10.313C6.375 11.244 5.619 12 4.6880002 12C3.756 12 3 11.244 3 10.313C3 9.3809996 3.756 8.625 4.6880002 8.625C5.619 8.625 6.375 9.3809996 6.375 10.313Z" transform="translate(1.5, 1.5)"></path><path d="M11.063 9.375C10.545 9.375 10.125 9.7950001 10.125 10.313C10.125 10.83 10.545 11.25 11.063 11.25C11.58 11.25 12 10.83 12 10.313C12 9.7950001 11.58 9.375 11.063 9.375Z" transform="translate(1.5, 1.5)"></path><path d="M12 6.375C12 5.7540002 12.504 5.25 13.125 5.25C13.746 5.25 14.25 5.7540002 14.25 6.375C14.25 6.9959998 13.746 7.5 13.125 7.5C12.504 7.5 12 6.9959998 12 6.375Z" transform="translate(1.5, 1.5)"></path></g></svg>