<svg xmlns="http://www.w3.org/2000/svg" version="1.1" xmlns:xlink="http://www.w3.org/1999/xlink" fill="none" width="14" height="14" viewBox="0 0 14 14"><g fill="#8c8d91"><path d="M3.2019999 0.083999999C3.2620001 -0.0040000002 3.3840001 -0.027000001 3.4719999 0.034000002L4.1129999 0.47499999C4.2020001 0.53600001 4.224 0.65700001 4.1630001 0.745L1.2920001 4.9200001L4.1630001 9.0950003C4.224 9.1829996 4.2020001 9.3039999 4.1129999 9.3649998L3.4719999 9.8059998C3.3840001 9.8669996 3.2620001 9.8439999 3.2019999 9.7559996L0.103 5.25C-0.034000002 5.0510001 -0.034000002 4.789 0.103 4.5900002L3.2019999 0.083999999Z" transform="translate(0.291, 2.079)"></path><path d="M10.218 0.083999999C10.158 -0.0040000002 10.036 -0.027000001 9.948 0.034000002L9.3070002 0.47499999C9.2180004 0.53600001 9.1960001 0.65700001 9.257 0.745L12.128 4.9200001L9.257 9.0950003C9.1960001 9.1829996 9.2180004 9.3039999 9.3070002 9.3649998L9.948 9.8059998C10.036 9.8669996 10.158 9.8439999 10.218 9.7559996L13.317 5.25C13.454 5.0510001 13.454 4.789 13.317 4.5900002L10.218 0.083999999Z" transform="translate(0.291, 2.079)"></path><path d="M5.0240002 9.2550001C4.9980001 9.3599997 5.0609999 9.4650002 5.1659999 9.4910002L5.9200001 9.6800003C6.0250001 9.7060003 6.1300001 9.6429996 6.1560001 9.5380001L8.3959999 0.58499998C8.4219999 0.47999999 8.3590002 0.375 8.2539997 0.34900001L7.5 0.16C7.395 0.134 7.29 0.197 7.2639999 0.30199999L5.0240002 9.2550001Z" transform="translate(0.291, 2.079)"></path></g></svg>