<svg xmlns="http://www.w3.org/2000/svg" version="1.1" xmlns:xlink="http://www.w3.org/1999/xlink" fill="none" width="120" height="75.591" viewBox="0 0 120 75.591"><defs><mask id="mask_14:47"><path d="M0 0L120 0L120 75.591003L0 75.591003L0 0Z" fill="white"></path></mask></defs><g mask="url(#mask_14:47)"><path d="M0 0L120 0L120 75.591003L0 75.591003L0 0Z" fill="#ffffff"></path><path d="M10.431 0.15748031L10.742889 0.15748031L10.742889 -0.15748031L10.431 -0.15748031L10.431 0.15748031ZM11.687771 0.15748031L12.16021 0.15748031L12.16021 -0.15748031L11.687771 -0.15748031L11.687771 0.15748031ZM13.105095 0.15748031L13.577534 0.15748031L13.577534 -0.15748031L13.105095 -0.15748031L13.105095 0.15748031ZM14.522415 0.15748031L14.994858 0.15748031L14.994858 -0.15748031L14.522415 -0.15748031L14.522415 0.15748031ZM15.939739 0.15748031L16.412182 0.15748031L16.412182 -0.15748031L15.939739 -0.15748031L15.939739 0.15748031ZM17.357063 0.15748031L17.829502 0.15748031L17.829502 -0.15748031L17.357063 -0.15748031L17.357063 0.15748031ZM18.774384 0.15748031L19.246826 0.15748031L19.246826 -0.15748031L18.774384 -0.15748031L18.774384 0.15748031ZM19.732519 0.30170822L19.732519 0.77415085L20.04748 0.77415085L20.04748 0.30170822L19.732519 0.30170822ZM19.732519 1.7190313L19.732519 2.1914711L20.04748 2.1914711L20.04748 1.7190313L19.732519 1.7190313ZM19.732519 3.1363525L19.732519 3.6087942L20.04748 3.6087942L20.04748 3.1363525L19.732519 3.1363525ZM19.732519 4.5536766L19.732519 5.0261164L20.04748 5.0261164L20.04748 4.5536766L19.732519 4.5536766ZM19.732519 5.9710007L19.732519 6.4434404L20.04748 6.4434404L20.04748 5.9710007L19.732519 5.9710007ZM19.732519 7.3883219L19.732519 7.8607626L20.04748 7.8607626L20.04748 7.3883219L19.732519 7.3883219ZM19.732519 8.8056431L19.732519 9.2780848L20.04748 9.2780848L20.04748 8.8056431L19.732519 8.8056431ZM19.732519 10.222967L19.732519 10.695409L20.04748 10.695409L20.04748 10.222967L19.732519 10.222967ZM19.732519 11.64029L19.732519 12.11273L20.04748 12.11273L20.04748 11.64029L19.732519 11.64029ZM19.732519 13.057611L19.732519 13.530054L20.04748 13.530054L20.04748 13.057611L19.732519 13.057611ZM19.732519 14.474936L19.732519 14.947376L20.04748 14.947376L20.04748 14.474936L19.732519 14.474936ZM19.732519 15.923519L19.6063 15.923519L19.6063 16.23848L20.04748 16.23848L20.04748 15.892258L19.732519 15.892258L19.732519 15.923519ZM0.23622046 15.923519L0 15.923519L0 16.23848L0.23622046 16.23848L0.23622046 15.923519ZM1.6535435 15.923519L1.1811024 15.923519L1.1811024 16.23848L1.6535435 16.23848L1.6535435 15.923519ZM3.0708661 15.923519L2.5984254 15.923519L2.5984254 16.23848L3.0708661 16.23848L3.0708661 15.923519ZM4.4881892 15.923519L4.015748 15.923519L4.015748 16.23848L4.4881892 16.23848L4.4881892 15.923519ZM5.9055119 15.923519L5.4330711 15.923519L5.4330711 16.23848L5.9055119 16.23848L5.9055119 15.923519ZM7.322835 15.923519L6.8503938 15.923519L6.8503938 16.23848L7.322835 16.23848L7.322835 15.923519ZM8.7401581 15.923519L8.2677164 15.923519L8.2677164 16.23848L8.7401581 16.23848L8.7401581 15.923519ZM10.15748 15.923519L9.6850395 15.923519L9.6850395 16.23848L10.15748 16.23848L10.15748 15.923519ZM11.574804 15.923519L11.102363 15.923519L11.102363 16.23848L11.574804 16.23848L11.574804 15.923519ZM12.992126 15.923519L12.519686 15.923519L12.519686 16.23848L12.992126 16.23848L12.992126 15.923519ZM14.40945 15.923519L13.937008 15.923519L13.937008 16.23848L14.40945 16.23848L14.40945 15.923519ZM15.826772 15.923519L15.354331 15.923519L15.354331 16.23848L15.826772 16.23848L15.826772 15.923519ZM17.244095 15.923519L16.771654 15.923519L16.771654 16.23848L17.244095 16.23848L17.244095 15.923519ZM18.661417 15.923519L18.188976 15.923519L18.188976 16.23848L18.661417 16.23848L18.661417 15.923519Z" fill-rule="evenodd" transform="translate(85.819, 23.856)" fill="#000000" opacity="0.2"></path><path d="M0.057842255 0.15748031L0.53028393 0.15748031L0.53028393 -0.15748031L0.057842255 -0.15748031L0.057842255 0.15748031ZM1.4751654 0.15748031L1.9476066 0.15748031L1.9476066 -0.15748031L1.4751654 -0.15748031L1.4751654 0.15748031ZM2.8924885 0.15748031L3.3649292 0.15748031L3.3649292 -0.15748031L2.8924885 -0.15748031L2.8924885 0.15748031ZM4.3098111 0.15748031L4.7822523 0.15748031L4.7822523 -0.15748031L4.3098111 -0.15748031L4.3098111 0.15748031ZM5.7271342 0.15748031L6.1995749 0.15748031L6.1995749 -0.15748031L5.7271342 -0.15748031L5.7271342 0.15748031ZM7.1444569 0.15748031L7.6168981 0.15748031L7.6168981 -0.15748031L7.1444569 -0.15748031L7.1444569 0.15748031ZM8.56178 0.15748031L8.7980003 0.15748031L8.7980003 -0.15748031L8.56178 -0.15748031L8.56178 0.15748031ZM0.15748031 1.3594798L0.15748031 0.88703912L-0.15748031 0.88703912L-0.15748031 1.3594798L0.15748031 1.3594798ZM0.15748031 2.7768028L0.15748031 2.3043621L-0.15748031 2.3043621L-0.15748031 2.7768028L0.15748031 2.7768028ZM0.15748031 4.1941257L0.15748031 3.7216852L-0.15748031 3.7216852L-0.15748031 4.1941257L0.15748031 4.1941257ZM0.15748031 5.6114488L0.15748031 5.1390071L-0.15748031 5.1390071L-0.15748031 5.6114488L0.15748031 5.6114488ZM0.15748031 7.0287709L0.15748031 6.5563302L-0.15748031 6.5563302L-0.15748031 7.0287709L0.15748031 7.0287709ZM0.15748031 8.4460936L0.15748031 7.9736533L-0.15748031 7.9736533L-0.15748031 8.4460936L0.15748031 8.4460936ZM0.15748031 9.8634157L0.15748031 9.390975L-0.15748031 9.390975L-0.15748031 9.8634157L0.15748031 9.8634157ZM0.15748031 11.28074L0.15748031 10.808299L-0.15748031 10.808299L-0.15748031 11.28074L0.15748031 11.28074ZM0.15748031 12.698062L0.15748031 12.225621L-0.15748031 12.225621L-0.15748031 12.698062L0.15748031 12.698062ZM0.15748031 14.115386L0.15748031 13.642943L-0.15748031 13.642943L-0.15748031 14.115386L0.15748031 14.115386ZM0.15748031 15.532708L0.15748031 15.060267L-0.15748031 15.060267L-0.15748031 15.532708L0.15748031 15.532708ZM91.732521 16.403999L91.732521 16.726646L92.047478 16.726646L92.047478 16.403999L91.732521 16.403999ZM0.15748031 16.950029L0.15748031 16.477589L-0.15748031 16.477589L-0.15748031 16.950029L0.15748031 16.950029ZM91.732521 17.671532L91.732521 18.143974L92.047478 18.143974L92.047478 17.671532L91.732521 17.671532ZM0.15748031 18.367353L0.15748031 17.894913L-0.15748031 17.894913L-0.15748031 18.367353L0.15748031 18.367353ZM91.732521 19.08886L91.732521 19.561287L92.047478 19.561287L92.047478 19.08886L91.732521 19.08886ZM0.15748031 19.784676L0.15748031 19.312235L-0.15748031 19.312235L-0.15748031 19.784676L0.15748031 19.784676ZM91.732521 20.506172L91.732521 20.978615L92.047478 20.978615L92.047478 20.506172L91.732521 20.506172ZM0.15748031 21.201998L0.15748031 20.729557L-0.15748031 20.729557L-0.15748031 21.201998L0.15748031 21.201998ZM91.732521 21.9235L91.732521 22.395943L92.047478 22.395943L92.047478 21.9235L91.732521 21.9235ZM0.15748031 22.619322L0.15748031 22.146881L-0.15748031 22.146881L-0.15748031 22.619322L0.15748031 22.619322ZM91.732521 23.340828L91.732521 23.813255L92.047478 23.813255L92.047478 23.340828L91.732521 23.340828ZM0.15748031 24.036646L0.15748031 23.564203L-0.15748031 23.564203L-0.15748031 24.036646L0.15748031 24.036646ZM91.732521 24.758141L91.732521 25.230583L92.047478 25.230583L92.047478 24.758141L91.732521 24.758141ZM0.15748031 25.453966L0.15748031 24.981527L-0.15748031 24.981527L-0.15748031 25.453966L0.15748031 25.453966ZM91.732521 26.175468L91.732521 26.647913L92.047478 26.647913L92.047478 26.175468L91.732521 26.175468ZM0.15748031 26.87129L0.15748031 26.398848L-0.15748031 26.398848L-0.15748031 26.87129L0.15748031 26.87129ZM91.732521 27.592798L91.732521 28.065226L92.047478 28.065226L92.047478 27.592798L91.732521 27.592798ZM0.15748031 28.288614L0.15748031 27.816172L-0.15748031 27.816172L-0.15748031 28.288614L0.15748031 28.288614ZM91.732521 29.010111L91.732521 29.482553L92.047478 29.482553L92.047478 29.010111L91.732521 29.010111ZM0.15748031 29.705935L0.15748031 29.233496L-0.15748031 29.233496L-0.15748031 29.705935L0.15748031 29.705935ZM91.732521 30.427439L91.732521 30.899881L92.047478 30.899881L92.047478 30.427439L91.732521 30.427439ZM0.15748031 31.123259L0.15748031 30.650816L-0.15748031 30.650816L-0.15748031 31.123259L0.15748031 31.123259ZM0.93858325 31.444519L0.46614069 31.444519L0.46614069 31.75948L0.93858325 31.75948L0.93858325 31.444519ZM2.3559034 31.444519L1.8834647 31.444519L1.8834647 31.75948L2.3559034 31.75948L2.3559034 31.444519ZM3.7732272 31.444519L3.3007886 31.444519L3.3007886 31.75948L3.7732272 31.75948L3.7732272 31.444519ZM5.1905513 31.444519L4.7181087 31.444519L4.7181087 31.75948L5.1905513 31.75948L5.1905513 31.444519ZM6.6078715 31.444519L6.1354322 31.444519L6.1354322 31.75948L6.6078715 31.75948L6.6078715 31.444519ZM8.0251951 31.444519L7.5527568 31.444519L7.5527568 31.75948L8.0251951 31.75948L8.0251951 31.444519ZM9.4425192 31.444519L8.9700766 31.444519L8.9700766 31.75948L9.4425192 31.75948L9.4425192 31.444519ZM10.859843 31.444519L10.387401 31.444519L10.387401 31.75948L10.859843 31.75948L10.859843 31.444519ZM12.277164 31.444519L11.804725 31.444519L11.804725 31.75948L12.277164 31.75948L12.277164 31.444519ZM13.694488 31.444519L13.222045 31.444519L13.222045 31.75948L13.694488 31.75948L13.694488 31.444519ZM15.111812 31.444519L14.639368 31.444519L14.639368 31.75948L15.111812 31.75948L15.111812 31.444519ZM16.529131 31.444519L16.056692 31.444519L16.056692 31.75948L16.529131 31.75948L16.529131 31.444519ZM17.946455 31.444519L17.474012 31.444519L17.474012 31.75948L17.946455 31.75948L17.946455 31.444519ZM19.363779 31.444519L18.891336 31.444519L18.891336 31.75948L19.363779 31.75948L19.363779 31.444519ZM20.781099 31.444519L20.308661 31.444519L20.308661 31.75948L20.781099 31.75948L20.781099 31.444519ZM22.198423 31.444519L21.725981 31.444519L21.725981 31.75948L22.198423 31.75948L22.198423 31.444519ZM23.615744 31.444519L23.143305 31.444519L23.143305 31.75948L23.615744 31.75948L23.615744 31.444519ZM25.033072 31.444519L24.560629 31.444519L24.560629 31.75948L25.033072 31.75948L25.033072 31.444519ZM26.45039 31.444519L25.977949 31.444519L25.977949 31.75948L26.45039 31.75948L26.45039 31.444519ZM27.867712 31.444519L27.395275 31.444519L27.395275 31.75948L27.867712 31.75948L27.867712 31.444519ZM29.28504 31.444519L28.812597 31.444519L28.812597 31.75948L29.28504 31.75948L29.28504 31.444519ZM30.702358 31.444519L30.229918 31.444519L30.229918 31.75948L30.702358 31.75948L30.702358 31.444519ZM32.119678 31.444519L31.647243 31.444519L31.647243 31.75948L32.119678 31.75948L32.119678 31.444519ZM33.537006 31.444519L33.064564 31.444519L33.064564 31.75948L33.537006 31.75948L33.537006 31.444519ZM34.95433 31.444519L34.481884 31.444519L34.481884 31.75948L34.95433 31.75948L34.95433 31.444519ZM36.371647 31.444519L35.899216 31.444519L35.899216 31.75948L36.371647 31.75948L36.371647 31.444519ZM37.788975 31.444519L37.316532 31.444519L37.316532 31.75948L37.788975 31.75948L37.788975 31.444519ZM39.206295 31.444519L38.733852 31.444519L38.733852 31.75948L39.206295 31.75948L39.206295 31.444519ZM40.623615 31.444519L40.15118 31.444519L40.15118 31.75948L40.623615 31.75948L40.623615 31.444519ZM42.040943 31.444519L41.568501 31.444519L41.568501 31.75948L42.040943 31.75948L42.040943 31.444519ZM43.458263 31.444519L42.985821 31.444519L42.985821 31.75948L43.458263 31.75948L43.458263 31.444519ZM44.875591 31.444519L44.403149 31.444519L44.403149 31.75948L44.875591 31.75948L44.875591 31.444519ZM46.292915 31.444519L45.820469 31.444519L45.820469 31.75948L46.292915 31.75948L46.292915 31.444519ZM47.710232 31.444519L47.237789 31.444519L47.237789 31.75948L47.710232 31.75948L47.710232 31.444519ZM49.12756 31.444519L48.655113 31.444519L48.655113 31.75948L49.12756 31.75948L49.12756 31.444519ZM50.54488 31.444519L50.072437 31.444519L50.072437 31.75948L50.54488 31.75948L50.54488 31.444519ZM51.962196 31.444519L51.489758 31.444519L51.489758 31.75948L51.962196 31.75948L51.962196 31.444519ZM53.379528 31.444519L52.907085 31.444519L52.907085 31.75948L53.379528 31.75948L53.379528 31.444519ZM54.796848 31.444519L54.324402 31.444519L54.324402 31.75948L54.796848 31.75948L54.796848 31.444519ZM56.214169 31.444519L55.741726 31.444519L55.741726 31.75948L56.214169 31.75948L56.214169 31.444519ZM57.631496 31.444519L57.15905 31.444519L57.15905 31.75948L57.631496 31.75948L57.631496 31.444519ZM59.048817 31.444519L58.576374 31.444519L58.576374 31.75948L59.048817 31.75948L59.048817 31.444519ZM60.466137 31.444519L59.993702 31.444519L59.993702 31.75948L60.466137 31.75948L60.466137 31.444519ZM61.883461 31.444519L61.411022 31.444519L61.411022 31.75948L61.883461 31.75948L61.883461 31.444519ZM63.300785 31.444519L62.828339 31.444519L62.828339 31.75948L63.300785 31.75948L63.300785 31.444519ZM64.718102 31.444519L64.245667 31.444519L64.245667 31.75948L64.718102 31.75948L64.718102 31.444519ZM66.135429 31.444519L65.662994 31.444519L65.662994 31.75948L66.135429 31.75948L66.135429 31.444519ZM67.55275 31.444519L67.080307 31.444519L67.080307 31.75948L67.55275 31.75948L67.55275 31.444519ZM68.970078 31.444519L68.497635 31.444519L68.497635 31.75948L68.970078 31.75948L68.970078 31.444519ZM70.387398 31.444519L69.914955 31.444519L69.914955 31.75948L70.387398 31.75948L70.387398 31.444519ZM71.804718 31.444519L71.332283 31.444519L71.332283 31.75948L71.804718 31.75948L71.804718 31.444519ZM73.222038 31.444519L72.749603 31.444519L72.749603 31.75948L73.222038 31.75948L73.222038 31.444519ZM74.639366 31.444519L74.166924 31.444519L74.166924 31.75948L74.639366 31.75948L74.639366 31.444519ZM76.056686 31.444519L75.584244 31.444519L75.584244 31.75948L76.056686 31.75948L76.056686 31.444519ZM77.474007 31.444519L77.001572 31.444519L77.001572 31.75948L77.474007 31.75948L77.474007 31.444519ZM78.891335 31.444519L78.418892 31.444519L78.418892 31.75948L78.891335 31.75948L78.891335 31.444519ZM80.308655 31.444519L79.836212 31.444519L79.836212 31.75948L80.308655 31.75948L80.308655 31.444519ZM81.725975 31.444519L81.25354 31.444519L81.25354 31.75948L81.725975 31.75948L81.725975 31.444519ZM83.143303 31.444519L82.67086 31.444519L82.67086 31.75948L83.143303 31.75948L83.143303 31.444519ZM84.560623 31.444519L84.088181 31.444519L84.088181 31.75948L84.560623 31.75948L84.560623 31.444519ZM85.977943 31.444519L85.505508 31.444519L85.505508 31.75948L85.977943 31.75948L85.977943 31.444519ZM87.395271 31.444519L86.922829 31.444519L86.922829 31.75948L87.395271 31.75948L87.395271 31.444519ZM88.812592 31.444519L88.340149 31.444519L88.340149 31.75948L88.812592 31.75948L88.812592 31.444519ZM90.229919 31.444519L89.757477 31.444519L89.757477 31.75948L90.229919 31.75948L90.229919 31.444519ZM91.647232 31.444519L91.174805 31.444519L91.174805 31.75948L91.647232 31.75948L91.647232 31.444519Z" fill-rule="evenodd" transform="translate(13.819, 23.815)" fill="#000000" opacity="0.2"></path><path d="M0 0L75.591003 0L73.269997 11.517L2.507 11.517L0 0Z" transform="translate(21.417, 17.638)" fill="#6d7a97"></path><path d="M0 0L70.865997 0L63.951 3.487L6.9000001 3.487L0 0Z" transform="translate(23.937, 29.123)" fill="#dde1e9"></path><path d="M0 0L57.007999 0L53.863998 14.402L3.744 14.402L0 0Z" transform="translate(30.884, 32.608)" fill="#cad0dc"></path><path d="M0 0L50.078999 0L42.675999 2.987L7.855 2.987L0 0Z" transform="translate(34.646, 47.01)" fill="#dde1e9"></path><path d="M0 0L34.960999 0L34.960999 11.741L0 11.741L0 0Z" transform="translate(42.52, 49.991)" fill="#eef0f4"></path><path d="M0.26800001 0.50999999C0.215 0.50999999 0.171 0.50800002 0.13600001 0.50300002C0.103 0.498 0.075999998 0.486 0.052999999 0.46900001C0.033 0.449 0.018999999 0.42199999 0.011 0.389C0.0040000002 0.35699999 0 0.31099999 0 0.25299999C0 0.19499999 0.0040000002 0.15000001 0.011 0.117C0.018999999 0.082000002 0.033 0.057 0.052999999 0.041999999C0.075999998 0.024 0.103 0.013 0.13600001 0.0080000004C0.171 0.003 0.215 0 0.26800001 0C0.32100001 0 0.36399999 0.003 0.39700001 0.0080000004C0.43200001 0.013 0.46000001 0.024 0.47999999 0.041999999C0.50300002 0.057 0.51800001 0.082000002 0.52499998 0.117C0.53299999 0.15000001 0.537 0.19499999 0.537 0.25299999C0.537 0.31099999 0.53299999 0.35699999 0.52499998 0.389C0.51800001 0.42199999 0.50300002 0.449 0.47999999 0.46900001C0.46000001 0.486 0.43200001 0.498 0.39700001 0.50300002C0.36399999 0.50800002 0.32100001 0.50999999 0.26800001 0.50999999ZM0.029999999 0.824L0.50300002 0.824L0.50300002 2.865L0.029999999 2.865L0.029999999 0.824ZM1.603 1.202L1.603 2.1849999C1.603 2.25 1.6059999 2.3039999 1.6109999 2.3469999C1.619 2.3900001 1.631 2.424 1.649 2.4489999C1.669 2.474 1.6950001 2.4920001 1.728 2.5020001C1.761 2.51 1.804 2.513 1.857 2.513C1.892 2.513 1.925 2.5120001 1.955 2.51C1.985 2.507 2.0139999 2.5020001 2.0420001 2.494L2.0420001 2.869C2.0020001 2.8740001 1.96 2.8770001 1.9170001 2.8800001C1.874 2.885 1.831 2.888 1.789 2.888C1.668 2.888 1.564 2.8789999 1.479 2.8610001C1.396 2.8410001 1.3279999 2.8069999 1.275 2.7590001C1.224 2.7090001 1.188 2.641 1.165 2.5550001C1.142 2.467 1.131 2.3559999 1.131 2.2219999L1.131 1.202L0.84799999 1.202L0.84799999 0.824L1.131 0.824L1.131 0.34L1.603 0.34L1.603 0.824L2.053 0.824L2.053 1.202L1.603 1.202ZM4.1459999 1.6670001C4.1459999 1.717 4.1430001 1.766 4.138 1.814C4.1350002 1.86 4.132 1.9 4.1269999 1.9349999L2.789 2.0220001C2.7939999 2.1930001 2.842 2.319 2.9319999 2.4000001C3.023 2.4809999 3.1700001 2.5209999 3.3740001 2.5209999C3.4349999 2.5209999 3.497 2.517 3.5599999 2.51C3.625 2.5020001 3.687 2.4920001 3.7449999 2.4790001C3.8050001 2.464 3.8610001 2.4489999 3.911 2.434C3.9619999 2.4159999 4.0040002 2.3989999 4.04 2.381L4.04 2.767C3.9790001 2.802 3.881 2.8329999 3.7449999 2.8610001C3.609 2.8889999 3.4579999 2.9030001 3.2909999 2.9030001C3.135 2.9030001 2.997 2.8859999 2.8759999 2.8540001C2.7550001 2.8210001 2.6530001 2.7639999 2.569 2.6830001C2.4860001 2.6029999 2.4219999 2.494 2.3770001 2.358C2.3340001 2.2219999 2.312 2.0510001 2.312 1.844C2.312 1.638 2.3340001 1.466 2.3770001 1.33C2.4219999 1.194 2.4860001 1.086 2.569 1.005C2.6530001 0.92500001 2.7550001 0.86799997 2.8759999 0.83499998C2.997 0.80299997 3.135 0.78600001 3.2909999 0.78600001C3.4679999 0.78600001 3.6110001 0.81 3.7219999 0.85799998C3.8329999 0.903 3.9200001 0.96600002 3.983 1.0470001C4.046 1.128 4.0890002 1.221 4.1110001 1.327C4.1339998 1.432 4.1459999 1.546 4.1459999 1.6670001ZM3.707 1.618C3.707 1.5549999 3.7019999 1.495 3.6919999 1.4400001C3.684 1.382 3.6659999 1.332 3.635 1.289C3.605 1.2460001 3.562 1.212 3.507 1.187C3.454 1.1619999 3.382 1.149 3.2909999 1.149C3.1960001 1.149 3.1159999 1.16 3.053 1.183C2.99 1.206 2.9400001 1.24 2.902 1.285C2.8640001 1.33 2.8369999 1.387 2.819 1.455C2.8010001 1.521 2.7909999 1.597 2.789 1.686L3.707 1.618ZM6.901 0.78600001C7.1350002 0.78600001 7.3060002 0.84500003 7.415 0.96399999C7.5229998 1.08 7.5770001 1.256 7.5770001 1.493L7.5770001 2.865L7.105 2.865L7.105 1.599C7.105 1.455 7.0809999 1.349 7.033 1.281C6.9850001 1.2130001 6.8969998 1.179 6.7690001 1.179C6.6550002 1.179 6.5609999 1.202 6.4850001 1.247C6.4120002 1.293 6.3600001 1.376 6.3299999 1.497L6.3299999 2.865L5.8579998 2.865L5.8579998 1.599C5.8579998 1.455 5.8340001 1.349 5.7859998 1.281C5.7399998 1.2130001 5.6550002 1.179 5.5289998 1.179C5.415 1.179 5.323 1.201 5.2529998 1.243C5.1820002 1.286 5.131 1.367 5.098 1.485L5.098 2.865L4.6259999 2.865L4.6259999 0.824L5.098 0.824L5.098 1.066C5.1560001 0.96499997 5.2329998 0.89300001 5.329 0.85000002C5.4239998 0.80800003 5.54 0.78600001 5.6760001 0.78600001C5.835 0.78600001 5.961 0.81300002 6.0539999 0.866C6.1469998 0.91600001 6.217 0.99000001 6.2620001 1.089C6.3200002 0.97799999 6.4060001 0.89999998 6.5190001 0.85399997C6.632 0.80900002 6.7600002 0.78600001 6.901 0.78600001ZM9.7410002 2.1689999L8.6450005 2.1689999L8.3959999 2.865L7.8860002 2.865L8.868 0.242L9.5340004 0.242L10.509 2.865L9.9829998 2.865L9.7410002 2.1689999ZM9.5939999 1.7539999L9.2200003 0.68400002L9.1739998 0.68400002L8.7930002 1.7539999L9.5939999 1.7539999Z" transform="translate(54.749, 20.442)" fill="#ffffff"></path><path d="M0.26800001 0.50999999C0.215 0.50999999 0.171 0.50800002 0.13600001 0.50300002C0.103 0.498 0.075999998 0.486 0.052999999 0.46900001C0.033 0.449 0.018999999 0.42199999 0.011 0.389C0.0040000002 0.35699999 0 0.31099999 0 0.25299999C0 0.19499999 0.0040000002 0.15000001 0.011 0.117C0.018999999 0.082000002 0.033 0.057 0.052999999 0.041999999C0.075999998 0.024 0.103 0.013 0.13600001 0.0080000004C0.171 0.003 0.215 0 0.26800001 0C0.32100001 0 0.36399999 0.003 0.39700001 0.0080000004C0.43200001 0.013 0.46000001 0.024 0.47999999 0.041999999C0.50300002 0.057 0.51800001 0.082000002 0.52499998 0.117C0.53299999 0.15000001 0.537 0.19499999 0.537 0.25299999C0.537 0.31099999 0.53299999 0.35699999 0.52499998 0.389C0.51800001 0.42199999 0.50300002 0.449 0.47999999 0.46900001C0.46000001 0.486 0.43200001 0.498 0.39700001 0.50300002C0.36399999 0.50800002 0.32100001 0.50999999 0.26800001 0.50999999ZM0.029999999 0.824L0.50300002 0.824L0.50300002 2.865L0.029999999 2.865L0.029999999 0.824ZM1.603 1.202L1.603 2.1849999C1.603 2.25 1.6059999 2.3039999 1.6109999 2.3469999C1.619 2.3900001 1.631 2.424 1.649 2.4489999C1.669 2.474 1.6950001 2.4920001 1.728 2.5020001C1.761 2.51 1.804 2.513 1.857 2.513C1.892 2.513 1.925 2.5120001 1.955 2.51C1.985 2.507 2.0139999 2.5020001 2.0420001 2.494L2.0420001 2.869C2.0020001 2.8740001 1.96 2.8770001 1.9170001 2.8800001C1.874 2.885 1.831 2.888 1.789 2.888C1.668 2.888 1.564 2.8789999 1.479 2.8610001C1.396 2.8410001 1.3279999 2.8069999 1.275 2.7590001C1.224 2.7090001 1.188 2.641 1.165 2.5550001C1.142 2.467 1.131 2.3559999 1.131 2.2219999L1.131 1.202L0.84799999 1.202L0.84799999 0.824L1.131 0.824L1.131 0.34L1.603 0.34L1.603 0.824L2.053 0.824L2.053 1.202L1.603 1.202ZM4.1459999 1.6670001C4.1459999 1.717 4.1430001 1.766 4.138 1.814C4.1350002 1.86 4.132 1.9 4.1269999 1.9349999L2.789 2.0220001C2.7939999 2.1930001 2.842 2.319 2.9319999 2.4000001C3.023 2.4809999 3.1700001 2.5209999 3.3740001 2.5209999C3.4349999 2.5209999 3.497 2.517 3.5599999 2.51C3.625 2.5020001 3.687 2.4920001 3.7449999 2.4790001C3.8050001 2.464 3.8610001 2.4489999 3.911 2.434C3.9619999 2.4159999 4.0040002 2.3989999 4.04 2.381L4.04 2.767C3.9790001 2.802 3.881 2.8329999 3.7449999 2.8610001C3.609 2.8889999 3.4579999 2.9030001 3.2909999 2.9030001C3.135 2.9030001 2.997 2.8859999 2.8759999 2.8540001C2.7550001 2.8210001 2.6530001 2.7639999 2.569 2.6830001C2.4860001 2.6029999 2.4219999 2.494 2.3770001 2.358C2.3340001 2.2219999 2.312 2.0510001 2.312 1.844C2.312 1.638 2.3340001 1.466 2.3770001 1.33C2.4219999 1.194 2.4860001 1.086 2.569 1.005C2.6530001 0.92500001 2.7550001 0.86799997 2.8759999 0.83499998C2.997 0.80299997 3.135 0.78600001 3.2909999 0.78600001C3.4679999 0.78600001 3.6110001 0.81 3.7219999 0.85799998C3.8329999 0.903 3.9200001 0.96600002 3.983 1.0470001C4.046 1.128 4.0890002 1.221 4.1110001 1.327C4.1339998 1.432 4.1459999 1.546 4.1459999 1.6670001ZM3.707 1.618C3.707 1.5549999 3.7019999 1.495 3.6919999 1.4400001C3.684 1.382 3.6659999 1.332 3.635 1.289C3.605 1.2460001 3.562 1.212 3.507 1.187C3.454 1.1619999 3.382 1.149 3.2909999 1.149C3.1960001 1.149 3.1159999 1.16 3.053 1.183C2.99 1.206 2.9400001 1.24 2.902 1.285C2.8640001 1.33 2.8369999 1.387 2.819 1.455C2.8010001 1.521 2.7909999 1.597 2.789 1.686L3.707 1.618ZM6.901 0.78600001C7.1350002 0.78600001 7.3060002 0.84500003 7.415 0.96399999C7.5229998 1.08 7.5770001 1.256 7.5770001 1.493L7.5770001 2.865L7.105 2.865L7.105 1.599C7.105 1.455 7.0809999 1.349 7.033 1.281C6.9850001 1.2130001 6.8969998 1.179 6.7690001 1.179C6.6550002 1.179 6.5609999 1.202 6.4850001 1.247C6.4120002 1.293 6.3600001 1.376 6.3299999 1.497L6.3299999 2.865L5.8579998 2.865L5.8579998 1.599C5.8579998 1.455 5.8340001 1.349 5.7859998 1.281C5.7399998 1.2130001 5.6550002 1.179 5.5289998 1.179C5.415 1.179 5.323 1.201 5.2529998 1.243C5.1820002 1.286 5.131 1.367 5.098 1.485L5.098 2.865L4.6259999 2.865L4.6259999 0.824L5.098 0.824L5.098 1.066C5.1560001 0.96499997 5.2329998 0.89300001 5.329 0.85000002C5.4239998 0.80800003 5.54 0.78600001 5.6760001 0.78600001C5.835 0.78600001 5.961 0.81300002 6.0539999 0.866C6.1469998 0.91600001 6.217 0.99000001 6.2620001 1.089C6.3200002 0.97799999 6.4060001 0.89999998 6.5190001 0.85399997C6.632 0.80900002 6.7600002 0.78600001 6.901 0.78600001ZM8.1730003 0.242L9.0159998 0.242C9.1999998 0.242 9.3520002 0.257 9.4729996 0.287C9.5970001 0.315 9.6940002 0.35800001 9.7639999 0.41600001C9.8369999 0.47400001 9.8879995 0.54699999 9.915 0.63499999C9.9460001 0.72299999 9.9610004 0.82599998 9.9610004 0.94499999C9.9610004 1.081 9.9320002 1.196 9.8739996 1.289C9.8179998 1.38 9.7200003 1.446 9.5790005 1.489L9.5790005 1.5039999C9.743 1.5420001 9.8599997 1.613 9.9300003 1.716C10.003 1.817 10.04 1.948 10.04 2.109C10.04 2.227 10.025 2.3340001 9.9949999 2.4300001C9.967 2.523 9.9169998 2.6029999 9.8430004 2.668C9.7700005 2.7309999 9.6719999 2.78 9.5489998 2.816C9.4280005 2.849 9.2749996 2.865 9.0909996 2.865L8.1730003 2.865L8.1730003 0.242ZM8.8830004 1.346C8.9870005 1.346 9.0749998 1.34 9.1479998 1.33C9.224 1.3200001 9.2849998 1.303 9.3330002 1.277C9.3809996 1.25 9.4160004 1.2130001 9.4390001 1.168C9.4619999 1.123 9.4729996 1.063 9.4729996 0.99000001C9.4729996 0.912 9.4619999 0.85000002 9.4390001 0.80500001C9.4160004 0.75999999 9.3809996 0.72600001 9.3330002 0.70300001C9.2880001 0.67799997 9.2270002 0.66100001 9.1520004 0.65399998C9.0790005 0.64600003 8.9890003 0.64300001 8.8830004 0.64300001L8.6680002 0.64300001L8.6680002 1.346L8.8830004 1.346ZM8.9630003 2.46C9.0760002 2.46 9.1689997 2.4549999 9.243 2.4449999C9.3179998 2.4349999 9.3769999 2.4159999 9.4200001 2.3889999C9.4659996 2.358 9.4969997 2.319 9.5150003 2.2709999C9.5319996 2.224 9.5410004 2.1619999 9.5410004 2.086C9.5410004 2.0179999 9.5319996 1.96 9.5150003 1.9119999C9.4969997 1.865 9.4659996 1.827 9.4200001 1.799C9.3769999 1.7690001 9.3179998 1.747 9.243 1.735C9.1689997 1.72 9.0760002 1.712 8.9630003 1.712L8.6680002 1.712L8.6680002 2.46L8.9630003 2.46Z" transform="translate(54.749, 37.795)" fill="#6d7a97"></path><path d="M0.26800001 0.50999999C0.215 0.50999999 0.171 0.50800002 0.13600001 0.50300002C0.103 0.498 0.075999998 0.486 0.052999999 0.46900001C0.033 0.449 0.018999999 0.42199999 0.011 0.389C0.0040000002 0.35699999 0 0.31099999 0 0.25299999C0 0.19499999 0.0040000002 0.15000001 0.011 0.117C0.018999999 0.082000002 0.033 0.057 0.052999999 0.041999999C0.075999998 0.024 0.103 0.013 0.13600001 0.0080000004C0.171 0.003 0.215 0 0.26800001 0C0.32100001 0 0.36399999 0.003 0.39700001 0.0080000004C0.43200001 0.013 0.46000001 0.024 0.47999999 0.041999999C0.50300002 0.057 0.51800001 0.082000002 0.52499998 0.117C0.53299999 0.15000001 0.537 0.19499999 0.537 0.25299999C0.537 0.31099999 0.53299999 0.35699999 0.52499998 0.389C0.51800001 0.42199999 0.50300002 0.449 0.47999999 0.46900001C0.46000001 0.486 0.43200001 0.498 0.39700001 0.50300002C0.36399999 0.50800002 0.32100001 0.50999999 0.26800001 0.50999999ZM0.029999999 0.824L0.50300002 0.824L0.50300002 2.865L0.029999999 2.865L0.029999999 0.824ZM1.603 1.202L1.603 2.1849999C1.603 2.25 1.6059999 2.3039999 1.6109999 2.3469999C1.619 2.3900001 1.631 2.424 1.649 2.4489999C1.669 2.474 1.6950001 2.4920001 1.728 2.5020001C1.761 2.51 1.804 2.513 1.857 2.513C1.892 2.513 1.925 2.5120001 1.955 2.51C1.985 2.507 2.0139999 2.5020001 2.0420001 2.494L2.0420001 2.869C2.0020001 2.8740001 1.96 2.8770001 1.9170001 2.8800001C1.874 2.885 1.831 2.888 1.789 2.888C1.668 2.888 1.564 2.8789999 1.479 2.8610001C1.396 2.8410001 1.3279999 2.8069999 1.275 2.7590001C1.224 2.7090001 1.188 2.641 1.165 2.5550001C1.142 2.467 1.131 2.3559999 1.131 2.2219999L1.131 1.202L0.84799999 1.202L0.84799999 0.824L1.131 0.824L1.131 0.34L1.603 0.34L1.603 0.824L2.053 0.824L2.053 1.202L1.603 1.202ZM4.1459999 1.6670001C4.1459999 1.717 4.1430001 1.766 4.138 1.814C4.1350002 1.86 4.132 1.9 4.1269999 1.9349999L2.789 2.0220001C2.7939999 2.1930001 2.842 2.319 2.9319999 2.4000001C3.023 2.4809999 3.1700001 2.5209999 3.3740001 2.5209999C3.4349999 2.5209999 3.497 2.517 3.5599999 2.51C3.625 2.5020001 3.687 2.4920001 3.7449999 2.4790001C3.8050001 2.464 3.8610001 2.4489999 3.911 2.434C3.9619999 2.4159999 4.0040002 2.3989999 4.04 2.381L4.04 2.767C3.9790001 2.802 3.881 2.8329999 3.7449999 2.8610001C3.609 2.8889999 3.4579999 2.9030001 3.2909999 2.9030001C3.135 2.9030001 2.997 2.8859999 2.8759999 2.8540001C2.7550001 2.8210001 2.6530001 2.7639999 2.569 2.6830001C2.4860001 2.6029999 2.4219999 2.494 2.3770001 2.358C2.3340001 2.2219999 2.312 2.0510001 2.312 1.844C2.312 1.638 2.3340001 1.466 2.3770001 1.33C2.4219999 1.194 2.4860001 1.086 2.569 1.005C2.6530001 0.92500001 2.7550001 0.86799997 2.8759999 0.83499998C2.997 0.80299997 3.135 0.78600001 3.2909999 0.78600001C3.4679999 0.78600001 3.6110001 0.81 3.7219999 0.85799998C3.8329999 0.903 3.9200001 0.96600002 3.983 1.0470001C4.046 1.128 4.0890002 1.221 4.1110001 1.327C4.1339998 1.432 4.1459999 1.546 4.1459999 1.6670001ZM3.707 1.618C3.707 1.5549999 3.7019999 1.495 3.6919999 1.4400001C3.684 1.382 3.6659999 1.332 3.635 1.289C3.605 1.2460001 3.562 1.212 3.507 1.187C3.454 1.1619999 3.382 1.149 3.2909999 1.149C3.1960001 1.149 3.1159999 1.16 3.053 1.183C2.99 1.206 2.9400001 1.24 2.902 1.285C2.8640001 1.33 2.8369999 1.387 2.819 1.455C2.8010001 1.521 2.7909999 1.597 2.789 1.686L3.707 1.618ZM6.901 0.78600001C7.1350002 0.78600001 7.3060002 0.84500003 7.415 0.96399999C7.5229998 1.08 7.5770001 1.256 7.5770001 1.493L7.5770001 2.865L7.105 2.865L7.105 1.599C7.105 1.455 7.0809999 1.349 7.033 1.281C6.9850001 1.2130001 6.8969998 1.179 6.7690001 1.179C6.6550002 1.179 6.5609999 1.202 6.4850001 1.247C6.4120002 1.293 6.3600001 1.376 6.3299999 1.497L6.3299999 2.865L5.8579998 2.865L5.8579998 1.599C5.8579998 1.455 5.8340001 1.349 5.7859998 1.281C5.7399998 1.2130001 5.6550002 1.179 5.5289998 1.179C5.415 1.179 5.323 1.201 5.2529998 1.243C5.1820002 1.286 5.131 1.367 5.098 1.485L5.098 2.865L4.6259999 2.865L4.6259999 0.824L5.098 0.824L5.098 1.066C5.1560001 0.96499997 5.2329998 0.89300001 5.329 0.85000002C5.4239998 0.80800003 5.54 0.78600001 5.6760001 0.78600001C5.835 0.78600001 5.961 0.81300002 6.0539999 0.866C6.1469998 0.91600001 6.217 0.99000001 6.2620001 1.089C6.3200002 0.97799999 6.4060001 0.89999998 6.5190001 0.85399997C6.632 0.80900002 6.7600002 0.78600001 6.901 0.78600001ZM9.7939997 2.4300001L9.7939997 2.865L8.1730003 2.865L8.1730003 0.242L9.7259998 0.242L9.7259998 0.67299998L8.6680002 0.67299998L8.6680002 1.308L9.651 1.308L9.651 1.72L8.6680002 1.72L8.6680002 2.4300001L9.7939997 2.4300001Z" transform="translate(54.749, 55.718)" fill="#6d7a97"></path></g></svg>