<svg xmlns="http://www.w3.org/2000/svg" version="1.1" xmlns:xlink="http://www.w3.org/1999/xlink" fill="none" width="14" height="14" viewBox="0 0 14 14"><path d="M1.615 0.60699999C1.54 0.68300003 1.54 0.80599999 1.615 0.88200003L11.24 10.503C11.315 10.579 11.439 10.579 11.515 10.503L12.064 9.9530001C12.14 9.8769999 12.14 9.7539997 12.064 9.6780005L11.17 8.7840004C11.973 8.1000004 12.735 7.2129998 13.433 6.1259999C13.762 5.6129999 13.762 4.9520001 13.434 4.4400001C10.631 0.071999997 6.7909999 -1.052 3.457 1.073L2.4400001 0.057C2.3640001 -0.018999999 2.2409999 -0.018999999 2.165 0.057L1.615 0.60699999ZM4.2849998 1.901C7.0599999 0.38100001 10.232 1.411 12.471 4.987C12.583 5.1659999 12.583 5.3979998 12.471 5.5780001C11.839 6.5869999 11.132 7.3930001 10.382 7.9959998L9.2729998 6.888C9.5790005 6.427 9.757 5.8740001 9.757 5.2800002C9.757 3.6700001 8.4510002 2.3640001 6.8400002 2.3640001C6.2459998 2.3640001 5.6929998 2.5420001 5.2319999 2.8469999L4.2849998 1.901ZM8.4189997 6.0339999L6.086 3.701C6.3140001 3.592 6.5700002 3.5309999 6.8400002 3.5309999C7.8060002 3.5309999 8.5900002 4.3140001 8.5900002 5.2800002C8.5900002 5.5500002 8.5290003 5.8060002 8.4189997 6.0339999ZM0.24600001 6.1199999C-0.082000002 5.6079998 -0.082000002 4.947 0.24699999 4.434C0.65499997 3.7980001 1.085 3.2309999 1.533 2.733C1.6059999 2.651 1.733 2.6489999 1.811 2.7260001L2.3110001 3.227C2.385 3.3010001 2.3870001 3.4200001 2.3169999 3.4979999C1.929 3.931 1.558 4.4260001 1.209 4.9819999C1.097 5.1620002 1.097 5.3940001 1.209 5.573C3.1110001 8.6099997 5.6849999 9.8109999 8.118 9.1730003C8.1859999 9.1549997 8.2600002 9.1730003 8.309 9.2229996L8.9370003 9.8509998C9.0349998 9.948 9.0019999 10.114 8.8719997 10.162C5.888 11.256 2.677 9.908 0.24600001 6.1199999ZM5.5999999 6.5149999C5.6020002 6.5159998 5.6030002 6.5180001 5.605 6.52L6.9770002 7.8909998C7.0910001 8.0050001 7.0250001 8.1940002 6.8649998 8.1960001C6.8559999 8.1960001 6.848 8.1960001 6.8400002 8.1960001C5.2290001 8.1960001 3.9230001 6.8899999 3.9230001 5.2800002C3.9230001 5.2719998 3.9230001 5.2639999 3.924 5.2550001C3.925 5.0949998 4.1139998 5.0289998 4.2280002 5.1430001L5.5999999 6.5149999Z" transform="translate(0.16, 1.718)" fill="#8c8d91"></path></svg>