<svg xmlns="http://www.w3.org/2000/svg" version="1.1" xmlns:xlink="http://www.w3.org/1999/xlink" fill="none" width="14" height="14" viewBox="0 0 14 14"><g fill="#8c8d91"><path d="M9.757 5.25C9.757 3.6400001 8.4510002 2.3340001 6.8400002 2.3340001C5.2290001 2.3340001 3.9230001 3.6400001 3.9230001 5.25C3.9230001 6.8600001 5.2290001 8.1660004 6.8400002 8.1660004C8.4510002 8.1660004 9.757 6.8600001 9.757 5.25ZM8.5900002 5.25C8.5900002 6.2160001 7.8060002 7 6.8400002 7C5.8740001 7 5.0900002 6.2160001 5.0900002 5.25C5.0900002 4.2839999 5.8740001 3.5 6.8400002 3.5C7.8060002 3.5 8.5900002 4.2839999 8.5900002 5.25Z" transform="translate(0.16, 1.749)"></path><path d="M0.24600001 6.0900002C-0.082000002 5.5780001 -0.082000002 4.9169998 0.24699999 4.4039998C4.0170002 -1.471 9.6630001 -1.467 13.434 4.4099998C13.762 4.9219999 13.762 5.5830002 13.433 6.0960002C9.6630001 11.971 4.0170002 11.967 0.24600001 6.0900002ZM1.209 5.5430002C4.3509998 10.562 9.3290005 10.566 12.471 5.5479999C12.583 5.368 12.583 5.1360002 12.471 4.9569998C9.3290005 -0.061999999 4.3509998 -0.066 1.209 4.9520001C1.097 5.132 1.097 5.3639998 1.209 5.5430002Z" transform="translate(0.16, 1.749)"></path></g></svg>