<svg xmlns="http://www.w3.org/2000/svg" version="1.1" xmlns:xlink="http://www.w3.org/1999/xlink" fill="none" width="14" height="14" viewBox="0 0 14 14"><path d="M3.595 0C3.7019999 0 3.79 0.086999997 3.79 0.19400001L3.79 0.972C3.79 1.079 3.7019999 1.166 3.595 1.166L1.749 1.166C1.427 1.166 1.166 1.427 1.166 1.749L1.166 3.595C1.166 3.7019999 1.079 3.789 0.972 3.789L0.19400001 3.789C0.086999997 3.789 0 3.7019999 0 3.595L0 1.749C0 0.78299999 0.78299999 0 1.749 0L3.595 0ZM3.595 10.494C3.7019999 10.494 3.79 10.581 3.79 10.688L3.79 11.466C3.79 11.573 3.7019999 11.66 3.595 11.66L1.749 11.66C0.78299999 11.66 0 10.877 0 9.9110003L0 8.0649996C0 7.9580002 0.086999997 7.8699999 0.19400001 7.8699999L0.972 7.8699999C1.079 7.8699999 1.166 7.9580002 1.166 8.0649996L1.166 9.9110003C1.166 10.233 1.427 10.494 1.749 10.494L3.595 10.494ZM7.8699999 11.466C7.8699999 11.573 7.9580002 11.66 8.0649996 11.66L9.9110003 11.66C10.877 11.66 11.66 10.877 11.66 9.9110003L11.66 8.0649996C11.66 7.9580002 11.573 7.8699999 11.466 7.8699999L10.688 7.8699999C10.581 7.8699999 10.494 7.9580002 10.494 8.0649996L10.494 9.9110003C10.494 10.233 10.233 10.494 9.9110003 10.494L8.0649996 10.494C7.9580002 10.494 7.8699999 10.581 7.8699999 10.688L7.8699999 11.466ZM7.8699999 0.972C7.8699999 1.079 7.9580002 1.166 8.0649996 1.166L9.9110003 1.166C10.233 1.166 10.494 1.427 10.494 1.749L10.494 3.595C10.494 3.7019999 10.581 3.789 10.688 3.789L11.466 3.789C11.573 3.789 11.66 3.7019999 11.66 3.595L11.66 1.749C11.66 0.78299999 10.877 0 9.9110003 0L8.0649996 0C7.9580002 0 7.8699999 0.086999997 7.8699999 0.19400001L7.8699999 0.972Z" transform="translate(1.167, 1.167)" fill="#515357"></path></svg>