<svg xmlns="http://www.w3.org/2000/svg" version="1.1" xmlns:xlink="http://www.w3.org/1999/xlink" fill="none" width="120" height="75.591" viewBox="0 0 120 75.591"><defs><clipPath id="clip_6:14632_kLWSXD"><rect width="120" height="75.591" rx="4"></rect></clipPath></defs><g clip-path="url(#clip_6:14632_kLWSXD)"><path d="M0 0L120 0L120 75.599998L0 75.599998L0 0Z" fill="#000000"></path><path d="M0 0L120 0L120 75.599998L0 75.599998L0 0Z" fill="#ffffff"></path><path d="M1.923 0.676L1.207 0.676L1.207 2.862L0.71200001 2.862L0.71200001 0.676L0 0.676L0 0.242L1.923 0.242L1.923 0.676ZM2.4430001 0.50999999C2.3900001 0.50999999 2.346 0.50700003 2.3099999 0.50199997C2.277 0.49700001 2.25 0.486 2.227 0.46799999C2.207 0.44800001 2.1930001 0.42199999 2.1849999 0.389C2.178 0.35600001 2.174 0.31099999 2.174 0.25299999C2.174 0.19499999 2.178 0.15000001 2.1849999 0.117C2.1930001 0.082000002 2.207 0.057 2.227 0.041999999C2.25 0.024 2.277 0.013 2.3099999 0.0080000004C2.346 0.003 2.3900001 0 2.4430001 0C2.4960001 0 2.539 0.003 2.5710001 0.0080000004C2.6070001 0.013 2.635 0.024 2.655 0.041999999C2.677 0.057 2.6930001 0.082000002 2.7 0.117C2.7079999 0.15000001 2.711 0.19499999 2.711 0.25299999C2.711 0.31099999 2.7079999 0.35600001 2.7 0.389C2.6930001 0.42199999 2.677 0.44800001 2.655 0.46799999C2.635 0.486 2.6070001 0.49700001 2.5710001 0.50199997C2.539 0.50700003 2.4960001 0.50999999 2.4430001 0.50999999ZM2.204 0.82300001L2.677 0.82300001L2.677 2.862L2.204 2.862L2.204 0.82300001ZM5.5510001 0.78500003C5.7859998 0.78500003 5.9569998 0.84500003 6.066 0.963C6.1739998 1.079 6.2280002 1.255 6.2280002 1.492L6.2280002 2.862L5.7550001 2.862L5.7550001 1.597C5.7550001 1.454 5.7309999 1.348 5.6830001 1.28C5.6350002 1.212 5.5469999 1.178 5.4180002 1.178C5.3049998 1.178 5.21 1.201 5.1350002 1.2460001C5.0609999 1.291 5.0100002 1.374 4.9790001 1.495L4.9790001 2.862L4.506 2.862L4.506 1.597C4.506 1.454 4.4819999 1.348 4.434 1.28C4.3889999 1.212 4.303 1.178 4.177 1.178C4.0640001 1.178 3.971 1.2 3.901 1.242C3.8299999 1.285 3.7780001 1.3660001 3.7460001 1.484L3.7460001 2.862L3.273 2.862L3.273 0.82300001L3.7460001 0.82300001L3.7460001 1.0650001C3.8039999 0.96399999 3.881 0.89200002 3.977 0.85000002C4.072 0.80699998 4.1880002 0.78500003 4.3249998 0.78500003C4.4840002 0.78500003 4.6100001 0.81199998 4.7030001 0.86500001C4.7969999 0.91500002 4.8660002 0.98900002 4.9109998 1.0880001C4.9689999 0.977 5.0549998 0.89899999 5.1690001 0.85299999C5.2820001 0.80800003 5.4099998 0.78500003 5.5510001 0.78500003ZM8.5389996 1.665C8.5389996 1.716 8.5369997 1.765 8.5319996 1.813C8.5290003 1.858 8.5249996 1.898 8.5200005 1.933L7.1799998 2.02C7.1849999 2.191 7.2329998 2.3169999 7.3239999 2.398C7.415 2.4779999 7.5630002 2.5190001 7.7670002 2.5190001C7.8280001 2.5190001 7.8889999 2.5150001 7.9520001 2.507C8.0179996 2.5 8.0799999 2.49 8.1379995 2.477C8.198 2.4619999 8.2539997 2.447 8.3039999 2.4319999C8.3549995 2.414 8.3979998 2.3970001 8.4329996 2.3789999L8.4329996 2.7639999C8.3730001 2.799 8.2740002 2.8310001 8.1379995 2.858C8.0019999 2.8859999 7.8499999 2.9000001 7.684 2.9000001C7.527 2.9000001 7.3889999 2.8840001 7.2670002 2.8510001C7.1459999 2.8180001 7.0440001 2.7620001 6.961 2.681C6.8779998 2.5999999 6.8130002 2.4920001 6.7680001 2.3559999C6.7249999 2.22 6.704 2.049 6.704 1.8430001C6.704 1.636 6.7249999 1.465 6.7680001 1.329C6.8130002 1.193 6.8779998 1.085 6.961 1.0039999C7.0440001 0.92400002 7.1459999 0.86699998 7.2670002 0.83499998C7.3889999 0.80199999 7.527 0.78500003 7.684 0.78500003C7.8600001 0.78500003 8.0039997 0.80900002 8.1149998 0.85699999C8.2259998 0.90200001 8.3129997 0.96499997 8.3760004 1.046C8.4390001 1.127 8.4820004 1.22 8.5050001 1.325C8.5279999 1.431 8.5389996 1.544 8.5389996 1.665ZM8.1000004 1.6160001C8.1000004 1.553 8.0950003 1.494 8.085 1.439C8.0769997 1.381 8.0579996 1.33 8.0279999 1.288C7.9980001 1.245 7.9549999 1.211 7.8990002 1.186C7.8460002 1.161 7.7750001 1.148 7.684 1.148C7.5879998 1.148 7.5079999 1.159 7.4450002 1.182C7.382 1.205 7.3319998 1.239 7.2940001 1.284C7.256 1.329 7.2280002 1.386 7.211 1.454C7.1929998 1.5190001 7.1830001 1.596 7.1799998 1.684L8.1000004 1.6160001ZM10.602 2.1670001L9.5039997 2.1670001L9.2539997 2.862L8.743 2.862L9.7270002 0.242L10.394 0.242L11.37 2.862L10.844 2.862L10.602 2.1670001ZM10.454 1.752L10.079 0.68300003L10.034 0.68300003L9.6520004 1.752L10.454 1.752Z" transform="translate(14.055, 60.302)" fill="#000000" opacity="0.3"></path><path d="M1.921 0.676L1.206 0.676L1.206 2.862L0.71100003 2.862L0.71100003 0.676L0 0.676L0 0.242L1.921 0.242L1.921 0.676ZM2.4400001 0.50999999C2.3870001 0.50999999 2.3429999 0.50700003 2.3080001 0.50199997C2.2750001 0.49700001 2.247 0.486 2.2249999 0.46799999C2.2049999 0.44800001 2.191 0.42199999 2.1830001 0.389C2.1760001 0.35600001 2.1719999 0.31099999 2.1719999 0.25299999C2.1719999 0.19499999 2.1760001 0.15000001 2.1830001 0.117C2.191 0.082000002 2.2049999 0.057 2.2249999 0.041999999C2.247 0.024 2.2750001 0.013 2.3080001 0.0080000004C2.3429999 0.003 2.3870001 0 2.4400001 0C2.493 0 2.536 0.003 2.569 0.0080000004C2.6040001 0.013 2.632 0.024 2.652 0.041999999C2.675 0.057 2.6900001 0.082000002 2.697 0.117C2.7049999 0.15000001 2.7090001 0.19499999 2.7090001 0.25299999C2.7090001 0.31099999 2.7049999 0.35600001 2.697 0.389C2.6900001 0.42199999 2.675 0.44800001 2.652 0.46799999C2.632 0.486 2.6040001 0.49700001 2.569 0.50199997C2.536 0.50700003 2.493 0.50999999 2.4400001 0.50999999ZM2.2019999 0.82300001L2.675 0.82300001L2.675 2.862L2.2019999 2.862L2.2019999 0.82300001ZM5.546 0.78500003C5.7800002 0.78500003 5.9510002 0.84500003 6.0599999 0.963C6.1680002 1.079 6.2220001 1.255 6.2220001 1.492L6.2220001 2.862L5.75 2.862L5.75 1.597C5.75 1.454 5.7259998 1.348 5.678 1.28C5.6300001 1.212 5.5419998 1.178 5.4130001 1.178C5.3000002 1.178 5.2049999 1.201 5.1300001 1.2460001C5.0570002 1.291 5.0050001 1.374 4.9749999 1.495L4.9749999 2.862L4.5019999 2.862L4.5019999 1.597C4.5019999 1.454 4.4780002 1.348 4.4299998 1.28C4.3850002 1.212 4.2989998 1.178 4.1729999 1.178C4.0599999 1.178 3.9679999 1.2 3.8970001 1.242C3.8269999 1.285 3.7750001 1.3660001 3.7420001 1.484L3.7420001 2.862L3.27 2.862L3.27 0.82300001L3.7420001 0.82300001L3.7420001 1.0650001C3.8 0.96399999 3.8770001 0.89200002 3.973 0.85000002C4.0689998 0.80699998 4.1849999 0.78500003 4.3210001 0.78500003C4.4790001 0.78500003 4.605 0.81199998 4.6989999 0.86500001C4.7919998 0.91500002 4.8610001 0.98900002 4.9070001 1.0880001C4.9650002 0.977 5.0500002 0.89899999 5.164 0.85299999C5.277 0.80800003 5.4050002 0.78500003 5.546 0.78500003ZM8.5310001 1.665C8.5310001 1.716 8.5279999 1.765 8.5229998 1.813C8.5209999 1.858 8.5170002 1.898 8.5120001 1.933L7.1729999 2.02C7.178 2.191 7.2259998 2.3169999 7.3169999 2.398C7.408 2.4779999 7.5549998 2.5190001 7.7589998 2.5190001C7.8200002 2.5190001 7.882 2.5150001 7.9450002 2.507C8.0100002 2.5 8.0719995 2.49 8.1300001 2.477C8.1899996 2.4619999 8.2460003 2.447 8.2959995 2.4319999C8.3470001 2.414 8.3900003 2.3970001 8.4250002 2.3789999L8.4250002 2.7639999C8.3640003 2.799 8.2659998 2.8310001 8.1300001 2.858C7.994 2.8859999 7.8429999 2.9000001 7.6760001 2.9000001C7.52 2.9000001 7.381 2.8840001 7.2600002 2.8510001C7.1389999 2.8180001 7.0370002 2.7620001 6.954 2.681C6.8709998 2.5999999 6.8070002 2.4920001 6.7610002 2.3559999C6.7179999 2.22 6.697 2.049 6.697 1.8430001C6.697 1.636 6.7179999 1.465 6.7610002 1.329C6.8070002 1.193 6.8709998 1.085 6.954 1.0039999C7.0370002 0.92400002 7.1389999 0.86699998 7.2600002 0.83499998C7.381 0.80199999 7.52 0.78500003 7.6760001 0.78500003C7.8530002 0.78500003 7.9959998 0.80900002 8.1070004 0.85699999C8.2180004 0.90200001 8.3050003 0.96499997 8.368 1.046C8.4309998 1.127 8.474 1.22 8.4969997 1.325C8.5190001 1.431 8.5310001 1.544 8.5310001 1.665ZM8.092 1.6160001C8.092 1.553 8.0869999 1.494 8.0769997 1.439C8.0690002 1.381 8.0509996 1.33 8.0200005 1.288C7.9899998 1.245 7.947 1.211 7.8920002 1.186C7.8390002 1.161 7.7670002 1.148 7.6760001 1.148C7.5799999 1.148 7.5009999 1.159 7.4380002 1.182C7.375 1.205 7.3249998 1.239 7.2870002 1.284C7.2490001 1.329 7.2210002 1.386 7.204 1.454C7.1859999 1.5190001 7.1760001 1.596 7.1729999 1.684L8.092 1.6160001ZM9.0220003 0.242L9.8649998 0.242C10.049 0.242 10.202 0.257 10.323 0.287C10.446 0.315 10.543 0.35699999 10.614 0.41499999C10.687 0.47299999 10.738 0.546 10.765 0.634C10.795 0.722 10.811 0.82599998 10.811 0.94400001C10.811 1.08 10.782 1.194 10.724 1.288C10.668 1.378 10.57 1.4450001 10.429 1.488L10.429 1.503C10.593 1.541 10.71 1.6109999 10.78 1.714C10.853 1.8150001 10.89 1.946 10.89 2.1070001C10.89 2.2249999 10.875 2.332 10.845 2.428C10.817 2.5209999 10.766 2.5999999 10.693 2.6659999C10.62 2.7290001 10.522 2.7780001 10.398 2.813C10.277 2.846 10.125 2.862 9.941 2.862L9.0220003 2.862L9.0220003 0.242ZM9.7329998 1.344C9.8360004 1.344 9.9250002 1.339 9.9980001 1.329C10.073 1.319 10.135 1.301 10.183 1.276C10.231 1.249 10.266 1.212 10.289 1.1670001C10.312 1.1210001 10.323 1.062 10.323 0.98900002C10.323 0.91100001 10.312 0.85000002 10.289 0.80400002C10.266 0.759 10.231 0.72500002 10.183 0.70200002C10.138 0.67699999 10.077 0.66100001 10.001 0.653C9.9280005 0.64600003 9.8389997 0.64200002 9.7329998 0.64200002L9.5179996 0.64200002L9.5179996 1.344L9.7329998 1.344ZM9.8120003 2.4579999C9.9259996 2.4579999 10.019 2.4530001 10.092 2.4430001C10.168 2.4330001 10.227 2.414 10.27 2.3859999C10.315 2.3559999 10.347 2.3169999 10.364 2.2690001C10.382 2.2219999 10.391 2.1600001 10.391 2.0840001C10.391 2.016 10.382 1.959 10.364 1.911C10.347 1.863 10.315 1.825 10.27 1.7970001C10.227 1.767 10.168 1.7460001 10.092 1.733C10.019 1.7180001 9.9259996 1.711 9.8120003 1.711L9.5179996 1.711L9.5179996 2.4579999L9.8120003 2.4579999Z" transform="translate(30.59, 60.302)" fill="#000000" opacity="0.3"></path><path d="M1.918 0.676L1.205 0.676L1.205 2.862L0.70999998 2.862L0.70999998 0.676L0 0.676L0 0.242L1.918 0.242L1.918 0.676ZM2.437 0.50999999C2.3840001 0.50999999 2.3399999 0.50700003 2.3050001 0.50199997C2.2720001 0.49700001 2.2449999 0.486 2.2219999 0.46799999C2.2019999 0.44800001 2.188 0.42199999 2.1800001 0.389C2.1730001 0.35600001 2.1689999 0.31099999 2.1689999 0.25299999C2.1689999 0.19499999 2.1730001 0.15000001 2.1800001 0.117C2.188 0.082000002 2.2019999 0.057 2.2219999 0.041999999C2.2449999 0.024 2.2720001 0.013 2.3050001 0.0080000004C2.3399999 0.003 2.3840001 0 2.437 0C2.49 0 2.533 0.003 2.566 0.0080000004C2.6010001 0.013 2.6289999 0.024 2.6489999 0.041999999C2.671 0.057 2.687 0.082000002 2.694 0.117C2.7019999 0.15000001 2.7049999 0.19499999 2.7049999 0.25299999C2.7049999 0.31099999 2.7019999 0.35600001 2.694 0.389C2.687 0.42199999 2.671 0.44800001 2.6489999 0.46799999C2.6289999 0.486 2.6010001 0.49700001 2.566 0.50199997C2.533 0.50700003 2.49 0.50999999 2.437 0.50999999ZM2.1989999 0.82300001L2.671 0.82300001L2.671 2.862L2.1989999 2.862L2.1989999 0.82300001ZM5.539 0.78500003C5.7729998 0.78500003 5.9439998 0.84500003 6.052 0.963C6.1609998 1.079 6.2150002 1.255 6.2150002 1.492L6.2150002 2.862L5.743 2.862L5.743 1.597C5.743 1.454 5.7189999 1.348 5.671 1.28C5.6230001 1.212 5.5349998 1.178 5.4070001 1.178C5.2930002 1.178 5.1989999 1.201 5.1230001 1.2460001C5.0500002 1.291 4.9990001 1.374 4.9689999 1.495L4.9689999 2.862L4.4970002 2.862L4.4970002 1.597C4.4970002 1.454 4.473 1.348 4.4250002 1.28C4.3800001 1.212 4.2940001 1.178 4.1680002 1.178C4.0549998 1.178 3.9630001 1.2 3.892 1.242C3.822 1.285 3.77 1.3660001 3.7379999 1.484L3.7379999 2.862L3.266 2.862L3.266 0.82300001L3.7379999 0.82300001L3.7379999 1.0650001C3.7950001 0.96399999 3.872 0.89200002 3.9679999 0.85000002C4.0640001 0.80699998 4.1789999 0.78500003 4.3150001 0.78500003C4.474 0.78500003 4.5999999 0.81199998 4.6929998 0.86500001C4.7859998 0.91500002 4.855 0.98900002 4.901 1.0880001C4.9590001 0.977 5.0440001 0.89899999 5.1570001 0.85299999C5.2709999 0.80800003 5.3979998 0.78500003 5.539 0.78500003ZM8.5200005 1.665C8.5200005 1.716 8.5179996 1.765 8.5129995 1.813C8.5100002 1.858 8.5059996 1.898 8.5010004 1.933L7.165 2.02C7.1700001 2.191 7.217 2.3169999 7.3080001 2.398C7.3990002 2.4779999 7.546 2.5190001 7.75 2.5190001C7.8099999 2.5190001 7.8720002 2.5150001 7.9349999 2.507C8 2.5 8.0620003 2.49 8.1199999 2.477C8.1800003 2.4619999 8.2360001 2.447 8.2860003 2.4319999C8.3360004 2.414 8.3789997 2.3970001 8.415 2.3789999L8.415 2.7639999C8.3540001 2.799 8.2559996 2.8310001 8.1199999 2.858C7.9840002 2.8859999 7.8330002 2.9000001 7.6669998 2.9000001C7.5110002 2.9000001 7.3720002 2.8840001 7.2509999 2.8510001C7.131 2.8180001 7.0289998 2.7620001 6.9460001 2.681C6.862 2.5999999 6.7979999 2.4920001 6.7529998 2.3559999C6.71 2.22 6.6890001 2.049 6.6890001 1.8430001C6.6890001 1.636 6.71 1.465 6.7529998 1.329C6.7979999 1.193 6.862 1.085 6.9460001 1.0039999C7.0289998 0.92400002 7.131 0.86699998 7.2509999 0.83499998C7.3720002 0.80199999 7.5110002 0.78500003 7.6669998 0.78500003C7.8429999 0.78500003 7.987 0.80900002 8.0970001 0.85699999C8.2080002 0.90200001 8.2950001 0.96499997 8.3579998 1.046C8.4209995 1.127 8.4639997 1.22 8.4860001 1.325C8.5089998 1.431 8.5200005 1.544 8.5200005 1.665ZM8.0819998 1.6160001C8.0819998 1.553 8.0769997 1.494 8.0670004 1.439C8.0600004 1.381 8.0410004 1.33 8.0100002 1.288C7.98 1.245 7.9369998 1.211 7.882 1.186C7.829 1.161 7.757 1.148 7.6669998 1.148C7.5710001 1.148 7.4920001 1.159 7.4289999 1.182C7.3660002 1.205 7.316 1.239 7.2779999 1.284C7.2399998 1.329 7.2119999 1.386 7.1950002 1.454C7.177 1.5190001 7.1669998 1.596 7.165 1.684L8.0819998 1.6160001ZM10.182 2.9000001C9.993 2.9000001 9.8219995 2.881 9.6680002 2.8429999C9.5170002 2.806 9.3879995 2.7379999 9.2790003 2.6389999C9.1709995 2.539 9.0869999 2.402 9.026 2.2279999C8.9680004 2.052 8.9390001 1.826 8.9390001 1.552C8.9390001 1.3 8.9680004 1.089 9.026 0.91799998C9.0869999 0.74400002 9.1709995 0.60399997 9.2790003 0.498C9.3879995 0.39300001 9.5179996 0.317 9.6719999 0.27200001C9.8260002 0.227 9.9980001 0.204 10.189 0.204C10.315 0.204 10.426 0.211 10.522 0.227C10.62 0.23899999 10.709 0.259 10.79 0.287L10.79 0.72100002C10.709 0.69400001 10.622 0.67199999 10.529 0.65700001C10.436 0.639 10.333 0.63099998 10.22 0.63099998C10.091 0.63099998 9.9790001 0.64600003 9.8830004 0.676C9.79 0.70599997 9.7119999 0.75800002 9.6490002 0.83099997C9.5889997 0.90100002 9.5439997 0.99599999 9.5129995 1.114C9.4829998 1.23 9.4680004 1.374 9.4680004 1.548C9.4680004 1.732 9.4820004 1.883 9.5100002 2.0009999C9.54 2.1199999 9.585 2.214 9.6459999 2.2850001C9.7060003 2.352 9.7819996 2.4000001 9.8719997 2.428C9.9650002 2.4530001 10.075 2.4660001 10.201 2.4660001C10.316 2.4660001 10.423 2.4579999 10.522 2.4430001C10.62 2.425 10.719 2.3989999 10.82 2.3640001L10.82 2.79C10.742 2.8210001 10.648 2.846 10.537 2.8659999C10.429 2.8889999 10.31 2.9000001 10.182 2.9000001Z" transform="translate(46.89, 60.302)" fill="#000000" opacity="0.3"></path><path d="M1.921 0.676L1.206 0.676L1.206 2.862L0.71100003 2.862L0.71100003 0.676L0 0.676L0 0.242L1.921 0.242L1.921 0.676ZM2.441 0.50999999C2.388 0.50999999 2.3440001 0.50700003 2.309 0.50199997C2.276 0.49700001 2.2479999 0.486 2.2249999 0.46799999C2.2049999 0.44800001 2.191 0.42199999 2.184 0.389C2.1760001 0.35600001 2.1719999 0.31099999 2.1719999 0.25299999C2.1719999 0.19499999 2.1760001 0.15000001 2.184 0.117C2.191 0.082000002 2.2049999 0.057 2.2249999 0.041999999C2.2479999 0.024 2.276 0.013 2.309 0.0080000004C2.3440001 0.003 2.388 0 2.441 0C2.494 0 2.5369999 0.003 2.569 0.0080000004C2.605 0.013 2.6329999 0.024 2.6530001 0.041999999C2.675 0.057 2.691 0.082000002 2.698 0.117C2.7060001 0.15000001 2.7090001 0.19499999 2.7090001 0.25299999C2.7090001 0.31099999 2.7060001 0.35600001 2.698 0.389C2.691 0.42199999 2.675 0.44800001 2.6530001 0.46799999C2.6329999 0.486 2.605 0.49700001 2.569 0.50199997C2.5369999 0.50700003 2.494 0.50999999 2.441 0.50999999ZM2.2030001 0.82300001L2.675 0.82300001L2.675 2.862L2.2030001 2.862L2.2030001 0.82300001ZM5.5469999 0.78500003C5.7820001 0.78500003 5.9530001 0.84500003 6.0609999 0.963C6.1700001 1.079 6.224 1.255 6.224 1.492L6.224 2.862L5.7509999 2.862L5.7509999 1.597C5.7509999 1.454 5.7270002 1.348 5.6789999 1.28C5.632 1.212 5.5430002 1.178 5.415 1.178C5.3010001 1.178 5.2069998 1.201 5.131 1.2460001C5.0580001 1.291 5.006 1.374 4.9759998 1.495L4.9759998 2.862L4.5029998 2.862L4.5029998 1.597C4.5029998 1.454 4.4790001 1.348 4.4310002 1.28C4.3860002 1.212 4.3000002 1.178 4.1739998 1.178C4.0609999 1.178 3.9690001 1.2 3.898 1.242C3.8280001 1.285 3.776 1.3660001 3.743 1.484L3.743 2.862L3.27 2.862L3.27 0.82300001L3.743 0.82300001L3.743 1.0650001C3.8010001 0.96399999 3.878 0.89200002 3.974 0.85000002C4.0700002 0.80699998 4.1859999 0.78500003 4.322 0.78500003C4.4809999 0.78500003 4.6069999 0.81199998 4.6999998 0.86500001C4.7930002 0.91500002 4.8629999 0.98900002 4.908 1.0880001C4.9660001 0.977 5.052 0.89899999 5.165 0.85299999C5.2789998 0.80800003 5.4060001 0.78500003 5.5469999 0.78500003ZM8.533 1.665C8.533 1.716 8.5299997 1.765 8.5249996 1.813C8.5229998 1.858 8.5190001 1.898 8.5139999 1.933L7.1750002 2.02C7.1799998 2.191 7.2280002 2.3169999 7.3189998 2.398C7.4099998 2.4779999 7.5570002 2.5190001 7.7610002 2.5190001C7.822 2.5190001 7.8839998 2.5150001 7.947 2.507C8.0120001 2.5 8.0740004 2.49 8.132 2.477C8.1929998 2.4619999 8.2480001 2.447 8.2980003 2.4319999C8.349 2.414 8.3920002 2.3970001 8.427 2.3789999L8.427 2.7639999C8.3669996 2.799 8.2679996 2.8310001 8.132 2.858C7.9959998 2.8859999 7.8449998 2.9000001 7.678 2.9000001C7.5219998 2.9000001 7.3829999 2.8840001 7.2620001 2.8510001C7.1409998 2.8180001 7.039 2.7620001 6.9559999 2.681C6.8730001 2.5999999 6.8080001 2.4920001 6.763 2.3559999C6.7199998 2.22 6.6989999 2.049 6.6989999 1.8430001C6.6989999 1.636 6.7199998 1.465 6.763 1.329C6.8080001 1.193 6.8730001 1.085 6.9559999 1.0039999C7.039 0.92400002 7.1409998 0.86699998 7.2620001 0.83499998C7.3829999 0.80199999 7.5219998 0.78500003 7.678 0.78500003C7.855 0.78500003 7.9980001 0.80900002 8.1090002 0.85699999C8.2200003 0.90200001 8.3070002 0.96499997 8.3699999 1.046C8.4329996 1.127 8.4759998 1.22 8.4989996 1.325C8.5220003 1.431 8.533 1.544 8.533 1.665ZM8.0939999 1.6160001C8.0939999 1.553 8.0889997 1.494 8.0790005 1.439C8.0719995 1.381 8.0530005 1.33 8.0220003 1.288C7.9920001 1.245 7.9489999 1.211 7.8940001 1.186C7.8410001 1.161 7.7690001 1.148 7.678 1.148C7.5819998 1.148 7.5029998 1.159 7.4400001 1.182C7.3769999 1.205 7.3260002 1.239 7.289 1.284C7.2509999 1.329 7.223 1.386 7.2049999 1.454C7.1880002 1.5190001 7.178 1.596 7.1750002 1.684L8.0939999 1.6160001ZM9.875 0.242C10.067 0.242 10.241 0.259 10.397 0.29499999C10.554 0.32699999 10.687 0.391 10.798 0.48699999C10.909 0.583 10.995 0.71600002 11.055 0.88700002C11.118 1.059 11.15 1.28 11.15 1.552C11.15 1.806 11.118 2.0179999 11.055 2.1860001C10.995 2.352 10.909 2.4860001 10.798 2.5869999C10.687 2.687 10.554 2.7590001 10.397 2.802C10.241 2.842 10.067 2.862 9.875 2.862L9.0249996 2.862L9.0249996 0.242L9.875 0.242ZM9.8529997 2.4360001C9.9790001 2.4360001 10.091 2.4219999 10.189 2.3940001C10.288 2.3659999 10.37 2.3199999 10.435 2.2539999C10.503 2.1860001 10.554 2.096 10.586 1.982C10.622 1.869 10.639 1.726 10.639 1.552C10.639 1.3710001 10.622 1.222 10.586 1.1059999C10.551 0.991 10.5 0.89999998 10.431 0.83499998C10.363 0.76700002 10.28 0.72100002 10.182 0.699C10.086 0.67299998 9.9759998 0.66100001 9.8529997 0.66100001L9.5200005 0.66100001L9.5200005 2.4360001L9.8529997 2.4360001Z" transform="translate(63.189, 60.302)" fill="#000000" opacity="0.3"></path><path d="M1.9220001 0.676L1.207 0.676L1.207 2.862L0.71100003 2.862L0.71100003 0.676L0 0.676L0 0.242L1.9220001 0.242L1.9220001 0.676ZM2.4419999 0.50999999C2.3889999 0.50999999 2.3440001 0.50700003 2.309 0.50199997C2.276 0.49700001 2.2490001 0.486 2.2260001 0.46799999C2.2060001 0.44800001 2.1919999 0.42199999 2.184 0.389C2.177 0.35600001 2.1730001 0.31099999 2.1730001 0.25299999C2.1730001 0.19499999 2.177 0.15000001 2.184 0.117C2.1919999 0.082000002 2.2060001 0.057 2.2260001 0.041999999C2.2490001 0.024 2.276 0.013 2.309 0.0080000004C2.3440001 0.003 2.3889999 0 2.4419999 0C2.4949999 0 2.5369999 0.003 2.5699999 0.0080000004C2.6059999 0.013 2.6329999 0.024 2.6530001 0.041999999C2.6760001 0.057 2.691 0.082000002 2.6989999 0.117C2.7060001 0.15000001 2.71 0.19499999 2.71 0.25299999C2.71 0.31099999 2.7060001 0.35600001 2.6989999 0.389C2.691 0.42199999 2.6760001 0.44800001 2.6530001 0.46799999C2.6329999 0.486 2.6059999 0.49700001 2.5699999 0.50199997C2.5369999 0.50700003 2.4949999 0.50999999 2.4419999 0.50999999ZM2.2030001 0.82300001L2.6760001 0.82300001L2.6760001 2.862L2.2030001 2.862L2.2030001 0.82300001ZM5.5489998 0.78500003C5.783 0.78500003 5.9549999 0.84500003 6.0630002 0.963C6.1719999 1.079 6.2259998 1.255 6.2259998 1.492L6.2259998 2.862L5.7529998 2.862L5.7529998 1.597C5.7529998 1.454 5.7290001 1.348 5.6810002 1.28C5.6329999 1.212 5.5450001 1.178 5.4159999 1.178C5.303 1.178 5.2080002 1.201 5.1329999 1.2460001C5.059 1.291 5.0079999 1.374 4.9770002 1.495L4.9770002 2.862L4.5050001 2.862L4.5050001 1.597C4.5050001 1.454 4.4809999 1.348 4.4330001 1.28C4.3870001 1.212 4.302 1.178 4.1750002 1.178C4.0619998 1.178 3.97 1.2 3.8989999 1.242C3.829 1.285 3.777 1.3660001 3.744 1.484L3.744 2.862L3.2709999 2.862L3.2709999 0.82300001L3.744 0.82300001L3.744 1.0650001C3.802 0.96399999 3.8789999 0.89200002 3.9749999 0.85000002C4.0710001 0.80699998 4.1869998 0.78500003 4.323 0.78500003C4.4819999 0.78500003 4.6079998 0.81199998 4.7010002 0.86500001C4.7950001 0.91500002 4.8639998 0.98900002 4.9089999 1.0880001C4.967 0.977 5.053 0.89899999 5.1669998 0.85299999C5.2800002 0.80800003 5.4070001 0.78500003 5.5489998 0.78500003ZM8.5349998 1.665C8.5349998 1.716 8.533 1.765 8.5279999 1.813C8.5249996 1.858 8.5209999 1.898 8.5159998 1.933L7.177 2.02C7.1820002 2.191 7.23 2.3169999 7.3210001 2.398C7.4120002 2.4779999 7.559 2.5190001 7.7639999 2.5190001C7.8239999 2.5190001 7.8860002 2.5150001 7.9489999 2.507C8.0150003 2.5 8.0760002 2.49 8.1339998 2.477C8.1949997 2.4619999 8.25 2.447 8.3009996 2.4319999C8.3509998 2.414 8.3940001 2.3970001 8.4289999 2.3789999L8.4289999 2.7639999C8.3690004 2.799 8.2709999 2.8310001 8.1339998 2.858C7.9980001 2.8859999 7.8470001 2.9000001 7.6799998 2.9000001C7.5240002 2.9000001 7.3850002 2.8840001 7.2639999 2.8510001C7.1430001 2.8180001 7.0409999 2.7620001 6.9580002 2.681C6.875 2.5999999 6.8099999 2.4920001 6.7649999 2.3559999C6.7220001 2.22 6.7010002 2.049 6.7010002 1.8430001C6.7010002 1.636 6.7220001 1.465 6.7649999 1.329C6.8099999 1.193 6.875 1.085 6.9580002 1.0039999C7.0409999 0.92400002 7.1430001 0.86699998 7.2639999 0.83499998C7.3850002 0.80199999 7.5240002 0.78500003 7.6799998 0.78500003C7.8569999 0.78500003 8.0010004 0.80900002 8.1120005 0.85699999C8.2229996 0.90200001 8.3100004 0.96499997 8.3730001 1.046C8.4359999 1.127 8.4790001 1.22 8.5010004 1.325C8.5240002 1.431 8.5349998 1.544 8.5349998 1.665ZM8.0959997 1.6160001C8.0959997 1.553 8.0909996 1.494 8.0810003 1.439C8.0740004 1.381 8.0550003 1.33 8.0249996 1.288C7.994 1.245 7.9510002 1.211 7.8959999 1.186C7.8429999 1.161 7.7709999 1.148 7.6799998 1.148C7.585 1.148 7.5050001 1.159 7.4419999 1.182C7.3790002 1.205 7.329 1.239 7.2909999 1.284C7.2529998 1.329 7.2249999 1.386 7.2069998 1.454C7.1900001 1.5190001 7.1799998 1.596 7.177 1.684L8.0959997 1.6160001ZM10.65 2.428L10.65 2.862L9.0270004 2.862L9.0270004 0.242L10.582 0.242L10.582 0.67199999L9.5229998 0.67199999L9.5229998 1.307L10.506 1.307L10.506 1.7180001L9.5229998 1.7180001L9.5229998 2.428L10.65 2.428Z" transform="translate(79.724, 60.302)" fill="#000000" opacity="0.3"></path><path d="M1.921 0.676L1.207 0.676L1.207 2.862L0.71100003 2.862L0.71100003 0.676L0 0.676L0 0.242L1.921 0.242L1.921 0.676ZM2.441 0.50999999C2.388 0.50999999 2.3440001 0.50700003 2.309 0.50199997C2.276 0.49700001 2.2479999 0.486 2.2260001 0.46799999C2.2049999 0.44800001 2.1919999 0.42199999 2.184 0.389C2.1760001 0.35600001 2.1730001 0.31099999 2.1730001 0.25299999C2.1730001 0.19499999 2.1760001 0.15000001 2.184 0.117C2.1919999 0.082000002 2.2049999 0.057 2.2260001 0.041999999C2.2479999 0.024 2.276 0.013 2.309 0.0080000004C2.3440001 0.003 2.388 0 2.441 0C2.494 0 2.5369999 0.003 2.5699999 0.0080000004C2.605 0.013 2.6329999 0.024 2.6530001 0.041999999C2.6760001 0.057 2.691 0.082000002 2.698 0.117C2.7060001 0.15000001 2.71 0.19499999 2.71 0.25299999C2.71 0.31099999 2.7060001 0.35600001 2.698 0.389C2.691 0.42199999 2.6760001 0.44800001 2.6530001 0.46799999C2.6329999 0.486 2.605 0.49700001 2.5699999 0.50199997C2.5369999 0.50700003 2.494 0.50999999 2.441 0.50999999ZM2.2030001 0.82300001L2.6760001 0.82300001L2.6760001 2.862L2.2030001 2.862L2.2030001 0.82300001ZM5.5479999 0.78500003C5.7820001 0.78500003 5.954 0.84500003 6.0619998 0.963C6.1700001 1.079 6.2249999 1.255 6.2249999 1.492L6.2249999 2.862L5.7519999 2.862L5.7519999 1.597C5.7519999 1.454 5.7280002 1.348 5.6799998 1.28C5.632 1.212 5.5440001 1.178 5.415 1.178C5.302 1.178 5.2069998 1.201 5.132 1.2460001C5.0580001 1.291 5.007 1.374 4.9770002 1.495L4.9770002 2.862L4.5040002 2.862L4.5040002 1.597C4.5040002 1.454 4.48 1.348 4.4320002 1.28C4.3870001 1.212 4.3010001 1.178 4.1750002 1.178C4.0609999 1.178 3.9690001 1.2 3.8989999 1.242C3.8280001 1.285 3.776 1.3660001 3.744 1.484L3.744 2.862L3.2709999 2.862L3.2709999 0.82300001L3.744 0.82300001L3.744 1.0650001C3.802 0.96399999 3.878 0.89200002 3.974 0.85000002C4.0700002 0.80699998 4.1859999 0.78500003 4.322 0.78500003C4.4809999 0.78500003 4.6069999 0.81199998 4.6999998 0.86500001C4.7940001 0.91500002 4.8629999 0.98900002 4.908 1.0880001C4.9660001 0.977 5.052 0.89899999 5.1659999 0.85299999C5.2789998 0.80800003 5.4060001 0.78500003 5.5479999 0.78500003ZM8.5340004 1.665C8.5340004 1.716 8.5310001 1.765 8.526 1.813C8.5240002 1.858 8.5200005 1.898 8.5150003 1.933L7.1760001 2.02C7.1810002 2.191 7.2290001 2.3169999 7.3200002 2.398C7.4099998 2.4779999 7.5580001 2.5190001 7.7620001 2.5190001C7.823 2.5190001 7.8839998 2.5150001 7.948 2.507C8.0129995 2.5 8.0749998 2.49 8.1330004 2.477C8.1929998 2.4619999 8.2489996 2.447 8.2989998 2.4319999C8.3500004 2.414 8.3929996 2.3970001 8.4280005 2.3789999L8.4280005 2.7639999C8.3669996 2.799 8.2690001 2.8310001 8.1330004 2.858C7.9970002 2.8859999 7.8449998 2.9000001 7.6789999 2.9000001C7.5229998 2.9000001 7.3839998 2.8840001 7.263 2.8510001C7.1420002 2.8180001 7.04 2.7620001 6.9569998 2.681C6.8730001 2.5999999 6.809 2.4920001 6.7639999 2.3559999C6.7210002 2.22 6.6989999 2.049 6.6989999 1.8430001C6.6989999 1.636 6.7210002 1.465 6.7639999 1.329C6.809 1.193 6.8730001 1.085 6.9569998 1.0039999C7.04 0.92400002 7.1420002 0.86699998 7.263 0.83499998C7.3839998 0.80199999 7.5229998 0.78500003 7.6789999 0.78500003C7.855 0.78500003 7.9990001 0.80900002 8.1099997 0.85699999C8.2209997 0.90200001 8.3079996 0.96499997 8.3710003 1.046C8.434 1.127 8.4770002 1.22 8.5 1.325C8.5220003 1.431 8.5340004 1.544 8.5340004 1.665ZM8.0950003 1.6160001C8.0950003 1.553 8.0900002 1.494 8.0799999 1.439C8.0719995 1.381 8.0530005 1.33 8.0229998 1.288C7.993 1.245 7.9499998 1.211 7.895 1.186C7.842 1.161 7.77 1.148 7.6789999 1.148C7.5830002 1.148 7.5040002 1.159 7.441 1.182C7.3779998 1.205 7.3270001 1.239 7.289 1.284C7.2519999 1.329 7.224 1.386 7.2059999 1.454C7.1890001 1.5190001 7.178 1.596 7.1760001 1.684L8.0950003 1.6160001ZM9.5209999 0.67199999L9.5209999 1.363L10.504 1.363L10.504 1.794L9.5209999 1.794L9.5209999 2.862L9.0249996 2.862L9.0249996 0.242L10.58 0.242L10.58 0.67199999L9.5209999 0.67199999Z" transform="translate(95.787, 60.302)" fill="#000000" opacity="0.3"></path><path d="M80.671089 -0.45470905C80.611374 -0.43909353 80.555321 -0.41186953 80.506134 -0.37459138L64.917824 11.438381L49.462547 22.976864L33.777348 2.531075L16.301437 25.76L0 25.76C-0.061721176 25.76 -0.12283811 25.772156 -0.17986134 25.795776C-0.23688439 25.819395 -0.2886968 25.854015 -0.33234033 25.897659C-0.37598386 25.941303 -0.41060379 25.993116 -0.43422338 26.050138C-0.4578431 26.107161 -0.47 26.168278 -0.47 26.23C-0.46999994 26.291721 -0.45784304 26.352839 -0.43422332 26.409861C-0.41060343 26.466885 -0.37598351 26.518696 -0.33234021 26.56234C-0.28869668 26.605984 -0.23688421 26.640604 -0.17986128 26.664223C-0.12283823 26.687843 -0.061721295 26.699999 0 26.699999L16.770561 26.699999L33.784649 4.0849257L49.281452 24.285135L65.480171 12.191618L81.073868 0.37459129C81.123062 0.33731329 81.164429 0.29071116 81.19561 0.23744543C81.226791 0.18417989 81.247177 0.12529427 81.2556 0.064150512C81.26403 0.0030068606 81.260323 -0.059197351 81.244713 -0.11891033C81.229095 -0.17862359 81.201874 -0.23467641 81.164589 -0.28386861C81.127312 -0.33306062 81.080711 -0.37442851 81.027443 -0.40561032C80.974182 -0.43679199 80.915298 -0.45717704 80.854149 -0.46560133C80.793007 -0.47402579 80.730804 -0.47032452 80.671089 -0.45470905Z" fill-rule="evenodd" transform="translate(19.893, 17.576)" fill="#a6afc4"></path></g></svg>