<svg xmlns="http://www.w3.org/2000/svg" version="1.1" xmlns:xlink="http://www.w3.org/1999/xlink" fill="none" width="120" height="75.591" viewBox="0 0 120 75.591"><defs><mask id="mask_6:14816"><g transform="matrix(0.9999999999999999,0,0,0.9999999999999999,1.4210854715202004e-14,7.105427357601002e-15)"><path d="M0 0L15.197 0L15.197 5.039L0 5.039L0 0Z" transform="translate(88.583, 63.071)" fill="white"></path></g></mask><mask id="mask_6:14822"><g transform="matrix(0.9999999999999999,0,0,0.9999999999999999,1.4210854715202004e-14,7.105427357601002e-15)"><path d="M0 0L15.197 0L15.197 5.039L0 5.039L0 0Z" transform="translate(88.583, 56.929)" fill="white"></path></g></mask><mask id="mask_6:14828"><g transform="matrix(0.9999999999999999,0,0,0.9999999999999999,1.4210854715202004e-14,7.105427357601002e-15)"><path d="M0 0L15.512 0L15.512 5.039L0 5.039L0 0Z" transform="translate(88.583, 50.787)" fill="white"></path></g></mask></defs><path d="M0 0L120 0L120 75.591003L0 75.591003L0 0Z" fill="#ffffff"></path><path d="M0 27.992001C0 43.452 12.533 55.984001 27.992001 55.984001C43.452 55.984001 55.984001 43.452 55.984001 27.992001C55.984001 12.533 43.452 0 27.992001 0C12.533 0 0 12.533 0 27.992001Z" transform="translate(24.803, 12.283)" fill="#dde1e9"></path><path d="M55.984001 27.992001C55.984001 23.389 54.848999 18.857 52.679001 14.797C50.508999 10.737 47.370998 7.2750001 43.543999 4.7179999C39.716 2.1600001 35.317001 0.58600003 30.736 0.13500001C26.155001 -0.31600001 21.533001 0.36899999 17.280001 2.131C13.027 3.892 9.2740002 6.6760001 6.3540001 10.234C3.434 13.793 1.436 18.016001 0.53799999 22.531C-0.36000001 27.046 -0.131 31.712999 1.205 36.118C2.5420001 40.522999 4.9439998 44.529999 8.1990004 47.785999L27.992001 27.992001L55.984001 27.992001Z" transform="translate(24.803, 12.283)" fill="#a6b0c5"></path><path d="M27.992001 27.992001C27.992001 24.316 27.268 20.676001 25.861 17.280001C24.454 13.884 22.393 10.798 19.792999 8.1990004C17.194 5.599 14.108 3.5380001 10.712 2.131C7.316 0.72399998 3.6760001 0 0 0L0 27.992001L27.992001 27.992001Z" transform="translate(52.795, 12.283)" fill="#6d7a97"></path><path d="M0.26800001 0.50999999C0.215 0.50999999 0.171 0.50800002 0.13600001 0.50300002C0.103 0.498 0.075999998 0.486 0.052999999 0.46900001C0.033 0.449 0.018999999 0.42199999 0.011 0.389C0.0040000002 0.35699999 0 0.31099999 0 0.25299999C0 0.19499999 0.0040000002 0.15000001 0.011 0.117C0.018999999 0.082000002 0.033 0.057 0.052999999 0.041999999C0.075999998 0.024 0.103 0.013 0.13600001 0.0080000004C0.171 0.003 0.215 0 0.26800001 0C0.32100001 0 0.36399999 0.003 0.39700001 0.0080000004C0.43200001 0.013 0.46000001 0.024 0.47999999 0.041999999C0.50300002 0.057 0.51800001 0.082000002 0.52499998 0.117C0.53299999 0.15000001 0.537 0.19499999 0.537 0.25299999C0.537 0.31099999 0.53299999 0.35699999 0.52499998 0.389C0.51800001 0.42199999 0.50300002 0.449 0.47999999 0.46900001C0.46000001 0.486 0.43200001 0.498 0.39700001 0.50300002C0.36399999 0.50800002 0.32100001 0.50999999 0.26800001 0.50999999ZM0.029999999 0.824L0.50300002 0.824L0.50300002 2.865L0.029999999 2.865L0.029999999 0.824ZM1.603 1.202L1.603 2.1849999C1.603 2.25 1.6059999 2.3039999 1.6109999 2.3469999C1.619 2.3900001 1.631 2.424 1.649 2.4489999C1.669 2.474 1.6950001 2.4920001 1.728 2.5020001C1.761 2.51 1.804 2.513 1.857 2.513C1.892 2.513 1.925 2.5120001 1.955 2.51C1.985 2.507 2.0139999 2.5020001 2.0420001 2.494L2.0420001 2.869C2.0020001 2.8740001 1.96 2.8770001 1.9170001 2.8800001C1.874 2.885 1.831 2.888 1.789 2.888C1.668 2.888 1.564 2.8789999 1.479 2.8610001C1.396 2.8410001 1.3279999 2.8069999 1.275 2.7590001C1.224 2.7090001 1.188 2.641 1.165 2.5550001C1.142 2.467 1.131 2.3559999 1.131 2.2219999L1.131 1.202L0.84799999 1.202L0.84799999 0.824L1.131 0.824L1.131 0.34L1.603 0.34L1.603 0.824L2.053 0.824L2.053 1.202L1.603 1.202ZM4.1459999 1.6670001C4.1459999 1.717 4.1430001 1.766 4.138 1.814C4.1350002 1.86 4.132 1.9 4.1269999 1.9349999L2.789 2.0220001C2.7939999 2.1930001 2.842 2.319 2.9319999 2.4000001C3.023 2.4809999 3.1700001 2.5209999 3.3740001 2.5209999C3.4349999 2.5209999 3.497 2.517 3.5599999 2.51C3.625 2.5020001 3.687 2.4920001 3.7449999 2.4790001C3.8050001 2.464 3.8610001 2.4489999 3.911 2.434C3.9619999 2.4159999 4.0040002 2.3989999 4.04 2.381L4.04 2.767C3.9790001 2.802 3.881 2.8329999 3.7449999 2.8610001C3.609 2.8889999 3.4579999 2.9030001 3.2909999 2.9030001C3.135 2.9030001 2.997 2.8859999 2.8759999 2.8540001C2.7550001 2.8210001 2.6530001 2.7639999 2.569 2.6830001C2.4860001 2.6029999 2.4219999 2.494 2.3770001 2.358C2.3340001 2.2219999 2.312 2.0510001 2.312 1.844C2.312 1.638 2.3340001 1.466 2.3770001 1.33C2.4219999 1.194 2.4860001 1.086 2.569 1.005C2.6530001 0.92500001 2.7550001 0.86799997 2.8759999 0.83499998C2.997 0.80299997 3.135 0.78600001 3.2909999 0.78600001C3.4679999 0.78600001 3.6110001 0.81 3.7219999 0.85799998C3.8329999 0.903 3.9200001 0.96600002 3.983 1.0470001C4.046 1.128 4.0890002 1.221 4.1110001 1.327C4.1339998 1.432 4.1459999 1.546 4.1459999 1.6670001ZM3.707 1.618C3.707 1.5549999 3.7019999 1.495 3.6919999 1.4400001C3.684 1.382 3.6659999 1.332 3.635 1.289C3.605 1.2460001 3.562 1.212 3.507 1.187C3.454 1.1619999 3.382 1.149 3.2909999 1.149C3.1960001 1.149 3.1159999 1.16 3.053 1.183C2.99 1.206 2.9400001 1.24 2.902 1.285C2.8640001 1.33 2.8369999 1.387 2.819 1.455C2.8010001 1.521 2.7909999 1.597 2.789 1.686L3.707 1.618ZM6.901 0.78600001C7.1350002 0.78600001 7.3060002 0.84500003 7.415 0.96399999C7.5229998 1.08 7.5770001 1.256 7.5770001 1.493L7.5770001 2.865L7.105 2.865L7.105 1.599C7.105 1.455 7.0809999 1.349 7.033 1.281C6.9850001 1.2130001 6.8969998 1.179 6.7690001 1.179C6.6550002 1.179 6.5609999 1.202 6.4850001 1.247C6.4120002 1.293 6.3600001 1.376 6.3299999 1.497L6.3299999 2.865L5.8579998 2.865L5.8579998 1.599C5.8579998 1.455 5.8340001 1.349 5.7859998 1.281C5.7399998 1.2130001 5.6550002 1.179 5.5289998 1.179C5.415 1.179 5.323 1.201 5.2529998 1.243C5.1820002 1.286 5.131 1.367 5.098 1.485L5.098 2.865L4.6259999 2.865L4.6259999 0.824L5.098 0.824L5.098 1.066C5.1560001 0.96499997 5.2329998 0.89300001 5.329 0.85000002C5.4239998 0.80800003 5.54 0.78600001 5.6760001 0.78600001C5.835 0.78600001 5.961 0.81300002 6.0539999 0.866C6.1469998 0.91600001 6.217 0.99000001 6.2620001 1.089C6.3200002 0.97799999 6.4060001 0.89999998 6.5190001 0.85399997C6.632 0.80900002 6.7600002 0.78600001 6.901 0.78600001ZM9.7410002 2.1689999L8.6450005 2.1689999L8.3959999 2.865L7.8860002 2.865L8.868 0.242L9.5340004 0.242L10.509 2.865L9.9829998 2.865L9.7410002 2.1689999ZM9.5939999 1.7539999L9.2200003 0.68400002L9.1739998 0.68400002L8.7930002 1.7539999L9.5939999 1.7539999Z" transform="translate(59.08, 27.608)" fill="#ffffff"></path><path d="M0.26800001 0.50999999C0.215 0.50999999 0.171 0.50800002 0.13600001 0.50300002C0.103 0.498 0.075999998 0.486 0.052999999 0.46900001C0.033 0.449 0.018999999 0.42199999 0.011 0.389C0.0040000002 0.35699999 0 0.31099999 0 0.25299999C0 0.19499999 0.0040000002 0.15000001 0.011 0.117C0.018999999 0.082000002 0.033 0.057 0.052999999 0.041999999C0.075999998 0.024 0.103 0.013 0.13600001 0.0080000004C0.171 0.003 0.215 0 0.26800001 0C0.32100001 0 0.36399999 0.003 0.39700001 0.0080000004C0.43200001 0.013 0.46000001 0.024 0.47999999 0.041999999C0.50300002 0.057 0.51800001 0.082000002 0.52499998 0.117C0.53299999 0.15000001 0.537 0.19499999 0.537 0.25299999C0.537 0.31099999 0.53299999 0.35699999 0.52499998 0.389C0.51800001 0.42199999 0.50300002 0.449 0.47999999 0.46900001C0.46000001 0.486 0.43200001 0.498 0.39700001 0.50300002C0.36399999 0.50800002 0.32100001 0.50999999 0.26800001 0.50999999ZM0.029999999 0.824L0.50300002 0.824L0.50300002 2.865L0.029999999 2.865L0.029999999 0.824ZM1.603 1.202L1.603 2.1849999C1.603 2.25 1.6059999 2.3039999 1.6109999 2.3469999C1.619 2.3900001 1.631 2.424 1.649 2.4489999C1.669 2.474 1.6950001 2.4920001 1.728 2.5020001C1.761 2.51 1.804 2.513 1.857 2.513C1.892 2.513 1.925 2.5120001 1.955 2.51C1.985 2.507 2.0139999 2.5020001 2.0420001 2.494L2.0420001 2.869C2.0020001 2.8740001 1.96 2.8770001 1.9170001 2.8800001C1.874 2.885 1.831 2.888 1.789 2.888C1.668 2.888 1.564 2.8789999 1.479 2.8610001C1.396 2.8410001 1.3279999 2.8069999 1.275 2.7590001C1.224 2.7090001 1.188 2.641 1.165 2.5550001C1.142 2.467 1.131 2.3559999 1.131 2.2219999L1.131 1.202L0.84799999 1.202L0.84799999 0.824L1.131 0.824L1.131 0.34L1.603 0.34L1.603 0.824L2.053 0.824L2.053 1.202L1.603 1.202ZM4.1459999 1.6670001C4.1459999 1.717 4.1430001 1.766 4.138 1.814C4.1350002 1.86 4.132 1.9 4.1269999 1.9349999L2.789 2.0220001C2.7939999 2.1930001 2.842 2.319 2.9319999 2.4000001C3.023 2.4809999 3.1700001 2.5209999 3.3740001 2.5209999C3.4349999 2.5209999 3.497 2.517 3.5599999 2.51C3.625 2.5020001 3.687 2.4920001 3.7449999 2.4790001C3.8050001 2.464 3.8610001 2.4489999 3.911 2.434C3.9619999 2.4159999 4.0040002 2.3989999 4.04 2.381L4.04 2.767C3.9790001 2.802 3.881 2.8329999 3.7449999 2.8610001C3.609 2.8889999 3.4579999 2.9030001 3.2909999 2.9030001C3.135 2.9030001 2.997 2.8859999 2.8759999 2.8540001C2.7550001 2.8210001 2.6530001 2.7639999 2.569 2.6830001C2.4860001 2.6029999 2.4219999 2.494 2.3770001 2.358C2.3340001 2.2219999 2.312 2.0510001 2.312 1.844C2.312 1.638 2.3340001 1.466 2.3770001 1.33C2.4219999 1.194 2.4860001 1.086 2.569 1.005C2.6530001 0.92500001 2.7550001 0.86799997 2.8759999 0.83499998C2.997 0.80299997 3.135 0.78600001 3.2909999 0.78600001C3.4679999 0.78600001 3.6110001 0.81 3.7219999 0.85799998C3.8329999 0.903 3.9200001 0.96600002 3.983 1.0470001C4.046 1.128 4.0890002 1.221 4.1110001 1.327C4.1339998 1.432 4.1459999 1.546 4.1459999 1.6670001ZM3.707 1.618C3.707 1.5549999 3.7019999 1.495 3.6919999 1.4400001C3.684 1.382 3.6659999 1.332 3.635 1.289C3.605 1.2460001 3.562 1.212 3.507 1.187C3.454 1.1619999 3.382 1.149 3.2909999 1.149C3.1960001 1.149 3.1159999 1.16 3.053 1.183C2.99 1.206 2.9400001 1.24 2.902 1.285C2.8640001 1.33 2.8369999 1.387 2.819 1.455C2.8010001 1.521 2.7909999 1.597 2.789 1.686L3.707 1.618ZM6.901 0.78600001C7.1350002 0.78600001 7.3060002 0.84500003 7.415 0.96399999C7.5229998 1.08 7.5770001 1.256 7.5770001 1.493L7.5770001 2.865L7.105 2.865L7.105 1.599C7.105 1.455 7.0809999 1.349 7.033 1.281C6.9850001 1.2130001 6.8969998 1.179 6.7690001 1.179C6.6550002 1.179 6.5609999 1.202 6.4850001 1.247C6.4120002 1.293 6.3600001 1.376 6.3299999 1.497L6.3299999 2.865L5.8579998 2.865L5.8579998 1.599C5.8579998 1.455 5.8340001 1.349 5.7859998 1.281C5.7399998 1.2130001 5.6550002 1.179 5.5289998 1.179C5.415 1.179 5.323 1.201 5.2529998 1.243C5.1820002 1.286 5.131 1.367 5.098 1.485L5.098 2.865L4.6259999 2.865L4.6259999 0.824L5.098 0.824L5.098 1.066C5.1560001 0.96499997 5.2329998 0.89300001 5.329 0.85000002C5.4239998 0.80800003 5.54 0.78600001 5.6760001 0.78600001C5.835 0.78600001 5.961 0.81300002 6.0539999 0.866C6.1469998 0.91600001 6.217 0.99000001 6.2620001 1.089C6.3200002 0.97799999 6.4060001 0.89999998 6.5190001 0.85399997C6.632 0.80900002 6.7600002 0.78600001 6.901 0.78600001ZM8.1730003 0.242L9.0159998 0.242C9.1999998 0.242 9.3520002 0.257 9.4729996 0.287C9.5970001 0.315 9.6940002 0.35800001 9.7639999 0.41600001C9.8369999 0.47400001 9.8879995 0.54699999 9.915 0.63499999C9.9460001 0.72299999 9.9610004 0.82599998 9.9610004 0.94499999C9.9610004 1.081 9.9320002 1.196 9.8739996 1.289C9.8179998 1.38 9.7200003 1.446 9.5790005 1.489L9.5790005 1.5039999C9.743 1.5420001 9.8599997 1.613 9.9300003 1.716C10.003 1.817 10.04 1.948 10.04 2.109C10.04 2.227 10.025 2.3340001 9.9949999 2.4300001C9.967 2.523 9.9169998 2.6029999 9.8430004 2.668C9.7700005 2.7309999 9.6719999 2.78 9.5489998 2.816C9.4280005 2.849 9.2749996 2.865 9.0909996 2.865L8.1730003 2.865L8.1730003 0.242ZM8.8830004 1.346C8.9870005 1.346 9.0749998 1.34 9.1479998 1.33C9.224 1.3200001 9.2849998 1.303 9.3330002 1.277C9.3809996 1.25 9.4160004 1.2130001 9.4390001 1.168C9.4619999 1.123 9.4729996 1.063 9.4729996 0.99000001C9.4729996 0.912 9.4619999 0.85000002 9.4390001 0.80500001C9.4160004 0.75999999 9.3809996 0.72600001 9.3330002 0.70300001C9.2880001 0.67799997 9.2270002 0.66100001 9.1520004 0.65399998C9.0790005 0.64600003 8.9890003 0.64300001 8.8830004 0.64300001L8.6680002 0.64300001L8.6680002 1.346L8.8830004 1.346ZM8.9630003 2.46C9.0760002 2.46 9.1689997 2.4549999 9.243 2.4449999C9.3179998 2.4349999 9.3769999 2.4159999 9.4200001 2.3889999C9.4659996 2.358 9.4969997 2.319 9.5150003 2.2709999C9.5319996 2.224 9.5410004 2.1619999 9.5410004 2.086C9.5410004 2.0179999 9.5319996 1.96 9.5150003 1.9119999C9.4969997 1.865 9.4659996 1.827 9.4200001 1.799C9.3769999 1.7690001 9.3179998 1.747 9.243 1.735C9.1689997 1.72 9.0760002 1.712 8.9630003 1.712L8.6680002 1.712L8.6680002 2.46L8.9630003 2.46Z" transform="translate(33.568, 33.513)" fill="#ffffff"></path><path d="M0.26800001 0.50999999C0.215 0.50999999 0.171 0.50800002 0.13600001 0.50300002C0.103 0.498 0.075999998 0.486 0.052999999 0.46900001C0.033 0.449 0.018999999 0.42199999 0.011 0.389C0.0040000002 0.35699999 0 0.31099999 0 0.25299999C0 0.19499999 0.0040000002 0.15000001 0.011 0.117C0.018999999 0.082000002 0.033 0.057 0.052999999 0.041999999C0.075999998 0.024 0.103 0.013 0.13600001 0.0080000004C0.171 0.003 0.215 0 0.26800001 0C0.32100001 0 0.36399999 0.003 0.39700001 0.0080000004C0.43200001 0.013 0.46000001 0.024 0.47999999 0.041999999C0.50300002 0.057 0.51800001 0.082000002 0.52499998 0.117C0.53299999 0.15000001 0.537 0.19499999 0.537 0.25299999C0.537 0.31099999 0.53299999 0.35699999 0.52499998 0.389C0.51800001 0.42199999 0.50300002 0.449 0.47999999 0.46900001C0.46000001 0.486 0.43200001 0.498 0.39700001 0.50300002C0.36399999 0.50800002 0.32100001 0.50999999 0.26800001 0.50999999ZM0.029999999 0.824L0.50300002 0.824L0.50300002 2.865L0.029999999 2.865L0.029999999 0.824ZM1.603 1.202L1.603 2.1849999C1.603 2.25 1.6059999 2.3039999 1.6109999 2.3469999C1.619 2.3900001 1.631 2.424 1.649 2.4489999C1.669 2.474 1.6950001 2.4920001 1.728 2.5020001C1.761 2.51 1.804 2.513 1.857 2.513C1.892 2.513 1.925 2.5120001 1.955 2.51C1.985 2.507 2.0139999 2.5020001 2.0420001 2.494L2.0420001 2.869C2.0020001 2.8740001 1.96 2.8770001 1.9170001 2.8800001C1.874 2.885 1.831 2.888 1.789 2.888C1.668 2.888 1.564 2.8789999 1.479 2.8610001C1.396 2.8410001 1.3279999 2.8069999 1.275 2.7590001C1.224 2.7090001 1.188 2.641 1.165 2.5550001C1.142 2.467 1.131 2.3559999 1.131 2.2219999L1.131 1.202L0.84799999 1.202L0.84799999 0.824L1.131 0.824L1.131 0.34L1.603 0.34L1.603 0.824L2.053 0.824L2.053 1.202L1.603 1.202ZM4.1459999 1.6670001C4.1459999 1.717 4.1430001 1.766 4.138 1.814C4.1350002 1.86 4.132 1.9 4.1269999 1.9349999L2.789 2.0220001C2.7939999 2.1930001 2.842 2.319 2.9319999 2.4000001C3.023 2.4809999 3.1700001 2.5209999 3.3740001 2.5209999C3.4349999 2.5209999 3.497 2.517 3.5599999 2.51C3.625 2.5020001 3.687 2.4920001 3.7449999 2.4790001C3.8050001 2.464 3.8610001 2.4489999 3.911 2.434C3.9619999 2.4159999 4.0040002 2.3989999 4.04 2.381L4.04 2.767C3.9790001 2.802 3.881 2.8329999 3.7449999 2.8610001C3.609 2.8889999 3.4579999 2.9030001 3.2909999 2.9030001C3.135 2.9030001 2.997 2.8859999 2.8759999 2.8540001C2.7550001 2.8210001 2.6530001 2.7639999 2.569 2.6830001C2.4860001 2.6029999 2.4219999 2.494 2.3770001 2.358C2.3340001 2.2219999 2.312 2.0510001 2.312 1.844C2.312 1.638 2.3340001 1.466 2.3770001 1.33C2.4219999 1.194 2.4860001 1.086 2.569 1.005C2.6530001 0.92500001 2.7550001 0.86799997 2.8759999 0.83499998C2.997 0.80299997 3.135 0.78600001 3.2909999 0.78600001C3.4679999 0.78600001 3.6110001 0.81 3.7219999 0.85799998C3.8329999 0.903 3.9200001 0.96600002 3.983 1.0470001C4.046 1.128 4.0890002 1.221 4.1110001 1.327C4.1339998 1.432 4.1459999 1.546 4.1459999 1.6670001ZM3.707 1.618C3.707 1.5549999 3.7019999 1.495 3.6919999 1.4400001C3.684 1.382 3.6659999 1.332 3.635 1.289C3.605 1.2460001 3.562 1.212 3.507 1.187C3.454 1.1619999 3.382 1.149 3.2909999 1.149C3.1960001 1.149 3.1159999 1.16 3.053 1.183C2.99 1.206 2.9400001 1.24 2.902 1.285C2.8640001 1.33 2.8369999 1.387 2.819 1.455C2.8010001 1.521 2.7909999 1.597 2.789 1.686L3.707 1.618ZM6.901 0.78600001C7.1350002 0.78600001 7.3060002 0.84500003 7.415 0.96399999C7.5229998 1.08 7.5770001 1.256 7.5770001 1.493L7.5770001 2.865L7.105 2.865L7.105 1.599C7.105 1.455 7.0809999 1.349 7.033 1.281C6.9850001 1.2130001 6.8969998 1.179 6.7690001 1.179C6.6550002 1.179 6.5609999 1.202 6.4850001 1.247C6.4120002 1.293 6.3600001 1.376 6.3299999 1.497L6.3299999 2.865L5.8579998 2.865L5.8579998 1.599C5.8579998 1.455 5.8340001 1.349 5.7859998 1.281C5.7399998 1.2130001 5.6550002 1.179 5.5289998 1.179C5.415 1.179 5.323 1.201 5.2529998 1.243C5.1820002 1.286 5.131 1.367 5.098 1.485L5.098 2.865L4.6259999 2.865L4.6259999 0.824L5.098 0.824L5.098 1.066C5.1560001 0.96499997 5.2329998 0.89300001 5.329 0.85000002C5.4239998 0.80800003 5.54 0.78600001 5.6760001 0.78600001C5.835 0.78600001 5.961 0.81300002 6.0539999 0.866C6.1469998 0.91600001 6.217 0.99000001 6.2620001 1.089C6.3200002 0.97799999 6.4060001 0.89999998 6.5190001 0.85399997C6.632 0.80900002 6.7600002 0.78600001 6.901 0.78600001ZM9.3450003 2.9030001C9.1560001 2.9030001 8.9840002 2.8840001 8.8310003 2.846C8.6789999 2.8080001 8.5500002 2.74 8.441 2.642C8.3330002 2.5409999 8.2489996 2.404 8.1879997 2.23C8.1300001 2.0539999 8.1009998 1.8279999 8.1009998 1.553C8.1009998 1.301 8.1300001 1.09 8.1879997 0.91799998C8.2489996 0.745 8.3330002 0.60500002 8.441 0.49900001C8.5500002 0.39300001 8.6809998 0.317 8.8339996 0.27200001C8.9879999 0.227 9.1610003 0.204 9.3520002 0.204C9.4779997 0.204 9.5889997 0.212 9.6850004 0.227C9.783 0.23899999 9.8719997 0.25999999 9.9530001 0.287L9.9530001 0.722C9.8719997 0.69400001 9.7860003 0.67299998 9.6920004 0.65799999C9.599 0.63999999 9.4960003 0.63099998 9.382 0.63099998C9.2539997 0.63099998 9.1420002 0.64600003 9.0459995 0.67699999C8.9530001 0.70700002 8.875 0.75800002 8.8120003 0.83099997C8.7510004 0.90200001 8.7060003 0.99699998 8.6759996 1.115C8.6450005 1.2309999 8.6300001 1.376 8.6300001 1.55C8.6300001 1.734 8.6440001 1.885 8.6719999 2.003C8.7019997 2.122 8.7469997 2.2160001 8.8079996 2.2869999C8.868 2.355 8.9440002 2.4030001 9.0349998 2.4300001C9.1280003 2.4549999 9.2370005 2.4679999 9.3629999 2.4679999C9.4790001 2.4679999 9.5860004 2.46 9.6850004 2.4449999C9.783 2.428 9.8830004 2.401 9.9829998 2.3659999L9.9829998 2.793C9.9049997 2.823 9.8109999 2.849 9.6999998 2.869C9.5909996 2.891 9.4729996 2.9030001 9.3450003 2.9030001Z" transform="translate(53.647, 51.466)" fill="#6d7a97"></path><g mask="url(#mask_6:14816)"></g><path d="M0 1.4170001C0 2.2 0.63499999 2.835 1.4170001 2.835C2.2 2.835 2.835 2.2 2.835 1.4170001C2.835 0.63499999 2.2 0 1.4170001 0C0.63499999 0 0 0.63499999 0 1.4170001Z" transform="translate(88.583, 64.17399999999999)" fill="#dde0e9"></path><path d="M0.26800001 0.50999999C0.215 0.50999999 0.171 0.50800002 0.13600001 0.50300002C0.103 0.498 0.075999998 0.486 0.052999999 0.46900001C0.033 0.449 0.018999999 0.42199999 0.011 0.389C0.0040000002 0.35699999 0 0.31099999 0 0.25299999C0 0.19499999 0.0040000002 0.15000001 0.011 0.117C0.018999999 0.082000002 0.033 0.057 0.052999999 0.041999999C0.075999998 0.024 0.103 0.013 0.13600001 0.0080000004C0.171 0.003 0.215 0 0.26800001 0C0.32100001 0 0.36399999 0.003 0.39700001 0.0080000004C0.43200001 0.013 0.46000001 0.024 0.47999999 0.041999999C0.50300002 0.057 0.51800001 0.082000002 0.52499998 0.117C0.53299999 0.15000001 0.537 0.19499999 0.537 0.25299999C0.537 0.31099999 0.53299999 0.35699999 0.52499998 0.389C0.51800001 0.42199999 0.50300002 0.449 0.47999999 0.46900001C0.46000001 0.486 0.43200001 0.498 0.39700001 0.50300002C0.36399999 0.50800002 0.32100001 0.50999999 0.26800001 0.50999999ZM0.029999999 0.824L0.50300002 0.824L0.50300002 2.865L0.029999999 2.865L0.029999999 0.824ZM1.603 1.202L1.603 2.1849999C1.603 2.25 1.6059999 2.3039999 1.6109999 2.3469999C1.619 2.3900001 1.631 2.424 1.649 2.4489999C1.669 2.474 1.6950001 2.4920001 1.728 2.5020001C1.761 2.51 1.804 2.513 1.857 2.513C1.892 2.513 1.925 2.5120001 1.955 2.51C1.985 2.507 2.0139999 2.5020001 2.0420001 2.494L2.0420001 2.869C2.0020001 2.8740001 1.96 2.8770001 1.9170001 2.8800001C1.874 2.885 1.831 2.888 1.789 2.888C1.668 2.888 1.564 2.8789999 1.479 2.8610001C1.396 2.8410001 1.3279999 2.8069999 1.275 2.7590001C1.224 2.7090001 1.188 2.641 1.165 2.5550001C1.142 2.467 1.131 2.3559999 1.131 2.2219999L1.131 1.202L0.84799999 1.202L0.84799999 0.824L1.131 0.824L1.131 0.34L1.603 0.34L1.603 0.824L2.053 0.824L2.053 1.202L1.603 1.202ZM4.1459999 1.6670001C4.1459999 1.717 4.1430001 1.766 4.138 1.814C4.1350002 1.86 4.132 1.9 4.1269999 1.9349999L2.789 2.0220001C2.7939999 2.1930001 2.842 2.319 2.9319999 2.4000001C3.023 2.4809999 3.1700001 2.5209999 3.3740001 2.5209999C3.4349999 2.5209999 3.497 2.517 3.5599999 2.51C3.625 2.5020001 3.687 2.4920001 3.7449999 2.4790001C3.8050001 2.464 3.8610001 2.4489999 3.911 2.434C3.9619999 2.4159999 4.0040002 2.3989999 4.04 2.381L4.04 2.767C3.9790001 2.802 3.881 2.8329999 3.7449999 2.8610001C3.609 2.8889999 3.4579999 2.9030001 3.2909999 2.9030001C3.135 2.9030001 2.997 2.8859999 2.8759999 2.8540001C2.7550001 2.8210001 2.6530001 2.7639999 2.569 2.6830001C2.4860001 2.6029999 2.4219999 2.494 2.3770001 2.358C2.3340001 2.2219999 2.312 2.0510001 2.312 1.844C2.312 1.638 2.3340001 1.466 2.3770001 1.33C2.4219999 1.194 2.4860001 1.086 2.569 1.005C2.6530001 0.92500001 2.7550001 0.86799997 2.8759999 0.83499998C2.997 0.80299997 3.135 0.78600001 3.2909999 0.78600001C3.4679999 0.78600001 3.6110001 0.81 3.7219999 0.85799998C3.8329999 0.903 3.9200001 0.96600002 3.983 1.0470001C4.046 1.128 4.0890002 1.221 4.1110001 1.327C4.1339998 1.432 4.1459999 1.546 4.1459999 1.6670001ZM3.707 1.618C3.707 1.5549999 3.7019999 1.495 3.6919999 1.4400001C3.684 1.382 3.6659999 1.332 3.635 1.289C3.605 1.2460001 3.562 1.212 3.507 1.187C3.454 1.1619999 3.382 1.149 3.2909999 1.149C3.1960001 1.149 3.1159999 1.16 3.053 1.183C2.99 1.206 2.9400001 1.24 2.902 1.285C2.8640001 1.33 2.8369999 1.387 2.819 1.455C2.8010001 1.521 2.7909999 1.597 2.789 1.686L3.707 1.618ZM6.901 0.78600001C7.1350002 0.78600001 7.3060002 0.84500003 7.415 0.96399999C7.5229998 1.08 7.5770001 1.256 7.5770001 1.493L7.5770001 2.865L7.105 2.865L7.105 1.599C7.105 1.455 7.0809999 1.349 7.033 1.281C6.9850001 1.2130001 6.8969998 1.179 6.7690001 1.179C6.6550002 1.179 6.5609999 1.202 6.4850001 1.247C6.4120002 1.293 6.3600001 1.376 6.3299999 1.497L6.3299999 2.865L5.8579998 2.865L5.8579998 1.599C5.8579998 1.455 5.8340001 1.349 5.7859998 1.281C5.7399998 1.2130001 5.6550002 1.179 5.5289998 1.179C5.415 1.179 5.323 1.201 5.2529998 1.243C5.1820002 1.286 5.131 1.367 5.098 1.485L5.098 2.865L4.6259999 2.865L4.6259999 0.824L5.098 0.824L5.098 1.066C5.1560001 0.96499997 5.2329998 0.89300001 5.329 0.85000002C5.4239998 0.80800003 5.54 0.78600001 5.6760001 0.78600001C5.835 0.78600001 5.961 0.81300002 6.0539999 0.866C6.1469998 0.91600001 6.217 0.99000001 6.2620001 1.089C6.3200002 0.97799999 6.4060001 0.89999998 6.5190001 0.85399997C6.632 0.80900002 6.7600002 0.78600001 6.901 0.78600001ZM9.3450003 2.9030001C9.1560001 2.9030001 8.9840002 2.8840001 8.8310003 2.846C8.6789999 2.8080001 8.5500002 2.74 8.441 2.642C8.3330002 2.5409999 8.2489996 2.404 8.1879997 2.23C8.1300001 2.0539999 8.1009998 1.8279999 8.1009998 1.553C8.1009998 1.301 8.1300001 1.09 8.1879997 0.91799998C8.2489996 0.745 8.3330002 0.60500002 8.441 0.49900001C8.5500002 0.39300001 8.6809998 0.317 8.8339996 0.27200001C8.9879999 0.227 9.1610003 0.204 9.3520002 0.204C9.4779997 0.204 9.5889997 0.212 9.6850004 0.227C9.783 0.23899999 9.8719997 0.25999999 9.9530001 0.287L9.9530001 0.722C9.8719997 0.69400001 9.7860003 0.67299998 9.6920004 0.65799999C9.599 0.63999999 9.4960003 0.63099998 9.382 0.63099998C9.2539997 0.63099998 9.1420002 0.64600003 9.0459995 0.67699999C8.9530001 0.70700002 8.875 0.75800002 8.8120003 0.83099997C8.7510004 0.90200001 8.7060003 0.99699998 8.6759996 1.115C8.6450005 1.2309999 8.6300001 1.376 8.6300001 1.55C8.6300001 1.734 8.6440001 1.885 8.6719999 2.003C8.7019997 2.122 8.7469997 2.2160001 8.8079996 2.2869999C8.868 2.355 8.9440002 2.4030001 9.0349998 2.4300001C9.1280003 2.4549999 9.2370005 2.4679999 9.3629999 2.4679999C9.4790001 2.4679999 9.5860004 2.46 9.6850004 2.4449999C9.783 2.428 9.8830004 2.401 9.9829998 2.3659999L9.9829998 2.793C9.9049997 2.823 9.8109999 2.849 9.6999998 2.869C9.5909996 2.891 9.4729996 2.9030001 9.3450003 2.9030001Z" transform="translate(93.332, 63.986)" fill="#6d7a97"></path><g mask="url(#mask_6:14822)"></g><path d="M0 1.4170001C0 2.2 0.63499999 2.835 1.4170001 2.835C2.2 2.835 2.835 2.2 2.835 1.4170001C2.835 0.63499999 2.2 0 1.4170001 0C0.63499999 0 0 0.63499999 0 1.4170001Z" transform="translate(88.583, 58.032000000000004)" fill="#a6afc4"></path><path d="M0.26800001 0.50999999C0.215 0.50999999 0.171 0.50800002 0.13600001 0.50300002C0.103 0.498 0.075999998 0.486 0.052999999 0.46900001C0.033 0.449 0.018999999 0.42199999 0.011 0.389C0.0040000002 0.35699999 0 0.31099999 0 0.25299999C0 0.19499999 0.0040000002 0.15000001 0.011 0.117C0.018999999 0.082000002 0.033 0.057 0.052999999 0.041999999C0.075999998 0.024 0.103 0.013 0.13600001 0.0080000004C0.171 0.003 0.215 0 0.26800001 0C0.32100001 0 0.36399999 0.003 0.39700001 0.0080000004C0.43200001 0.013 0.46000001 0.024 0.47999999 0.041999999C0.50300002 0.057 0.51800001 0.082000002 0.52499998 0.117C0.53299999 0.15000001 0.537 0.19499999 0.537 0.25299999C0.537 0.31099999 0.53299999 0.35699999 0.52499998 0.389C0.51800001 0.42199999 0.50300002 0.449 0.47999999 0.46900001C0.46000001 0.486 0.43200001 0.498 0.39700001 0.50300002C0.36399999 0.50800002 0.32100001 0.50999999 0.26800001 0.50999999ZM0.029999999 0.824L0.50300002 0.824L0.50300002 2.865L0.029999999 2.865L0.029999999 0.824ZM1.603 1.202L1.603 2.1849999C1.603 2.25 1.6059999 2.3039999 1.6109999 2.3469999C1.619 2.3900001 1.631 2.424 1.649 2.4489999C1.669 2.474 1.6950001 2.4920001 1.728 2.5020001C1.761 2.51 1.804 2.513 1.857 2.513C1.892 2.513 1.925 2.5120001 1.955 2.51C1.985 2.507 2.0139999 2.5020001 2.0420001 2.494L2.0420001 2.869C2.0020001 2.8740001 1.96 2.8770001 1.9170001 2.8800001C1.874 2.885 1.831 2.888 1.789 2.888C1.668 2.888 1.564 2.8789999 1.479 2.8610001C1.396 2.8410001 1.3279999 2.8069999 1.275 2.7590001C1.224 2.7090001 1.188 2.641 1.165 2.5550001C1.142 2.467 1.131 2.3559999 1.131 2.2219999L1.131 1.202L0.84799999 1.202L0.84799999 0.824L1.131 0.824L1.131 0.34L1.603 0.34L1.603 0.824L2.053 0.824L2.053 1.202L1.603 1.202ZM4.1459999 1.6670001C4.1459999 1.717 4.1430001 1.766 4.138 1.814C4.1350002 1.86 4.132 1.9 4.1269999 1.9349999L2.789 2.0220001C2.7939999 2.1930001 2.842 2.319 2.9319999 2.4000001C3.023 2.4809999 3.1700001 2.5209999 3.3740001 2.5209999C3.4349999 2.5209999 3.497 2.517 3.5599999 2.51C3.625 2.5020001 3.687 2.4920001 3.7449999 2.4790001C3.8050001 2.464 3.8610001 2.4489999 3.911 2.434C3.9619999 2.4159999 4.0040002 2.3989999 4.04 2.381L4.04 2.767C3.9790001 2.802 3.881 2.8329999 3.7449999 2.8610001C3.609 2.8889999 3.4579999 2.9030001 3.2909999 2.9030001C3.135 2.9030001 2.997 2.8859999 2.8759999 2.8540001C2.7550001 2.8210001 2.6530001 2.7639999 2.569 2.6830001C2.4860001 2.6029999 2.4219999 2.494 2.3770001 2.358C2.3340001 2.2219999 2.312 2.0510001 2.312 1.844C2.312 1.638 2.3340001 1.466 2.3770001 1.33C2.4219999 1.194 2.4860001 1.086 2.569 1.005C2.6530001 0.92500001 2.7550001 0.86799997 2.8759999 0.83499998C2.997 0.80299997 3.135 0.78600001 3.2909999 0.78600001C3.4679999 0.78600001 3.6110001 0.81 3.7219999 0.85799998C3.8329999 0.903 3.9200001 0.96600002 3.983 1.0470001C4.046 1.128 4.0890002 1.221 4.1110001 1.327C4.1339998 1.432 4.1459999 1.546 4.1459999 1.6670001ZM3.707 1.618C3.707 1.5549999 3.7019999 1.495 3.6919999 1.4400001C3.684 1.382 3.6659999 1.332 3.635 1.289C3.605 1.2460001 3.562 1.212 3.507 1.187C3.454 1.1619999 3.382 1.149 3.2909999 1.149C3.1960001 1.149 3.1159999 1.16 3.053 1.183C2.99 1.206 2.9400001 1.24 2.902 1.285C2.8640001 1.33 2.8369999 1.387 2.819 1.455C2.8010001 1.521 2.7909999 1.597 2.789 1.686L3.707 1.618ZM6.901 0.78600001C7.1350002 0.78600001 7.3060002 0.84500003 7.415 0.96399999C7.5229998 1.08 7.5770001 1.256 7.5770001 1.493L7.5770001 2.865L7.105 2.865L7.105 1.599C7.105 1.455 7.0809999 1.349 7.033 1.281C6.9850001 1.2130001 6.8969998 1.179 6.7690001 1.179C6.6550002 1.179 6.5609999 1.202 6.4850001 1.247C6.4120002 1.293 6.3600001 1.376 6.3299999 1.497L6.3299999 2.865L5.8579998 2.865L5.8579998 1.599C5.8579998 1.455 5.8340001 1.349 5.7859998 1.281C5.7399998 1.2130001 5.6550002 1.179 5.5289998 1.179C5.415 1.179 5.323 1.201 5.2529998 1.243C5.1820002 1.286 5.131 1.367 5.098 1.485L5.098 2.865L4.6259999 2.865L4.6259999 0.824L5.098 0.824L5.098 1.066C5.1560001 0.96499997 5.2329998 0.89300001 5.329 0.85000002C5.4239998 0.80800003 5.54 0.78600001 5.6760001 0.78600001C5.835 0.78600001 5.961 0.81300002 6.0539999 0.866C6.1469998 0.91600001 6.217 0.99000001 6.2620001 1.089C6.3200002 0.97799999 6.4060001 0.89999998 6.5190001 0.85399997C6.632 0.80900002 6.7600002 0.78600001 6.901 0.78600001ZM8.1730003 0.242L9.0159998 0.242C9.1999998 0.242 9.3520002 0.257 9.4729996 0.287C9.5970001 0.315 9.6940002 0.35800001 9.7639999 0.41600001C9.8369999 0.47400001 9.8879995 0.54699999 9.915 0.63499999C9.9460001 0.72299999 9.9610004 0.82599998 9.9610004 0.94499999C9.9610004 1.081 9.9320002 1.196 9.8739996 1.289C9.8179998 1.38 9.7200003 1.446 9.5790005 1.489L9.5790005 1.5039999C9.743 1.5420001 9.8599997 1.613 9.9300003 1.716C10.003 1.817 10.04 1.948 10.04 2.109C10.04 2.227 10.025 2.3340001 9.9949999 2.4300001C9.967 2.523 9.9169998 2.6029999 9.8430004 2.668C9.7700005 2.7309999 9.6719999 2.78 9.5489998 2.816C9.4280005 2.849 9.2749996 2.865 9.0909996 2.865L8.1730003 2.865L8.1730003 0.242ZM8.8830004 1.346C8.9870005 1.346 9.0749998 1.34 9.1479998 1.33C9.224 1.3200001 9.2849998 1.303 9.3330002 1.277C9.3809996 1.25 9.4160004 1.2130001 9.4390001 1.168C9.4619999 1.123 9.4729996 1.063 9.4729996 0.99000001C9.4729996 0.912 9.4619999 0.85000002 9.4390001 0.80500001C9.4160004 0.75999999 9.3809996 0.72600001 9.3330002 0.70300001C9.2880001 0.67799997 9.2270002 0.66100001 9.1520004 0.65399998C9.0790005 0.64600003 8.9890003 0.64300001 8.8830004 0.64300001L8.6680002 0.64300001L8.6680002 1.346L8.8830004 1.346ZM8.9630003 2.46C9.0760002 2.46 9.1689997 2.4549999 9.243 2.4449999C9.3179998 2.4349999 9.3769999 2.4159999 9.4200001 2.3889999C9.4659996 2.358 9.4969997 2.319 9.5150003 2.2709999C9.5319996 2.224 9.5410004 2.1619999 9.5410004 2.086C9.5410004 2.0179999 9.5319996 1.96 9.5150003 1.9119999C9.4969997 1.865 9.4659996 1.827 9.4200001 1.799C9.3769999 1.7690001 9.3179998 1.747 9.243 1.735C9.1689997 1.72 9.0760002 1.712 8.9630003 1.712L8.6680002 1.712L8.6680002 2.46L8.9630003 2.46Z" transform="translate(93.332, 57.844)" fill="#6d7a97"></path><g mask="url(#mask_6:14828)"></g><path d="M0 1.4170001C0 2.2 0.63499999 2.835 1.4170001 2.835C2.2 2.835 2.835 2.2 2.835 1.4170001C2.835 0.63499999 2.2 0 1.4170001 0C0.63499999 0 0 0.63499999 0 1.4170001Z" transform="translate(88.583, 51.89)" fill="#6d7a97"></path><path d="M0.26800001 0.50999999C0.215 0.50999999 0.171 0.50800002 0.13600001 0.50300002C0.103 0.498 0.075999998 0.486 0.052999999 0.46900001C0.033 0.449 0.018999999 0.42199999 0.011 0.389C0.0040000002 0.35699999 0 0.31099999 0 0.25299999C0 0.19499999 0.0040000002 0.15000001 0.011 0.117C0.018999999 0.082000002 0.033 0.057 0.052999999 0.041999999C0.075999998 0.024 0.103 0.013 0.13600001 0.0080000004C0.171 0.003 0.215 0 0.26800001 0C0.32100001 0 0.36399999 0.003 0.39700001 0.0080000004C0.43200001 0.013 0.46000001 0.024 0.47999999 0.041999999C0.50300002 0.057 0.51800001 0.082000002 0.52499998 0.117C0.53299999 0.15000001 0.537 0.19499999 0.537 0.25299999C0.537 0.31099999 0.53299999 0.35699999 0.52499998 0.389C0.51800001 0.42199999 0.50300002 0.449 0.47999999 0.46900001C0.46000001 0.486 0.43200001 0.498 0.39700001 0.50300002C0.36399999 0.50800002 0.32100001 0.50999999 0.26800001 0.50999999ZM0.029999999 0.824L0.50300002 0.824L0.50300002 2.865L0.029999999 2.865L0.029999999 0.824ZM1.603 1.202L1.603 2.1849999C1.603 2.25 1.6059999 2.3039999 1.6109999 2.3469999C1.619 2.3900001 1.631 2.424 1.649 2.4489999C1.669 2.474 1.6950001 2.4920001 1.728 2.5020001C1.761 2.51 1.804 2.513 1.857 2.513C1.892 2.513 1.925 2.5120001 1.955 2.51C1.985 2.507 2.0139999 2.5020001 2.0420001 2.494L2.0420001 2.869C2.0020001 2.8740001 1.96 2.8770001 1.9170001 2.8800001C1.874 2.885 1.831 2.888 1.789 2.888C1.668 2.888 1.564 2.8789999 1.479 2.8610001C1.396 2.8410001 1.3279999 2.8069999 1.275 2.7590001C1.224 2.7090001 1.188 2.641 1.165 2.5550001C1.142 2.467 1.131 2.3559999 1.131 2.2219999L1.131 1.202L0.84799999 1.202L0.84799999 0.824L1.131 0.824L1.131 0.34L1.603 0.34L1.603 0.824L2.053 0.824L2.053 1.202L1.603 1.202ZM4.1459999 1.6670001C4.1459999 1.717 4.1430001 1.766 4.138 1.814C4.1350002 1.86 4.132 1.9 4.1269999 1.9349999L2.789 2.0220001C2.7939999 2.1930001 2.842 2.319 2.9319999 2.4000001C3.023 2.4809999 3.1700001 2.5209999 3.3740001 2.5209999C3.4349999 2.5209999 3.497 2.517 3.5599999 2.51C3.625 2.5020001 3.687 2.4920001 3.7449999 2.4790001C3.8050001 2.464 3.8610001 2.4489999 3.911 2.434C3.9619999 2.4159999 4.0040002 2.3989999 4.04 2.381L4.04 2.767C3.9790001 2.802 3.881 2.8329999 3.7449999 2.8610001C3.609 2.8889999 3.4579999 2.9030001 3.2909999 2.9030001C3.135 2.9030001 2.997 2.8859999 2.8759999 2.8540001C2.7550001 2.8210001 2.6530001 2.7639999 2.569 2.6830001C2.4860001 2.6029999 2.4219999 2.494 2.3770001 2.358C2.3340001 2.2219999 2.312 2.0510001 2.312 1.844C2.312 1.638 2.3340001 1.466 2.3770001 1.33C2.4219999 1.194 2.4860001 1.086 2.569 1.005C2.6530001 0.92500001 2.7550001 0.86799997 2.8759999 0.83499998C2.997 0.80299997 3.135 0.78600001 3.2909999 0.78600001C3.4679999 0.78600001 3.6110001 0.81 3.7219999 0.85799998C3.8329999 0.903 3.9200001 0.96600002 3.983 1.0470001C4.046 1.128 4.0890002 1.221 4.1110001 1.327C4.1339998 1.432 4.1459999 1.546 4.1459999 1.6670001ZM3.707 1.618C3.707 1.5549999 3.7019999 1.495 3.6919999 1.4400001C3.684 1.382 3.6659999 1.332 3.635 1.289C3.605 1.2460001 3.562 1.212 3.507 1.187C3.454 1.1619999 3.382 1.149 3.2909999 1.149C3.1960001 1.149 3.1159999 1.16 3.053 1.183C2.99 1.206 2.9400001 1.24 2.902 1.285C2.8640001 1.33 2.8369999 1.387 2.819 1.455C2.8010001 1.521 2.7909999 1.597 2.789 1.686L3.707 1.618ZM6.901 0.78600001C7.1350002 0.78600001 7.3060002 0.84500003 7.415 0.96399999C7.5229998 1.08 7.5770001 1.256 7.5770001 1.493L7.5770001 2.865L7.105 2.865L7.105 1.599C7.105 1.455 7.0809999 1.349 7.033 1.281C6.9850001 1.2130001 6.8969998 1.179 6.7690001 1.179C6.6550002 1.179 6.5609999 1.202 6.4850001 1.247C6.4120002 1.293 6.3600001 1.376 6.3299999 1.497L6.3299999 2.865L5.8579998 2.865L5.8579998 1.599C5.8579998 1.455 5.8340001 1.349 5.7859998 1.281C5.7399998 1.2130001 5.6550002 1.179 5.5289998 1.179C5.415 1.179 5.323 1.201 5.2529998 1.243C5.1820002 1.286 5.131 1.367 5.098 1.485L5.098 2.865L4.6259999 2.865L4.6259999 0.824L5.098 0.824L5.098 1.066C5.1560001 0.96499997 5.2329998 0.89300001 5.329 0.85000002C5.4239998 0.80800003 5.54 0.78600001 5.6760001 0.78600001C5.835 0.78600001 5.961 0.81300002 6.0539999 0.866C6.1469998 0.91600001 6.217 0.99000001 6.2620001 1.089C6.3200002 0.97799999 6.4060001 0.89999998 6.5190001 0.85399997C6.632 0.80900002 6.7600002 0.78600001 6.901 0.78600001ZM9.7410002 2.1689999L8.6450005 2.1689999L8.3959999 2.865L7.8860002 2.865L8.868 0.242L9.5340004 0.242L10.509 2.865L9.9829998 2.865L9.7410002 2.1689999ZM9.5939999 1.7539999L9.2200003 0.68400002L9.1739998 0.68400002L8.7930002 1.7539999L9.5939999 1.7539999Z" transform="translate(93.332, 51.702)" fill="#6d7a97"></path></svg>