<svg xmlns="http://www.w3.org/2000/svg" version="1.1" xmlns:xlink="http://www.w3.org/1999/xlink" fill="none" width="14" height="14" viewBox="0 0 14 14"><path d="M4.5209999 10.306C4.5209999 10.413 4.6079998 10.5 4.7150002 10.5L5.7849998 10.5C5.8920002 10.5 5.9790001 10.413 5.9790001 10.306L5.9790001 5.9790001L10.306 5.9790001C10.413 5.9790001 10.5 5.8920002 10.5 5.7849998L10.5 4.7150002C10.5 4.6079998 10.413 4.5209999 10.306 4.5209999L5.9790001 4.5209999L5.9790001 0.19400001C5.9790001 0.086999997 5.8920002 0 5.7849998 0L4.7150002 0C4.6079998 0 4.5209999 0.086999997 4.5209999 0.19400001L4.5209999 4.5209999L0.19400001 4.5209999C0.086999997 4.5209999 0 4.6079998 0 4.7150002L0 5.7849998C0 5.8920002 0.086999997 5.9790001 0.19400001 5.9790001L4.5209999 5.9790001L4.5209999 10.306Z" transform="translate(1.75, 1.748)" fill="#515357"></path></svg>