<svg xmlns="http://www.w3.org/2000/svg" version="1.1" xmlns:xlink="http://www.w3.org/1999/xlink" fill="none" width="120" height="75.591" viewBox="0 0 120 75.591"><defs><mask id="mask_6:14671"><path d="M0 0L120 0L120 75.591003L0 75.591003L0 0Z" fill="white"></path></mask></defs><g mask="url(#mask_6:14671)"></g><path d="M0 0L120 0L120 75.591003L0 75.591003L0 0Z" fill="#ffffff"></path><g transform="matrix(0.9999999999999999,0,0,-0.9999999999999999,0,5.182)"><path d="M0 0L120 0L120 2.5910001L0 2.5910001L0 0Z" transform="translate(0, 2.591)" fill="#fffeff"></path></g><path d="M1.92 0.67699999L1.206 0.67699999L1.206 2.865L0.71100003 2.865L0.71100003 0.67699999L0 0.67699999L0 0.242L1.92 0.242L1.92 0.67699999ZM2.4389999 0.50999999C2.3870001 0.50999999 2.342 0.50800002 2.3069999 0.50300002C2.2739999 0.498 2.247 0.486 2.224 0.46900001C2.204 0.449 2.1900001 0.42199999 2.1819999 0.389C2.175 0.35699999 2.171 0.31099999 2.171 0.25299999C2.171 0.19499999 2.175 0.15000001 2.1819999 0.117C2.1900001 0.082000002 2.204 0.057 2.224 0.041999999C2.247 0.024 2.2739999 0.013 2.3069999 0.0080000004C2.342 0.003 2.3870001 0 2.4389999 0C2.4920001 0 2.5350001 0.003 2.5680001 0.0080000004C2.6029999 0.013 2.631 0.024 2.651 0.041999999C2.674 0.057 2.6889999 0.082000002 2.6960001 0.117C2.704 0.15000001 2.7079999 0.19499999 2.7079999 0.25299999C2.7079999 0.31099999 2.704 0.35699999 2.6960001 0.389C2.6889999 0.42199999 2.674 0.449 2.651 0.46900001C2.631 0.486 2.6029999 0.498 2.5680001 0.50300002C2.5350001 0.50800002 2.4920001 0.50999999 2.4389999 0.50999999ZM2.201 0.824L2.674 0.824L2.674 2.865L2.201 2.865L2.201 0.824ZM5.5430002 0.78600001C5.7779999 0.78600001 5.9489999 0.84500003 6.0570002 0.96399999C6.1659999 1.08 6.2199998 1.256 6.2199998 1.493L6.2199998 2.865L5.7480001 2.865L5.7480001 1.599C5.7480001 1.455 5.724 1.349 5.6760001 1.281C5.6279998 1.2130001 5.54 1.179 5.4109998 1.179C5.2979999 1.179 5.2030001 1.202 5.1279998 1.247C5.0549998 1.293 5.0029998 1.376 4.973 1.497L4.973 2.865L4.5 2.865L4.5 1.599C4.5 1.455 4.4759998 1.349 4.4289999 1.281C4.3829999 1.2130001 4.2969999 1.179 4.171 1.179C4.0580001 1.179 3.9660001 1.201 3.8959999 1.243C3.825 1.286 3.773 1.367 3.7409999 1.485L3.7409999 2.865L3.2679999 2.865L3.2679999 0.824L3.7409999 0.824L3.7409999 1.066C3.799 0.96499997 3.875 0.89300001 3.971 0.85000002C4.0669999 0.80800003 4.1830001 0.78600001 4.3189998 0.78600001C4.4780002 0.78600001 4.6040001 0.81300002 4.697 0.866C4.79 0.91600001 4.8590002 0.99000001 4.9050002 1.089C4.9629998 0.97799999 5.0479999 0.89999998 5.1620002 0.85399997C5.2750001 0.80900002 5.402 0.78600001 5.5430002 0.78600001ZM8.5279999 1.6670001C8.5279999 1.717 8.5249996 1.766 8.5200005 1.814C8.5179996 1.86 8.5139999 1.9 8.5089998 1.9349999L7.171 2.0220001C7.1760001 2.1930001 7.224 2.319 7.3140001 2.4000001C7.4050002 2.4809999 7.552 2.5209999 7.757 2.5209999C7.8169999 2.5209999 7.8790002 2.517 7.9419999 2.51C8.007 2.5020001 8.0690002 2.4920001 8.1269999 2.4790001C8.1870003 2.464 8.243 2.4489999 8.2930002 2.434C8.3439999 2.4159999 8.3859997 2.3989999 8.4219999 2.381L8.4219999 2.767C8.3610001 2.802 8.2629995 2.8329999 8.1269999 2.8610001C7.9910002 2.8889999 7.8400002 2.9030001 7.6729999 2.9030001C7.5170002 2.9030001 7.3790002 2.8859999 7.2579999 2.8540001C7.1370001 2.8210001 7.0349998 2.7639999 6.9520001 2.6830001C6.868 2.6029999 6.8039999 2.494 6.7589998 2.358C6.7160001 2.2219999 6.6950002 2.0510001 6.6950002 1.844C6.6950002 1.638 6.7160001 1.466 6.7589998 1.33C6.8039999 1.194 6.868 1.086 6.9520001 1.005C7.0349998 0.92500001 7.1370001 0.86799997 7.2579999 0.83499998C7.3790002 0.80299997 7.5170002 0.78600001 7.6729999 0.78600001C7.8499999 0.78600001 7.993 0.81 8.1040001 0.85799998C8.2150002 0.903 8.302 0.96600002 8.3649998 1.0470001C8.4280005 1.128 8.4709997 1.221 8.4940004 1.327C8.5159998 1.432 8.5279999 1.546 8.5279999 1.6670001ZM8.0889997 1.618C8.0889997 1.5549999 8.0839996 1.495 8.0740004 1.4400001C8.066 1.382 8.0480003 1.332 8.0170002 1.289C7.987 1.2460001 7.9439998 1.212 7.8889999 1.187C7.836 1.1619999 7.7639999 1.149 7.6729999 1.149C7.5780001 1.149 7.4980001 1.16 7.4349999 1.183C7.3720002 1.206 7.322 1.24 7.2839999 1.285C7.2459998 1.33 7.2189999 1.387 7.2010002 1.455C7.1830001 1.521 7.1729999 1.597 7.171 1.686L8.0889997 1.618ZM10.587 2.1689999L9.4910002 2.1689999L9.2419996 2.865L8.7320004 2.865L9.7139997 0.242L10.38 0.242L11.355 2.865L10.829 2.865L10.587 2.1689999ZM10.44 1.7539999L10.066 0.68400002L10.021 0.68400002L9.6389999 1.7539999L10.44 1.7539999Z" transform="translate(14.241, 65.639)" fill="#000000" opacity="0.3"></path><path d="M1.92 0.67699999L1.206 0.67699999L1.206 2.865L0.71100003 2.865L0.71100003 0.67699999L0 0.67699999L0 0.242L1.92 0.242L1.92 0.67699999ZM2.4389999 0.50999999C2.3859999 0.50999999 2.342 0.50800002 2.3069999 0.50300002C2.2739999 0.498 2.247 0.486 2.224 0.46900001C2.204 0.449 2.1900001 0.42199999 2.1819999 0.389C2.175 0.35699999 2.171 0.31099999 2.171 0.25299999C2.171 0.19499999 2.175 0.15000001 2.1819999 0.117C2.1900001 0.082000002 2.204 0.057 2.224 0.041999999C2.247 0.024 2.2739999 0.013 2.3069999 0.0080000004C2.342 0.003 2.3859999 0 2.4389999 0C2.4920001 0 2.5350001 0.003 2.5680001 0.0080000004C2.6029999 0.013 2.631 0.024 2.651 0.041999999C2.674 0.057 2.6889999 0.082000002 2.6960001 0.117C2.704 0.15000001 2.7079999 0.19499999 2.7079999 0.25299999C2.7079999 0.31099999 2.704 0.35699999 2.6960001 0.389C2.6889999 0.42199999 2.674 0.449 2.651 0.46900001C2.631 0.486 2.6029999 0.498 2.5680001 0.50300002C2.5350001 0.50800002 2.4920001 0.50999999 2.4389999 0.50999999ZM2.201 0.824L2.674 0.824L2.674 2.865L2.201 2.865L2.201 0.824ZM5.5440001 0.78600001C5.7779999 0.78600001 5.9489999 0.84500003 6.0580001 0.96399999C6.1659999 1.08 6.2199998 1.256 6.2199998 1.493L6.2199998 2.865L5.7480001 2.865L5.7480001 1.599C5.7480001 1.455 5.724 1.349 5.6760001 1.281C5.6279998 1.2130001 5.54 1.179 5.4109998 1.179C5.2979999 1.179 5.2030001 1.202 5.1279998 1.247C5.0549998 1.293 5.0029998 1.376 4.973 1.497L4.973 2.865L4.5 2.865L4.5 1.599C4.5 1.455 4.4770002 1.349 4.4289999 1.281C4.3829999 1.2130001 4.2979999 1.179 4.1719999 1.179C4.0580001 1.179 3.9660001 1.201 3.8959999 1.243C3.825 1.286 3.7739999 1.367 3.7409999 1.485L3.7409999 2.865L3.2679999 2.865L3.2679999 0.824L3.7409999 0.824L3.7409999 1.066C3.799 0.96499997 3.8759999 0.89300001 3.971 0.85000002C4.0669999 0.80800003 4.1830001 0.78600001 4.3189998 0.78600001C4.4780002 0.78600001 4.6040001 0.81300002 4.697 0.866C4.79 0.91600001 4.8600001 0.99000001 4.9050002 1.089C4.9629998 0.97799999 5.0489998 0.89999998 5.1620002 0.85399997C5.2750001 0.80900002 5.4029999 0.78600001 5.5440001 0.78600001ZM8.5279999 1.6670001C8.5279999 1.717 8.5249996 1.766 8.5200005 1.814C8.5170002 1.86 8.5139999 1.9 8.5089998 1.9349999L7.171 2.0220001C7.1760001 2.1930001 7.224 2.319 7.3140001 2.4000001C7.4050002 2.4809999 7.552 2.5209999 7.757 2.5209999C7.8169999 2.5209999 7.8790002 2.517 7.9419999 2.51C8.007 2.5020001 8.0690002 2.4920001 8.1269999 2.4790001C8.1870003 2.464 8.243 2.4489999 8.2930002 2.434C8.3439999 2.4159999 8.3859997 2.3989999 8.4219999 2.381L8.4219999 2.767C8.3610001 2.802 8.2629995 2.8329999 8.1269999 2.8610001C7.9910002 2.8889999 7.8400002 2.9030001 7.6729999 2.9030001C7.5170002 2.9030001 7.3790002 2.8859999 7.2579999 2.8540001C7.1370001 2.8210001 7.0349998 2.7639999 6.9510002 2.6830001C6.868 2.6029999 6.8039999 2.494 6.7589998 2.358C6.7160001 2.2219999 6.6939998 2.0510001 6.6939998 1.844C6.6939998 1.638 6.7160001 1.466 6.7589998 1.33C6.8039999 1.194 6.868 1.086 6.9510002 1.005C7.0349998 0.92500001 7.1370001 0.86799997 7.2579999 0.83499998C7.3790002 0.80299997 7.5170002 0.78600001 7.6729999 0.78600001C7.8499999 0.78600001 7.993 0.81 8.1040001 0.85799998C8.2150002 0.903 8.302 0.96600002 8.3649998 1.0470001C8.4280005 1.128 8.4709997 1.221 8.4940004 1.327C8.5159998 1.432 8.5279999 1.546 8.5279999 1.6670001ZM8.0889997 1.618C8.0889997 1.5549999 8.0839996 1.495 8.0740004 1.4400001C8.066 1.382 8.0480003 1.332 8.0170002 1.289C7.987 1.2460001 7.9439998 1.212 7.8889999 1.187C7.836 1.1619999 7.7639999 1.149 7.6729999 1.149C7.5780001 1.149 7.4980001 1.16 7.4349999 1.183C7.3720002 1.206 7.322 1.24 7.2839999 1.285C7.2459998 1.33 7.2189999 1.387 7.2010002 1.455C7.1830001 1.521 7.1729999 1.597 7.171 1.686L8.0889997 1.618ZM9.0190001 0.242L9.8620005 0.242C10.046 0.242 10.198 0.257 10.319 0.287C10.443 0.315 10.54 0.35800001 10.61 0.41600001C10.683 0.47400001 10.734 0.54699999 10.761 0.63499999C10.791 0.72299999 10.807 0.82599998 10.807 0.94499999C10.807 1.081 10.778 1.196 10.72 1.289C10.664 1.38 10.566 1.446 10.425 1.489L10.425 1.5039999C10.589 1.5420001 10.706 1.613 10.776 1.716C10.849 1.817 10.886 1.948 10.886 2.109C10.886 2.227 10.871 2.3340001 10.841 2.4300001C10.813 2.523 10.763 2.6029999 10.689 2.668C10.616 2.7309999 10.518 2.78 10.395 2.816C10.274 2.849 10.121 2.865 9.9370003 2.865L9.0190001 2.865L9.0190001 0.242ZM9.7290001 1.346C9.8330002 1.346 9.9209995 1.34 9.9940004 1.33C10.07 1.3200001 10.131 1.303 10.179 1.277C10.227 1.25 10.262 1.2130001 10.285 1.168C10.308 1.123 10.319 1.063 10.319 0.99000001C10.319 0.912 10.308 0.85000002 10.285 0.80500001C10.262 0.75999999 10.227 0.72600001 10.179 0.70300001C10.134 0.67799997 10.073 0.66100001 9.9980001 0.65399998C9.9250002 0.64600003 9.835 0.64300001 9.7290001 0.64300001L9.5139999 0.64300001L9.5139999 1.346L9.7290001 1.346ZM9.809 2.46C9.9219999 2.46 10.015 2.4549999 10.089 2.4449999C10.164 2.4349999 10.223 2.4159999 10.266 2.3889999C10.311 2.358 10.343 2.319 10.361 2.2709999C10.378 2.224 10.387 2.1619999 10.387 2.086C10.387 2.0179999 10.378 1.96 10.361 1.9119999C10.343 1.865 10.311 1.827 10.266 1.799C10.223 1.7690001 10.164 1.747 10.089 1.735C10.015 1.72 9.9219999 1.712 9.809 1.712L9.5139999 1.712L9.5139999 2.46L9.809 2.46Z" transform="translate(30.777, 65.639)" fill="#000000" opacity="0.3"></path><path d="M1.92 0.67699999L1.206 0.67699999L1.206 2.865L0.71100003 2.865L0.71100003 0.67699999L0 0.67699999L0 0.242L1.92 0.242L1.92 0.67699999ZM2.4389999 0.50999999C2.3859999 0.50999999 2.342 0.50800002 2.3069999 0.50300002C2.2739999 0.498 2.247 0.486 2.224 0.46900001C2.204 0.449 2.1900001 0.42199999 2.1819999 0.389C2.175 0.35699999 2.171 0.31099999 2.171 0.25299999C2.171 0.19499999 2.175 0.15000001 2.1819999 0.117C2.1900001 0.082000002 2.204 0.057 2.224 0.041999999C2.247 0.024 2.2739999 0.013 2.3069999 0.0080000004C2.342 0.003 2.3859999 0 2.4389999 0C2.4920001 0 2.5350001 0.003 2.5680001 0.0080000004C2.6029999 0.013 2.631 0.024 2.651 0.041999999C2.674 0.057 2.6889999 0.082000002 2.6960001 0.117C2.704 0.15000001 2.7079999 0.19499999 2.7079999 0.25299999C2.7079999 0.31099999 2.704 0.35699999 2.6960001 0.389C2.6889999 0.42199999 2.674 0.449 2.651 0.46900001C2.631 0.486 2.6029999 0.498 2.5680001 0.50300002C2.5350001 0.50800002 2.4920001 0.50999999 2.4389999 0.50999999ZM2.201 0.824L2.674 0.824L2.674 2.865L2.201 2.865L2.201 0.824ZM5.5440001 0.78600001C5.7779999 0.78600001 5.9489999 0.84500003 6.0580001 0.96399999C6.1659999 1.08 6.2199998 1.256 6.2199998 1.493L6.2199998 2.865L5.7480001 2.865L5.7480001 1.599C5.7480001 1.455 5.724 1.349 5.6760001 1.281C5.6279998 1.2130001 5.54 1.179 5.4109998 1.179C5.2979999 1.179 5.2030001 1.202 5.1279998 1.247C5.0549998 1.293 5.0029998 1.376 4.973 1.497L4.973 2.865L4.5 2.865L4.5 1.599C4.5 1.455 4.4770002 1.349 4.4289999 1.281C4.3829999 1.2130001 4.2979999 1.179 4.1719999 1.179C4.0580001 1.179 3.9660001 1.201 3.8959999 1.243C3.825 1.286 3.7739999 1.367 3.7409999 1.485L3.7409999 2.865L3.2679999 2.865L3.2679999 0.824L3.7409999 0.824L3.7409999 1.066C3.799 0.96499997 3.8759999 0.89300001 3.971 0.85000002C4.0669999 0.80800003 4.1830001 0.78600001 4.3189998 0.78600001C4.4780002 0.78600001 4.6040001 0.81300002 4.697 0.866C4.79 0.91600001 4.8600001 0.99000001 4.9050002 1.089C4.9629998 0.97799999 5.0489998 0.89999998 5.1620002 0.85399997C5.2750001 0.80900002 5.4029999 0.78600001 5.5440001 0.78600001ZM8.5279999 1.6670001C8.5279999 1.717 8.5249996 1.766 8.5200005 1.814C8.5170002 1.86 8.5139999 1.9 8.5089998 1.9349999L7.171 2.0220001C7.1760001 2.1930001 7.224 2.319 7.3140001 2.4000001C7.4050002 2.4809999 7.552 2.5209999 7.757 2.5209999C7.8169999 2.5209999 7.8790002 2.517 7.9419999 2.51C8.007 2.5020001 8.0690002 2.4920001 8.1269999 2.4790001C8.1870003 2.464 8.243 2.4489999 8.2930002 2.434C8.3439999 2.4159999 8.3859997 2.3989999 8.4219999 2.381L8.4219999 2.767C8.3610001 2.802 8.2629995 2.8329999 8.1269999 2.8610001C7.9910002 2.8889999 7.8400002 2.9030001 7.6729999 2.9030001C7.5170002 2.9030001 7.3790002 2.8859999 7.2579999 2.8540001C7.1370001 2.8210001 7.0349998 2.7639999 6.9510002 2.6830001C6.868 2.6029999 6.8039999 2.494 6.7589998 2.358C6.7160001 2.2219999 6.6939998 2.0510001 6.6939998 1.844C6.6939998 1.638 6.7160001 1.466 6.7589998 1.33C6.8039999 1.194 6.868 1.086 6.9510002 1.005C7.0349998 0.92500001 7.1370001 0.86799997 7.2579999 0.83499998C7.3790002 0.80299997 7.5170002 0.78600001 7.6729999 0.78600001C7.8499999 0.78600001 7.993 0.81 8.1040001 0.85799998C8.2150002 0.903 8.302 0.96600002 8.3649998 1.0470001C8.4280005 1.128 8.4709997 1.221 8.4940004 1.327C8.5159998 1.432 8.5279999 1.546 8.5279999 1.6670001ZM8.0889997 1.618C8.0889997 1.5549999 8.0839996 1.495 8.0740004 1.4400001C8.066 1.382 8.0480003 1.332 8.0170002 1.289C7.987 1.2460001 7.9439998 1.212 7.8889999 1.187C7.836 1.1619999 7.7639999 1.149 7.6729999 1.149C7.5780001 1.149 7.4980001 1.16 7.4349999 1.183C7.3720002 1.206 7.322 1.24 7.2839999 1.285C7.2459998 1.33 7.2189999 1.387 7.2010002 1.455C7.1830001 1.521 7.1729999 1.597 7.171 1.686L8.0889997 1.618ZM10.191 2.9030001C10.002 2.9030001 9.8299999 2.8840001 9.677 2.846C9.5249996 2.8080001 9.3959999 2.74 9.2869997 2.642C9.1789999 2.5409999 9.0939999 2.404 9.0340004 2.23C8.9759998 2.0539999 8.9469995 1.8279999 8.9469995 1.553C8.9469995 1.301 8.9759998 1.09 9.0340004 0.91799998C9.0939999 0.745 9.1789999 0.60500002 9.2869997 0.49900001C9.3959999 0.39300001 9.5270004 0.317 9.6800003 0.27200001C9.8339996 0.227 10.007 0.204 10.198 0.204C10.324 0.204 10.435 0.212 10.531 0.227C10.629 0.23899999 10.718 0.25999999 10.799 0.287L10.799 0.722C10.718 0.69400001 10.631 0.67299998 10.538 0.65799999C10.445 0.63999999 10.342 0.63099998 10.228 0.63099998C10.1 0.63099998 9.9879999 0.64600003 9.8920002 0.67699999C9.7989998 0.70700002 9.7209997 0.75800002 9.658 0.83099997C9.5970001 0.90200001 9.552 0.99699998 9.5220003 1.115C9.4910002 1.2309999 9.4759998 1.376 9.4759998 1.55C9.4759998 1.734 9.4899998 1.885 9.5179996 2.003C9.5480003 2.122 9.5930004 2.2160001 9.6540003 2.2869999C9.7139997 2.355 9.79 2.4030001 9.8809996 2.4300001C9.974 2.4549999 10.083 2.4679999 10.209 2.4679999C10.325 2.4679999 10.432 2.46 10.531 2.4449999C10.629 2.428 10.729 2.401 10.829 2.3659999L10.829 2.793C10.751 2.823 10.657 2.849 10.546 2.869C10.437 2.891 10.319 2.9030001 10.191 2.9030001Z" transform="translate(47.076, 65.639)" fill="#000000" opacity="0.3"></path><path d="M1.92 0.67699999L1.206 0.67699999L1.206 2.865L0.71100003 2.865L0.71100003 0.67699999L0 0.67699999L0 0.242L1.92 0.242L1.92 0.67699999ZM2.4389999 0.50999999C2.3859999 0.50999999 2.342 0.50800002 2.3069999 0.50300002C2.2739999 0.498 2.247 0.486 2.224 0.46900001C2.204 0.449 2.1900001 0.42199999 2.1819999 0.389C2.175 0.35699999 2.171 0.31099999 2.171 0.25299999C2.171 0.19499999 2.175 0.15000001 2.1819999 0.117C2.1900001 0.082000002 2.204 0.057 2.224 0.041999999C2.247 0.024 2.2739999 0.013 2.3069999 0.0080000004C2.342 0.003 2.3859999 0 2.4389999 0C2.4920001 0 2.5350001 0.003 2.5680001 0.0080000004C2.6029999 0.013 2.631 0.024 2.651 0.041999999C2.674 0.057 2.6889999 0.082000002 2.6960001 0.117C2.704 0.15000001 2.7079999 0.19499999 2.7079999 0.25299999C2.7079999 0.31099999 2.704 0.35699999 2.6960001 0.389C2.6889999 0.42199999 2.674 0.449 2.651 0.46900001C2.631 0.486 2.6029999 0.498 2.5680001 0.50300002C2.5350001 0.50800002 2.4920001 0.50999999 2.4389999 0.50999999ZM2.201 0.824L2.674 0.824L2.674 2.865L2.201 2.865L2.201 0.824ZM5.5440001 0.78600001C5.7779999 0.78600001 5.9489999 0.84500003 6.0580001 0.96399999C6.1659999 1.08 6.2199998 1.256 6.2199998 1.493L6.2199998 2.865L5.7480001 2.865L5.7480001 1.599C5.7480001 1.455 5.724 1.349 5.6760001 1.281C5.6279998 1.2130001 5.54 1.179 5.4109998 1.179C5.2979999 1.179 5.2030001 1.202 5.1279998 1.247C5.0549998 1.293 5.0029998 1.376 4.973 1.497L4.973 2.865L4.5 2.865L4.5 1.599C4.5 1.455 4.4770002 1.349 4.4289999 1.281C4.3829999 1.2130001 4.2979999 1.179 4.1719999 1.179C4.0580001 1.179 3.9660001 1.201 3.8959999 1.243C3.825 1.286 3.7739999 1.367 3.7409999 1.485L3.7409999 2.865L3.2679999 2.865L3.2679999 0.824L3.7409999 0.824L3.7409999 1.066C3.799 0.96499997 3.8759999 0.89300001 3.971 0.85000002C4.0669999 0.80800003 4.1830001 0.78600001 4.3189998 0.78600001C4.4780002 0.78600001 4.6040001 0.81300002 4.697 0.866C4.79 0.91600001 4.8600001 0.99000001 4.9050002 1.089C4.9629998 0.97799999 5.0489998 0.89999998 5.1620002 0.85399997C5.2750001 0.80900002 5.4029999 0.78600001 5.5440001 0.78600001ZM8.5279999 1.6670001C8.5279999 1.717 8.5249996 1.766 8.5200005 1.814C8.5170002 1.86 8.5139999 1.9 8.5089998 1.9349999L7.171 2.0220001C7.1760001 2.1930001 7.224 2.319 7.3140001 2.4000001C7.4050002 2.4809999 7.552 2.5209999 7.757 2.5209999C7.8169999 2.5209999 7.8790002 2.517 7.9419999 2.51C8.007 2.5020001 8.0690002 2.4920001 8.1269999 2.4790001C8.1870003 2.464 8.243 2.4489999 8.2930002 2.434C8.3439999 2.4159999 8.3859997 2.3989999 8.4219999 2.381L8.4219999 2.767C8.3610001 2.802 8.2629995 2.8329999 8.1269999 2.8610001C7.9910002 2.8889999 7.8400002 2.9030001 7.6729999 2.9030001C7.5170002 2.9030001 7.3790002 2.8859999 7.2579999 2.8540001C7.1370001 2.8210001 7.0349998 2.7639999 6.9510002 2.6830001C6.868 2.6029999 6.8039999 2.494 6.7589998 2.358C6.7160001 2.2219999 6.6939998 2.0510001 6.6939998 1.844C6.6939998 1.638 6.7160001 1.466 6.7589998 1.33C6.8039999 1.194 6.868 1.086 6.9510002 1.005C7.0349998 0.92500001 7.1370001 0.86799997 7.2579999 0.83499998C7.3790002 0.80299997 7.5170002 0.78600001 7.6729999 0.78600001C7.8499999 0.78600001 7.993 0.81 8.1040001 0.85799998C8.2150002 0.903 8.302 0.96600002 8.3649998 1.0470001C8.4280005 1.128 8.4709997 1.221 8.4940004 1.327C8.5159998 1.432 8.5279999 1.546 8.5279999 1.6670001ZM8.0889997 1.618C8.0889997 1.5549999 8.0839996 1.495 8.0740004 1.4400001C8.066 1.382 8.0480003 1.332 8.0170002 1.289C7.987 1.2460001 7.9439998 1.212 7.8889999 1.187C7.836 1.1619999 7.7639999 1.149 7.6729999 1.149C7.5780001 1.149 7.4980001 1.16 7.4349999 1.183C7.3720002 1.206 7.322 1.24 7.2839999 1.285C7.2459998 1.33 7.2189999 1.387 7.2010002 1.455C7.1830001 1.521 7.1729999 1.597 7.171 1.686L8.0889997 1.618ZM9.8690004 0.242C10.061 0.242 10.235 0.25999999 10.391 0.29499999C10.547 0.32800001 10.681 0.39199999 10.791 0.48800001C10.902 0.583 10.988 0.71700001 11.049 0.88800001C11.111 1.0599999 11.143 1.281 11.143 1.553C11.143 1.808 11.111 2.02 11.049 2.188C10.988 2.355 10.902 2.4879999 10.791 2.589C10.681 2.6900001 10.547 2.7620001 10.391 2.8039999C10.235 2.845 10.061 2.865 9.8690004 2.865L9.0190001 2.865L9.0190001 0.242L9.8690004 0.242ZM9.8470001 2.438C9.9729996 2.438 10.085 2.424 10.183 2.3959999C10.281 2.369 10.363 2.322 10.429 2.256C10.497 2.188 10.547 2.098 10.58 1.984C10.615 1.8710001 10.633 1.727 10.633 1.553C10.633 1.372 10.615 1.223 10.58 1.107C10.545 0.991 10.493 0.90100002 10.425 0.83499998C10.357 0.76700002 10.274 0.722 10.175 0.699C10.08 0.67400002 9.9700003 0.66100001 9.8470001 0.66100001L9.5139999 0.66100001L9.5139999 2.438L9.8470001 2.438Z" transform="translate(63.375, 65.639)" fill="#000000" opacity="0.3"></path><path d="M1.92 0.67699999L1.206 0.67699999L1.206 2.865L0.71100003 2.865L0.71100003 0.67699999L0 0.67699999L0 0.242L1.92 0.242L1.92 0.67699999ZM2.4389999 0.50999999C2.3859999 0.50999999 2.342 0.50800002 2.3069999 0.50300002C2.2739999 0.498 2.247 0.486 2.224 0.46900001C2.204 0.449 2.1900001 0.42199999 2.1819999 0.389C2.175 0.35699999 2.171 0.31099999 2.171 0.25299999C2.171 0.19499999 2.175 0.15000001 2.1819999 0.117C2.1900001 0.082000002 2.204 0.057 2.224 0.041999999C2.247 0.024 2.2739999 0.013 2.3069999 0.0080000004C2.342 0.003 2.3859999 0 2.4389999 0C2.4920001 0 2.5350001 0.003 2.5680001 0.0080000004C2.6029999 0.013 2.631 0.024 2.651 0.041999999C2.674 0.057 2.6889999 0.082000002 2.6960001 0.117C2.704 0.15000001 2.7079999 0.19499999 2.7079999 0.25299999C2.7079999 0.31099999 2.704 0.35699999 2.6960001 0.389C2.6889999 0.42199999 2.674 0.449 2.651 0.46900001C2.631 0.486 2.6029999 0.498 2.5680001 0.50300002C2.5350001 0.50800002 2.4920001 0.50999999 2.4389999 0.50999999ZM2.201 0.824L2.674 0.824L2.674 2.865L2.201 2.865L2.201 0.824ZM5.5440001 0.78600001C5.7779999 0.78600001 5.9489999 0.84500003 6.0580001 0.96399999C6.1659999 1.08 6.2199998 1.256 6.2199998 1.493L6.2199998 2.865L5.7480001 2.865L5.7480001 1.599C5.7480001 1.455 5.724 1.349 5.6760001 1.281C5.6279998 1.2130001 5.54 1.179 5.4109998 1.179C5.2979999 1.179 5.2030001 1.202 5.1279998 1.247C5.0549998 1.293 5.0029998 1.376 4.973 1.497L4.973 2.865L4.5 2.865L4.5 1.599C4.5 1.455 4.4770002 1.349 4.4289999 1.281C4.3829999 1.2130001 4.2979999 1.179 4.1719999 1.179C4.0580001 1.179 3.9660001 1.201 3.8959999 1.243C3.825 1.286 3.7739999 1.367 3.7409999 1.485L3.7409999 2.865L3.2679999 2.865L3.2679999 0.824L3.7409999 0.824L3.7409999 1.066C3.799 0.96499997 3.8759999 0.89300001 3.971 0.85000002C4.0669999 0.80800003 4.1830001 0.78600001 4.3189998 0.78600001C4.4780002 0.78600001 4.6040001 0.81300002 4.697 0.866C4.79 0.91600001 4.8600001 0.99000001 4.9050002 1.089C4.9629998 0.97799999 5.0489998 0.89999998 5.1620002 0.85399997C5.2750001 0.80900002 5.4029999 0.78600001 5.5440001 0.78600001ZM8.5279999 1.6670001C8.5279999 1.717 8.5249996 1.766 8.5200005 1.814C8.5170002 1.86 8.5139999 1.9 8.5089998 1.9349999L7.171 2.0220001C7.1760001 2.1930001 7.224 2.319 7.3140001 2.4000001C7.4050002 2.4809999 7.552 2.5209999 7.757 2.5209999C7.8169999 2.5209999 7.8790002 2.517 7.9419999 2.51C8.007 2.5020001 8.0690002 2.4920001 8.1269999 2.4790001C8.1870003 2.464 8.243 2.4489999 8.2930002 2.434C8.3439999 2.4159999 8.3859997 2.3989999 8.4219999 2.381L8.4219999 2.767C8.3610001 2.802 8.2629995 2.8329999 8.1269999 2.8610001C7.9910002 2.8889999 7.8400002 2.9030001 7.6729999 2.9030001C7.5170002 2.9030001 7.3790002 2.8859999 7.2579999 2.8540001C7.1370001 2.8210001 7.0349998 2.7639999 6.9510002 2.6830001C6.868 2.6029999 6.8039999 2.494 6.7589998 2.358C6.7160001 2.2219999 6.6939998 2.0510001 6.6939998 1.844C6.6939998 1.638 6.7160001 1.466 6.7589998 1.33C6.8039999 1.194 6.868 1.086 6.9510002 1.005C7.0349998 0.92500001 7.1370001 0.86799997 7.2579999 0.83499998C7.3790002 0.80299997 7.5170002 0.78600001 7.6729999 0.78600001C7.8499999 0.78600001 7.993 0.81 8.1040001 0.85799998C8.2150002 0.903 8.302 0.96600002 8.3649998 1.0470001C8.4280005 1.128 8.4709997 1.221 8.4940004 1.327C8.5159998 1.432 8.5279999 1.546 8.5279999 1.6670001ZM8.0889997 1.618C8.0889997 1.5549999 8.0839996 1.495 8.0740004 1.4400001C8.066 1.382 8.0480003 1.332 8.0170002 1.289C7.987 1.2460001 7.9439998 1.212 7.8889999 1.187C7.836 1.1619999 7.7639999 1.149 7.6729999 1.149C7.5780001 1.149 7.4980001 1.16 7.4349999 1.183C7.3720002 1.206 7.322 1.24 7.2839999 1.285C7.2459998 1.33 7.2189999 1.387 7.2010002 1.455C7.1830001 1.521 7.1729999 1.597 7.171 1.686L8.0889997 1.618ZM10.64 2.4300001L10.64 2.865L9.0190001 2.865L9.0190001 0.242L10.572 0.242L10.572 0.67299998L9.5139999 0.67299998L9.5139999 1.308L10.497 1.308L10.497 1.72L9.5139999 1.72L9.5139999 2.4300001L10.64 2.4300001Z" transform="translate(79.911, 65.639)" fill="#000000" opacity="0.3"></path><path d="M0.23622048 -0.15748031L0 -0.15748031L0 0.15748031L0.23622048 0.15748031L0.23622048 -0.15748031ZM1.6535434 -0.15748031L1.1811024 -0.15748031L1.1811024 0.15748031L1.6535434 0.15748031L1.6535434 -0.15748031ZM3.0708661 -0.15748031L2.5984254 -0.15748031L2.5984254 0.15748031L3.0708661 0.15748031L3.0708661 -0.15748031ZM4.4881892 -0.15748031L4.015748 -0.15748031L4.015748 0.15748031L4.4881892 0.15748031L4.4881892 -0.15748031ZM5.9055119 -0.15748031L5.4330711 -0.15748031L5.4330711 0.15748031L5.9055119 0.15748031L5.9055119 -0.15748031ZM7.322835 -0.15748031L6.8503938 -0.15748031L6.8503938 0.15748031L7.322835 0.15748031L7.322835 -0.15748031ZM8.7401581 -0.15748031L8.2677164 -0.15748031L8.2677164 0.15748031L8.7401581 0.15748031L8.7401581 -0.15748031ZM10.15748 -0.15748031L9.6850395 -0.15748031L9.6850395 0.15748031L10.15748 0.15748031L10.15748 -0.15748031ZM11.574803 -0.15748031L11.102363 -0.15748031L11.102363 0.15748031L11.574803 0.15748031L11.574803 -0.15748031ZM12.992126 -0.15748031L12.519686 -0.15748031L12.519686 0.15748031L12.992126 0.15748031L12.992126 -0.15748031ZM14.40945 -0.15748031L13.937008 -0.15748031L13.937008 0.15748031L14.40945 0.15748031L14.40945 -0.15748031ZM15.826772 -0.15748031L15.354331 -0.15748031L15.354331 0.15748031L15.826772 0.15748031L15.826772 -0.15748031ZM17.244095 -0.15748031L16.771654 -0.15748031L16.771654 0.15748031L17.244095 0.15748031L17.244095 -0.15748031ZM18.661417 -0.15748031L18.188976 -0.15748031L18.188976 0.15748031L18.661417 0.15748031L18.661417 -0.15748031ZM20.078741 -0.15748031L19.6063 -0.15748031L19.6063 0.15748031L20.078741 0.15748031L20.078741 -0.15748031ZM21.496063 -0.15748031L21.023623 -0.15748031L21.023623 0.15748031L21.496063 0.15748031L21.496063 -0.15748031ZM22.913387 -0.15748031L22.440945 -0.15748031L22.440945 0.15748031L22.913387 0.15748031L22.913387 -0.15748031ZM24.330709 -0.15748031L23.858269 -0.15748031L23.858269 0.15748031L24.330709 0.15748031L24.330709 -0.15748031ZM25.748032 -0.15748031L25.275591 -0.15748031L25.275591 0.15748031L25.748032 0.15748031L25.748032 -0.15748031ZM27.165356 -0.15748031L26.692915 -0.15748031L26.692915 0.15748031L27.165356 0.15748031L27.165356 -0.15748031ZM28.582678 -0.15748031L28.110237 -0.15748031L28.110237 0.15748031L28.582678 0.15748031L28.582678 -0.15748031ZM30 -0.15748031L29.527559 -0.15748031L29.527559 0.15748031L30 0.15748031L30 -0.15748031ZM31.417324 -0.15748031L30.944883 -0.15748031L30.944883 0.15748031L31.417324 0.15748031L31.417324 -0.15748031ZM32.834648 -0.15748031L32.362206 -0.15748031L32.362206 0.15748031L32.834648 0.15748031L32.834648 -0.15748031ZM34.251968 -0.15748031L33.77953 -0.15748031L33.77953 0.15748031L34.251968 0.15748031L34.251968 -0.15748031ZM35.669292 -0.15748031L35.19685 -0.15748031L35.19685 0.15748031L35.669292 0.15748031L35.669292 -0.15748031ZM37.086617 -0.15748031L36.614174 -0.15748031L36.614174 0.15748031L37.086617 0.15748031L37.086617 -0.15748031ZM38.503937 -0.15748031L38.031498 -0.15748031L38.031498 0.15748031L38.503937 0.15748031L38.503937 -0.15748031ZM39.921261 -0.15748031L39.448818 -0.15748031L39.448818 0.15748031L39.921261 0.15748031L39.921261 -0.15748031ZM41.338585 -0.15748031L40.866142 -0.15748031L40.866142 0.15748031L41.338585 0.15748031L41.338585 -0.15748031ZM42.755905 -0.15748031L42.283466 -0.15748031L42.283466 0.15748031L42.755905 0.15748031L42.755905 -0.15748031ZM44.173229 -0.15748031L43.70079 -0.15748031L43.70079 0.15748031L44.173229 0.15748031L44.173229 -0.15748031ZM45.590553 -0.15748031L45.118111 -0.15748031L45.118111 0.15748031L45.590553 0.15748031L45.590553 -0.15748031ZM47.007874 -0.15748031L46.535435 -0.15748031L46.535435 0.15748031L47.007874 0.15748031L47.007874 -0.15748031ZM48.425198 -0.15748031L47.952759 -0.15748031L47.952759 0.15748031L48.425198 0.15748031L48.425198 -0.15748031ZM49.842522 -0.15748031L49.370079 -0.15748031L49.370079 0.15748031L49.842522 0.15748031L49.842522 -0.15748031ZM51.259846 -0.15748031L50.787403 -0.15748031L50.787403 0.15748031L51.259846 0.15748031L51.259846 -0.15748031ZM52.677166 -0.15748031L52.204727 -0.15748031L52.204727 0.15748031L52.677166 0.15748031L52.677166 -0.15748031ZM54.09449 -0.15748031L53.622047 -0.15748031L53.622047 0.15748031L54.09449 0.15748031L54.09449 -0.15748031ZM55.511814 -0.15748031L55.039371 -0.15748031L55.039371 0.15748031L55.511814 0.15748031L55.511814 -0.15748031ZM56.929134 -0.15748031L56.456696 -0.15748031L56.456696 0.15748031L56.929134 0.15748031L56.929134 -0.15748031ZM58.346458 -0.15748031L57.874016 -0.15748031L57.874016 0.15748031L58.346458 0.15748031L58.346458 -0.15748031ZM59.763783 -0.15748031L59.29134 -0.15748031L59.29134 0.15748031L59.763783 0.15748031L59.763783 -0.15748031ZM61.181103 -0.15748031L60.708664 -0.15748031L60.708664 0.15748031L61.181103 0.15748031L61.181103 -0.15748031ZM62.598427 -0.15748031L62.125984 -0.15748031L62.125984 0.15748031L62.598427 0.15748031L62.598427 -0.15748031ZM64.015747 -0.15748031L63.543308 -0.15748031L63.543308 0.15748031L64.015747 0.15748031L64.015747 -0.15748031ZM65.433075 -0.15748031L64.960632 -0.15748031L64.960632 0.15748031L65.433075 0.15748031L65.433075 -0.15748031ZM66.850395 -0.15748031L66.377953 -0.15748031L66.377953 0.15748031L66.850395 0.15748031L66.850395 -0.15748031ZM68.267715 -0.15748031L67.79528 -0.15748031L67.79528 0.15748031L68.267715 0.15748031L68.267715 -0.15748031ZM69.685043 -0.15748031L69.212601 -0.15748031L69.212601 0.15748031L69.685043 0.15748031L69.685043 -0.15748031ZM71.102364 -0.15748031L70.629921 -0.15748031L70.629921 0.15748031L71.102364 0.15748031L71.102364 -0.15748031ZM72.519684 -0.15748031L72.047249 -0.15748031L72.047249 0.15748031L72.519684 0.15748031L72.519684 -0.15748031ZM73.937012 -0.15748031L73.464569 -0.15748031L73.464569 0.15748031L73.937012 0.15748031L73.937012 -0.15748031ZM75.354332 -0.15748031L74.881889 -0.15748031L74.881889 0.15748031L75.354332 0.15748031L75.354332 -0.15748031ZM76.771652 -0.15748031L76.299217 -0.15748031L76.299217 0.15748031L76.771652 0.15748031L76.771652 -0.15748031ZM78.18898 -0.15748031L77.716537 -0.15748031L77.716537 0.15748031L78.18898 0.15748031L78.18898 -0.15748031ZM79.6063 -0.15748031L79.133858 -0.15748031L79.133858 0.15748031L79.6063 0.15748031L79.6063 -0.15748031ZM81.023621 -0.15748031L80.551186 -0.15748031L80.551186 0.15748031L81.023621 0.15748031L81.023621 -0.15748031ZM82.440948 -0.15748031L81.968506 -0.15748031L81.968506 0.15748031L82.440948 0.15748031L82.440948 -0.15748031ZM83.858269 -0.15748031L83.385826 -0.15748031L83.385826 0.15748031L83.858269 0.15748031L83.858269 -0.15748031ZM85.275597 -0.15748031L84.803154 -0.15748031L84.803154 0.15748031L85.275597 0.15748031L85.275597 -0.15748031ZM86.692917 -0.15748031L86.220474 -0.15748031L86.220474 0.15748031L86.692917 0.15748031L86.692917 -0.15748031ZM88.110237 -0.15748031L87.637794 -0.15748031L87.637794 0.15748031L88.110237 0.15748031L88.110237 -0.15748031ZM89.527565 -0.15748031L89.055122 -0.15748031L89.055122 0.15748031L89.527565 0.15748031L89.527565 -0.15748031ZM90.944885 -0.15748031L90.472443 -0.15748031L90.472443 0.15748031L90.944885 0.15748031L90.944885 -0.15748031ZM91.889999 -0.15748031L91.889763 -0.15748031L91.889763 0.15748031L91.889999 0.15748031L91.889999 -0.15748031Z" fill-rule="evenodd" transform="translate(13.819, 17.717)" fill="#000000" opacity="0.2"></path><path d="M0.23622048 -0.15748031L0 -0.15748031L0 0.15748031L0.23622048 0.15748031L0.23622048 -0.15748031ZM1.6535434 -0.15748031L1.1811024 -0.15748031L1.1811024 0.15748031L1.6535434 0.15748031L1.6535434 -0.15748031ZM3.0708661 -0.15748031L2.5984254 -0.15748031L2.5984254 0.15748031L3.0708661 0.15748031L3.0708661 -0.15748031ZM4.4881892 -0.15748031L4.015748 -0.15748031L4.015748 0.15748031L4.4881892 0.15748031L4.4881892 -0.15748031ZM5.9055119 -0.15748031L5.4330711 -0.15748031L5.4330711 0.15748031L5.9055119 0.15748031L5.9055119 -0.15748031ZM7.322835 -0.15748031L6.8503938 -0.15748031L6.8503938 0.15748031L7.322835 0.15748031L7.322835 -0.15748031ZM8.7401581 -0.15748031L8.2677164 -0.15748031L8.2677164 0.15748031L8.7401581 0.15748031L8.7401581 -0.15748031ZM10.15748 -0.15748031L9.6850395 -0.15748031L9.6850395 0.15748031L10.15748 0.15748031L10.15748 -0.15748031ZM11.574803 -0.15748031L11.102363 -0.15748031L11.102363 0.15748031L11.574803 0.15748031L11.574803 -0.15748031ZM12.992126 -0.15748031L12.519686 -0.15748031L12.519686 0.15748031L12.992126 0.15748031L12.992126 -0.15748031ZM14.40945 -0.15748031L13.937008 -0.15748031L13.937008 0.15748031L14.40945 0.15748031L14.40945 -0.15748031ZM15.826772 -0.15748031L15.354331 -0.15748031L15.354331 0.15748031L15.826772 0.15748031L15.826772 -0.15748031ZM17.244095 -0.15748031L16.771654 -0.15748031L16.771654 0.15748031L17.244095 0.15748031L17.244095 -0.15748031ZM18.661417 -0.15748031L18.188976 -0.15748031L18.188976 0.15748031L18.661417 0.15748031L18.661417 -0.15748031ZM20.078741 -0.15748031L19.6063 -0.15748031L19.6063 0.15748031L20.078741 0.15748031L20.078741 -0.15748031ZM21.496063 -0.15748031L21.023623 -0.15748031L21.023623 0.15748031L21.496063 0.15748031L21.496063 -0.15748031ZM22.913387 -0.15748031L22.440945 -0.15748031L22.440945 0.15748031L22.913387 0.15748031L22.913387 -0.15748031ZM24.330709 -0.15748031L23.858269 -0.15748031L23.858269 0.15748031L24.330709 0.15748031L24.330709 -0.15748031ZM25.748032 -0.15748031L25.275591 -0.15748031L25.275591 0.15748031L25.748032 0.15748031L25.748032 -0.15748031ZM27.165356 -0.15748031L26.692915 -0.15748031L26.692915 0.15748031L27.165356 0.15748031L27.165356 -0.15748031ZM28.582678 -0.15748031L28.110237 -0.15748031L28.110237 0.15748031L28.582678 0.15748031L28.582678 -0.15748031ZM30 -0.15748031L29.527559 -0.15748031L29.527559 0.15748031L30 0.15748031L30 -0.15748031ZM31.417324 -0.15748031L30.944883 -0.15748031L30.944883 0.15748031L31.417324 0.15748031L31.417324 -0.15748031ZM32.834648 -0.15748031L32.362206 -0.15748031L32.362206 0.15748031L32.834648 0.15748031L32.834648 -0.15748031ZM34.251968 -0.15748031L33.77953 -0.15748031L33.77953 0.15748031L34.251968 0.15748031L34.251968 -0.15748031ZM35.669292 -0.15748031L35.19685 -0.15748031L35.19685 0.15748031L35.669292 0.15748031L35.669292 -0.15748031ZM37.086617 -0.15748031L36.614174 -0.15748031L36.614174 0.15748031L37.086617 0.15748031L37.086617 -0.15748031ZM38.503937 -0.15748031L38.031498 -0.15748031L38.031498 0.15748031L38.503937 0.15748031L38.503937 -0.15748031ZM39.921261 -0.15748031L39.448818 -0.15748031L39.448818 0.15748031L39.921261 0.15748031L39.921261 -0.15748031ZM41.338585 -0.15748031L40.866142 -0.15748031L40.866142 0.15748031L41.338585 0.15748031L41.338585 -0.15748031ZM42.755905 -0.15748031L42.283466 -0.15748031L42.283466 0.15748031L42.755905 0.15748031L42.755905 -0.15748031ZM44.173229 -0.15748031L43.70079 -0.15748031L43.70079 0.15748031L44.173229 0.15748031L44.173229 -0.15748031ZM45.590553 -0.15748031L45.118111 -0.15748031L45.118111 0.15748031L45.590553 0.15748031L45.590553 -0.15748031ZM47.007874 -0.15748031L46.535435 -0.15748031L46.535435 0.15748031L47.007874 0.15748031L47.007874 -0.15748031ZM48.425198 -0.15748031L47.952759 -0.15748031L47.952759 0.15748031L48.425198 0.15748031L48.425198 -0.15748031ZM49.842522 -0.15748031L49.370079 -0.15748031L49.370079 0.15748031L49.842522 0.15748031L49.842522 -0.15748031ZM51.259846 -0.15748031L50.787403 -0.15748031L50.787403 0.15748031L51.259846 0.15748031L51.259846 -0.15748031ZM52.677166 -0.15748031L52.204727 -0.15748031L52.204727 0.15748031L52.677166 0.15748031L52.677166 -0.15748031ZM54.09449 -0.15748031L53.622047 -0.15748031L53.622047 0.15748031L54.09449 0.15748031L54.09449 -0.15748031ZM55.511814 -0.15748031L55.039371 -0.15748031L55.039371 0.15748031L55.511814 0.15748031L55.511814 -0.15748031ZM56.929134 -0.15748031L56.456696 -0.15748031L56.456696 0.15748031L56.929134 0.15748031L56.929134 -0.15748031ZM58.346458 -0.15748031L57.874016 -0.15748031L57.874016 0.15748031L58.346458 0.15748031L58.346458 -0.15748031ZM59.763783 -0.15748031L59.29134 -0.15748031L59.29134 0.15748031L59.763783 0.15748031L59.763783 -0.15748031ZM61.181103 -0.15748031L60.708664 -0.15748031L60.708664 0.15748031L61.181103 0.15748031L61.181103 -0.15748031ZM62.598427 -0.15748031L62.125984 -0.15748031L62.125984 0.15748031L62.598427 0.15748031L62.598427 -0.15748031ZM64.015747 -0.15748031L63.543308 -0.15748031L63.543308 0.15748031L64.015747 0.15748031L64.015747 -0.15748031ZM65.433075 -0.15748031L64.960632 -0.15748031L64.960632 0.15748031L65.433075 0.15748031L65.433075 -0.15748031ZM66.850395 -0.15748031L66.377953 -0.15748031L66.377953 0.15748031L66.850395 0.15748031L66.850395 -0.15748031ZM68.267715 -0.15748031L67.79528 -0.15748031L67.79528 0.15748031L68.267715 0.15748031L68.267715 -0.15748031ZM69.685043 -0.15748031L69.212601 -0.15748031L69.212601 0.15748031L69.685043 0.15748031L69.685043 -0.15748031ZM71.102364 -0.15748031L70.629921 -0.15748031L70.629921 0.15748031L71.102364 0.15748031L71.102364 -0.15748031ZM72.519684 -0.15748031L72.047249 -0.15748031L72.047249 0.15748031L72.519684 0.15748031L72.519684 -0.15748031ZM73.937012 -0.15748031L73.464569 -0.15748031L73.464569 0.15748031L73.937012 0.15748031L73.937012 -0.15748031ZM75.354332 -0.15748031L74.881889 -0.15748031L74.881889 0.15748031L75.354332 0.15748031L75.354332 -0.15748031ZM76.771652 -0.15748031L76.299217 -0.15748031L76.299217 0.15748031L76.771652 0.15748031L76.771652 -0.15748031ZM78.18898 -0.15748031L77.716537 -0.15748031L77.716537 0.15748031L78.18898 0.15748031L78.18898 -0.15748031ZM79.6063 -0.15748031L79.133858 -0.15748031L79.133858 0.15748031L79.6063 0.15748031L79.6063 -0.15748031ZM81.023621 -0.15748031L80.551186 -0.15748031L80.551186 0.15748031L81.023621 0.15748031L81.023621 -0.15748031ZM82.440948 -0.15748031L81.968506 -0.15748031L81.968506 0.15748031L82.440948 0.15748031L82.440948 -0.15748031ZM83.858269 -0.15748031L83.385826 -0.15748031L83.385826 0.15748031L83.858269 0.15748031L83.858269 -0.15748031ZM85.275597 -0.15748031L84.803154 -0.15748031L84.803154 0.15748031L85.275597 0.15748031L85.275597 -0.15748031ZM86.692917 -0.15748031L86.220474 -0.15748031L86.220474 0.15748031L86.692917 0.15748031L86.692917 -0.15748031ZM88.110237 -0.15748031L87.637794 -0.15748031L87.637794 0.15748031L88.110237 0.15748031L88.110237 -0.15748031ZM89.527565 -0.15748031L89.055122 -0.15748031L89.055122 0.15748031L89.527565 0.15748031L89.527565 -0.15748031ZM90.944885 -0.15748031L90.472443 -0.15748031L90.472443 0.15748031L90.944885 0.15748031L90.944885 -0.15748031ZM91.889999 -0.15748031L91.889763 -0.15748031L91.889763 0.15748031L91.889999 0.15748031L91.889999 -0.15748031Z" fill-rule="evenodd" transform="translate(13.819, 26.457)" fill="#000000" opacity="0.2"></path><path d="M0.23622048 -0.15748031L0 -0.15748031L0 0.15748031L0.23622048 0.15748031L0.23622048 -0.15748031ZM1.6535434 -0.15748031L1.1811024 -0.15748031L1.1811024 0.15748031L1.6535434 0.15748031L1.6535434 -0.15748031ZM3.0708661 -0.15748031L2.5984254 -0.15748031L2.5984254 0.15748031L3.0708661 0.15748031L3.0708661 -0.15748031ZM4.4881892 -0.15748031L4.015748 -0.15748031L4.015748 0.15748031L4.4881892 0.15748031L4.4881892 -0.15748031ZM5.9055119 -0.15748031L5.4330711 -0.15748031L5.4330711 0.15748031L5.9055119 0.15748031L5.9055119 -0.15748031ZM7.322835 -0.15748031L6.8503938 -0.15748031L6.8503938 0.15748031L7.322835 0.15748031L7.322835 -0.15748031ZM8.7401581 -0.15748031L8.2677164 -0.15748031L8.2677164 0.15748031L8.7401581 0.15748031L8.7401581 -0.15748031ZM10.15748 -0.15748031L9.6850395 -0.15748031L9.6850395 0.15748031L10.15748 0.15748031L10.15748 -0.15748031ZM11.574803 -0.15748031L11.102363 -0.15748031L11.102363 0.15748031L11.574803 0.15748031L11.574803 -0.15748031ZM12.992126 -0.15748031L12.519686 -0.15748031L12.519686 0.15748031L12.992126 0.15748031L12.992126 -0.15748031ZM14.40945 -0.15748031L13.937008 -0.15748031L13.937008 0.15748031L14.40945 0.15748031L14.40945 -0.15748031ZM15.826772 -0.15748031L15.354331 -0.15748031L15.354331 0.15748031L15.826772 0.15748031L15.826772 -0.15748031ZM17.244095 -0.15748031L16.771654 -0.15748031L16.771654 0.15748031L17.244095 0.15748031L17.244095 -0.15748031ZM18.661417 -0.15748031L18.188976 -0.15748031L18.188976 0.15748031L18.661417 0.15748031L18.661417 -0.15748031ZM20.078741 -0.15748031L19.6063 -0.15748031L19.6063 0.15748031L20.078741 0.15748031L20.078741 -0.15748031ZM21.496063 -0.15748031L21.023623 -0.15748031L21.023623 0.15748031L21.496063 0.15748031L21.496063 -0.15748031ZM22.913387 -0.15748031L22.440945 -0.15748031L22.440945 0.15748031L22.913387 0.15748031L22.913387 -0.15748031ZM24.330709 -0.15748031L23.858269 -0.15748031L23.858269 0.15748031L24.330709 0.15748031L24.330709 -0.15748031ZM25.748032 -0.15748031L25.275591 -0.15748031L25.275591 0.15748031L25.748032 0.15748031L25.748032 -0.15748031ZM27.165356 -0.15748031L26.692915 -0.15748031L26.692915 0.15748031L27.165356 0.15748031L27.165356 -0.15748031ZM28.582678 -0.15748031L28.110237 -0.15748031L28.110237 0.15748031L28.582678 0.15748031L28.582678 -0.15748031ZM30 -0.15748031L29.527559 -0.15748031L29.527559 0.15748031L30 0.15748031L30 -0.15748031ZM31.417324 -0.15748031L30.944883 -0.15748031L30.944883 0.15748031L31.417324 0.15748031L31.417324 -0.15748031ZM32.834648 -0.15748031L32.362206 -0.15748031L32.362206 0.15748031L32.834648 0.15748031L32.834648 -0.15748031ZM34.251968 -0.15748031L33.77953 -0.15748031L33.77953 0.15748031L34.251968 0.15748031L34.251968 -0.15748031ZM35.669292 -0.15748031L35.19685 -0.15748031L35.19685 0.15748031L35.669292 0.15748031L35.669292 -0.15748031ZM37.086617 -0.15748031L36.614174 -0.15748031L36.614174 0.15748031L37.086617 0.15748031L37.086617 -0.15748031ZM38.503937 -0.15748031L38.031498 -0.15748031L38.031498 0.15748031L38.503937 0.15748031L38.503937 -0.15748031ZM39.921261 -0.15748031L39.448818 -0.15748031L39.448818 0.15748031L39.921261 0.15748031L39.921261 -0.15748031ZM41.338585 -0.15748031L40.866142 -0.15748031L40.866142 0.15748031L41.338585 0.15748031L41.338585 -0.15748031ZM42.755905 -0.15748031L42.283466 -0.15748031L42.283466 0.15748031L42.755905 0.15748031L42.755905 -0.15748031ZM44.173229 -0.15748031L43.70079 -0.15748031L43.70079 0.15748031L44.173229 0.15748031L44.173229 -0.15748031ZM45.590553 -0.15748031L45.118111 -0.15748031L45.118111 0.15748031L45.590553 0.15748031L45.590553 -0.15748031ZM47.007874 -0.15748031L46.535435 -0.15748031L46.535435 0.15748031L47.007874 0.15748031L47.007874 -0.15748031ZM48.425198 -0.15748031L47.952759 -0.15748031L47.952759 0.15748031L48.425198 0.15748031L48.425198 -0.15748031ZM49.842522 -0.15748031L49.370079 -0.15748031L49.370079 0.15748031L49.842522 0.15748031L49.842522 -0.15748031ZM51.259846 -0.15748031L50.787403 -0.15748031L50.787403 0.15748031L51.259846 0.15748031L51.259846 -0.15748031ZM52.677166 -0.15748031L52.204727 -0.15748031L52.204727 0.15748031L52.677166 0.15748031L52.677166 -0.15748031ZM54.09449 -0.15748031L53.622047 -0.15748031L53.622047 0.15748031L54.09449 0.15748031L54.09449 -0.15748031ZM55.511814 -0.15748031L55.039371 -0.15748031L55.039371 0.15748031L55.511814 0.15748031L55.511814 -0.15748031ZM56.929134 -0.15748031L56.456696 -0.15748031L56.456696 0.15748031L56.929134 0.15748031L56.929134 -0.15748031ZM58.346458 -0.15748031L57.874016 -0.15748031L57.874016 0.15748031L58.346458 0.15748031L58.346458 -0.15748031ZM59.763783 -0.15748031L59.29134 -0.15748031L59.29134 0.15748031L59.763783 0.15748031L59.763783 -0.15748031ZM61.181103 -0.15748031L60.708664 -0.15748031L60.708664 0.15748031L61.181103 0.15748031L61.181103 -0.15748031ZM62.598427 -0.15748031L62.125984 -0.15748031L62.125984 0.15748031L62.598427 0.15748031L62.598427 -0.15748031ZM64.015747 -0.15748031L63.543308 -0.15748031L63.543308 0.15748031L64.015747 0.15748031L64.015747 -0.15748031ZM65.433075 -0.15748031L64.960632 -0.15748031L64.960632 0.15748031L65.433075 0.15748031L65.433075 -0.15748031ZM66.850395 -0.15748031L66.377953 -0.15748031L66.377953 0.15748031L66.850395 0.15748031L66.850395 -0.15748031ZM68.267715 -0.15748031L67.79528 -0.15748031L67.79528 0.15748031L68.267715 0.15748031L68.267715 -0.15748031ZM69.685043 -0.15748031L69.212601 -0.15748031L69.212601 0.15748031L69.685043 0.15748031L69.685043 -0.15748031ZM71.102364 -0.15748031L70.629921 -0.15748031L70.629921 0.15748031L71.102364 0.15748031L71.102364 -0.15748031ZM72.519684 -0.15748031L72.047249 -0.15748031L72.047249 0.15748031L72.519684 0.15748031L72.519684 -0.15748031ZM73.937012 -0.15748031L73.464569 -0.15748031L73.464569 0.15748031L73.937012 0.15748031L73.937012 -0.15748031ZM75.354332 -0.15748031L74.881889 -0.15748031L74.881889 0.15748031L75.354332 0.15748031L75.354332 -0.15748031ZM76.771652 -0.15748031L76.299217 -0.15748031L76.299217 0.15748031L76.771652 0.15748031L76.771652 -0.15748031ZM78.18898 -0.15748031L77.716537 -0.15748031L77.716537 0.15748031L78.18898 0.15748031L78.18898 -0.15748031ZM79.6063 -0.15748031L79.133858 -0.15748031L79.133858 0.15748031L79.6063 0.15748031L79.6063 -0.15748031ZM81.023621 -0.15748031L80.551186 -0.15748031L80.551186 0.15748031L81.023621 0.15748031L81.023621 -0.15748031ZM82.440948 -0.15748031L81.968506 -0.15748031L81.968506 0.15748031L82.440948 0.15748031L82.440948 -0.15748031ZM83.858269 -0.15748031L83.385826 -0.15748031L83.385826 0.15748031L83.858269 0.15748031L83.858269 -0.15748031ZM85.275597 -0.15748031L84.803154 -0.15748031L84.803154 0.15748031L85.275597 0.15748031L85.275597 -0.15748031ZM86.692917 -0.15748031L86.220474 -0.15748031L86.220474 0.15748031L86.692917 0.15748031L86.692917 -0.15748031ZM88.110237 -0.15748031L87.637794 -0.15748031L87.637794 0.15748031L88.110237 0.15748031L88.110237 -0.15748031ZM89.527565 -0.15748031L89.055122 -0.15748031L89.055122 0.15748031L89.527565 0.15748031L89.527565 -0.15748031ZM90.944885 -0.15748031L90.472443 -0.15748031L90.472443 0.15748031L90.944885 0.15748031L90.944885 -0.15748031ZM91.889999 -0.15748031L91.889763 -0.15748031L91.889763 0.15748031L91.889999 0.15748031L91.889999 -0.15748031Z" fill-rule="evenodd" transform="translate(13.819, 35.197)" fill="#000000" opacity="0.2"></path><path d="M0.23622048 -0.15748031L0 -0.15748031L0 0.15748031L0.23622048 0.15748031L0.23622048 -0.15748031ZM1.6535434 -0.15748031L1.1811024 -0.15748031L1.1811024 0.15748031L1.6535434 0.15748031L1.6535434 -0.15748031ZM3.0708661 -0.15748031L2.5984254 -0.15748031L2.5984254 0.15748031L3.0708661 0.15748031L3.0708661 -0.15748031ZM4.4881892 -0.15748031L4.015748 -0.15748031L4.015748 0.15748031L4.4881892 0.15748031L4.4881892 -0.15748031ZM5.9055119 -0.15748031L5.4330711 -0.15748031L5.4330711 0.15748031L5.9055119 0.15748031L5.9055119 -0.15748031ZM7.322835 -0.15748031L6.8503938 -0.15748031L6.8503938 0.15748031L7.322835 0.15748031L7.322835 -0.15748031ZM8.7401581 -0.15748031L8.2677164 -0.15748031L8.2677164 0.15748031L8.7401581 0.15748031L8.7401581 -0.15748031ZM10.15748 -0.15748031L9.6850395 -0.15748031L9.6850395 0.15748031L10.15748 0.15748031L10.15748 -0.15748031ZM11.574803 -0.15748031L11.102363 -0.15748031L11.102363 0.15748031L11.574803 0.15748031L11.574803 -0.15748031ZM12.992126 -0.15748031L12.519686 -0.15748031L12.519686 0.15748031L12.992126 0.15748031L12.992126 -0.15748031ZM14.40945 -0.15748031L13.937008 -0.15748031L13.937008 0.15748031L14.40945 0.15748031L14.40945 -0.15748031ZM15.826772 -0.15748031L15.354331 -0.15748031L15.354331 0.15748031L15.826772 0.15748031L15.826772 -0.15748031ZM17.244095 -0.15748031L16.771654 -0.15748031L16.771654 0.15748031L17.244095 0.15748031L17.244095 -0.15748031ZM18.661417 -0.15748031L18.188976 -0.15748031L18.188976 0.15748031L18.661417 0.15748031L18.661417 -0.15748031ZM20.078741 -0.15748031L19.6063 -0.15748031L19.6063 0.15748031L20.078741 0.15748031L20.078741 -0.15748031ZM21.496063 -0.15748031L21.023623 -0.15748031L21.023623 0.15748031L21.496063 0.15748031L21.496063 -0.15748031ZM22.913387 -0.15748031L22.440945 -0.15748031L22.440945 0.15748031L22.913387 0.15748031L22.913387 -0.15748031ZM24.330709 -0.15748031L23.858269 -0.15748031L23.858269 0.15748031L24.330709 0.15748031L24.330709 -0.15748031ZM25.748032 -0.15748031L25.275591 -0.15748031L25.275591 0.15748031L25.748032 0.15748031L25.748032 -0.15748031ZM27.165356 -0.15748031L26.692915 -0.15748031L26.692915 0.15748031L27.165356 0.15748031L27.165356 -0.15748031ZM28.582678 -0.15748031L28.110237 -0.15748031L28.110237 0.15748031L28.582678 0.15748031L28.582678 -0.15748031ZM30 -0.15748031L29.527559 -0.15748031L29.527559 0.15748031L30 0.15748031L30 -0.15748031ZM31.417324 -0.15748031L30.944883 -0.15748031L30.944883 0.15748031L31.417324 0.15748031L31.417324 -0.15748031ZM32.834648 -0.15748031L32.362206 -0.15748031L32.362206 0.15748031L32.834648 0.15748031L32.834648 -0.15748031ZM34.251968 -0.15748031L33.77953 -0.15748031L33.77953 0.15748031L34.251968 0.15748031L34.251968 -0.15748031ZM35.669292 -0.15748031L35.19685 -0.15748031L35.19685 0.15748031L35.669292 0.15748031L35.669292 -0.15748031ZM37.086617 -0.15748031L36.614174 -0.15748031L36.614174 0.15748031L37.086617 0.15748031L37.086617 -0.15748031ZM38.503937 -0.15748031L38.031498 -0.15748031L38.031498 0.15748031L38.503937 0.15748031L38.503937 -0.15748031ZM39.921261 -0.15748031L39.448818 -0.15748031L39.448818 0.15748031L39.921261 0.15748031L39.921261 -0.15748031ZM41.338585 -0.15748031L40.866142 -0.15748031L40.866142 0.15748031L41.338585 0.15748031L41.338585 -0.15748031ZM42.755905 -0.15748031L42.283466 -0.15748031L42.283466 0.15748031L42.755905 0.15748031L42.755905 -0.15748031ZM44.173229 -0.15748031L43.70079 -0.15748031L43.70079 0.15748031L44.173229 0.15748031L44.173229 -0.15748031ZM45.590553 -0.15748031L45.118111 -0.15748031L45.118111 0.15748031L45.590553 0.15748031L45.590553 -0.15748031ZM47.007874 -0.15748031L46.535435 -0.15748031L46.535435 0.15748031L47.007874 0.15748031L47.007874 -0.15748031ZM48.425198 -0.15748031L47.952759 -0.15748031L47.952759 0.15748031L48.425198 0.15748031L48.425198 -0.15748031ZM49.842522 -0.15748031L49.370079 -0.15748031L49.370079 0.15748031L49.842522 0.15748031L49.842522 -0.15748031ZM51.259846 -0.15748031L50.787403 -0.15748031L50.787403 0.15748031L51.259846 0.15748031L51.259846 -0.15748031ZM52.677166 -0.15748031L52.204727 -0.15748031L52.204727 0.15748031L52.677166 0.15748031L52.677166 -0.15748031ZM54.09449 -0.15748031L53.622047 -0.15748031L53.622047 0.15748031L54.09449 0.15748031L54.09449 -0.15748031ZM55.511814 -0.15748031L55.039371 -0.15748031L55.039371 0.15748031L55.511814 0.15748031L55.511814 -0.15748031ZM56.929134 -0.15748031L56.456696 -0.15748031L56.456696 0.15748031L56.929134 0.15748031L56.929134 -0.15748031ZM58.346458 -0.15748031L57.874016 -0.15748031L57.874016 0.15748031L58.346458 0.15748031L58.346458 -0.15748031ZM59.763783 -0.15748031L59.29134 -0.15748031L59.29134 0.15748031L59.763783 0.15748031L59.763783 -0.15748031ZM61.181103 -0.15748031L60.708664 -0.15748031L60.708664 0.15748031L61.181103 0.15748031L61.181103 -0.15748031ZM62.598427 -0.15748031L62.125984 -0.15748031L62.125984 0.15748031L62.598427 0.15748031L62.598427 -0.15748031ZM64.015747 -0.15748031L63.543308 -0.15748031L63.543308 0.15748031L64.015747 0.15748031L64.015747 -0.15748031ZM65.433075 -0.15748031L64.960632 -0.15748031L64.960632 0.15748031L65.433075 0.15748031L65.433075 -0.15748031ZM66.850395 -0.15748031L66.377953 -0.15748031L66.377953 0.15748031L66.850395 0.15748031L66.850395 -0.15748031ZM68.267715 -0.15748031L67.79528 -0.15748031L67.79528 0.15748031L68.267715 0.15748031L68.267715 -0.15748031ZM69.685043 -0.15748031L69.212601 -0.15748031L69.212601 0.15748031L69.685043 0.15748031L69.685043 -0.15748031ZM71.102364 -0.15748031L70.629921 -0.15748031L70.629921 0.15748031L71.102364 0.15748031L71.102364 -0.15748031ZM72.519684 -0.15748031L72.047249 -0.15748031L72.047249 0.15748031L72.519684 0.15748031L72.519684 -0.15748031ZM73.937012 -0.15748031L73.464569 -0.15748031L73.464569 0.15748031L73.937012 0.15748031L73.937012 -0.15748031ZM75.354332 -0.15748031L74.881889 -0.15748031L74.881889 0.15748031L75.354332 0.15748031L75.354332 -0.15748031ZM76.771652 -0.15748031L76.299217 -0.15748031L76.299217 0.15748031L76.771652 0.15748031L76.771652 -0.15748031ZM78.18898 -0.15748031L77.716537 -0.15748031L77.716537 0.15748031L78.18898 0.15748031L78.18898 -0.15748031ZM79.6063 -0.15748031L79.133858 -0.15748031L79.133858 0.15748031L79.6063 0.15748031L79.6063 -0.15748031ZM81.023621 -0.15748031L80.551186 -0.15748031L80.551186 0.15748031L81.023621 0.15748031L81.023621 -0.15748031ZM82.440948 -0.15748031L81.968506 -0.15748031L81.968506 0.15748031L82.440948 0.15748031L82.440948 -0.15748031ZM83.858269 -0.15748031L83.385826 -0.15748031L83.385826 0.15748031L83.858269 0.15748031L83.858269 -0.15748031ZM85.275597 -0.15748031L84.803154 -0.15748031L84.803154 0.15748031L85.275597 0.15748031L85.275597 -0.15748031ZM86.692917 -0.15748031L86.220474 -0.15748031L86.220474 0.15748031L86.692917 0.15748031L86.692917 -0.15748031ZM88.110237 -0.15748031L87.637794 -0.15748031L87.637794 0.15748031L88.110237 0.15748031L88.110237 -0.15748031ZM89.527565 -0.15748031L89.055122 -0.15748031L89.055122 0.15748031L89.527565 0.15748031L89.527565 -0.15748031ZM90.944885 -0.15748031L90.472443 -0.15748031L90.472443 0.15748031L90.944885 0.15748031L90.944885 -0.15748031ZM91.889999 -0.15748031L91.889763 -0.15748031L91.889763 0.15748031L91.889999 0.15748031L91.889999 -0.15748031Z" fill-rule="evenodd" transform="translate(13.819, 43.937)" fill="#000000" opacity="0.2"></path><path d="M0.23622048 -0.15748031L0 -0.15748031L0 0.15748031L0.23622048 0.15748031L0.23622048 -0.15748031ZM1.6535434 -0.15748031L1.1811024 -0.15748031L1.1811024 0.15748031L1.6535434 0.15748031L1.6535434 -0.15748031ZM3.0708661 -0.15748031L2.5984254 -0.15748031L2.5984254 0.15748031L3.0708661 0.15748031L3.0708661 -0.15748031ZM4.4881892 -0.15748031L4.015748 -0.15748031L4.015748 0.15748031L4.4881892 0.15748031L4.4881892 -0.15748031ZM5.9055119 -0.15748031L5.4330711 -0.15748031L5.4330711 0.15748031L5.9055119 0.15748031L5.9055119 -0.15748031ZM7.322835 -0.15748031L6.8503938 -0.15748031L6.8503938 0.15748031L7.322835 0.15748031L7.322835 -0.15748031ZM8.7401581 -0.15748031L8.2677164 -0.15748031L8.2677164 0.15748031L8.7401581 0.15748031L8.7401581 -0.15748031ZM10.15748 -0.15748031L9.6850395 -0.15748031L9.6850395 0.15748031L10.15748 0.15748031L10.15748 -0.15748031ZM11.574803 -0.15748031L11.102363 -0.15748031L11.102363 0.15748031L11.574803 0.15748031L11.574803 -0.15748031ZM12.992126 -0.15748031L12.519686 -0.15748031L12.519686 0.15748031L12.992126 0.15748031L12.992126 -0.15748031ZM14.40945 -0.15748031L13.937008 -0.15748031L13.937008 0.15748031L14.40945 0.15748031L14.40945 -0.15748031ZM15.826772 -0.15748031L15.354331 -0.15748031L15.354331 0.15748031L15.826772 0.15748031L15.826772 -0.15748031ZM17.244095 -0.15748031L16.771654 -0.15748031L16.771654 0.15748031L17.244095 0.15748031L17.244095 -0.15748031ZM18.661417 -0.15748031L18.188976 -0.15748031L18.188976 0.15748031L18.661417 0.15748031L18.661417 -0.15748031ZM20.078741 -0.15748031L19.6063 -0.15748031L19.6063 0.15748031L20.078741 0.15748031L20.078741 -0.15748031ZM21.496063 -0.15748031L21.023623 -0.15748031L21.023623 0.15748031L21.496063 0.15748031L21.496063 -0.15748031ZM22.913387 -0.15748031L22.440945 -0.15748031L22.440945 0.15748031L22.913387 0.15748031L22.913387 -0.15748031ZM24.330709 -0.15748031L23.858269 -0.15748031L23.858269 0.15748031L24.330709 0.15748031L24.330709 -0.15748031ZM25.748032 -0.15748031L25.275591 -0.15748031L25.275591 0.15748031L25.748032 0.15748031L25.748032 -0.15748031ZM27.165356 -0.15748031L26.692915 -0.15748031L26.692915 0.15748031L27.165356 0.15748031L27.165356 -0.15748031ZM28.582678 -0.15748031L28.110237 -0.15748031L28.110237 0.15748031L28.582678 0.15748031L28.582678 -0.15748031ZM30 -0.15748031L29.527559 -0.15748031L29.527559 0.15748031L30 0.15748031L30 -0.15748031ZM31.417324 -0.15748031L30.944883 -0.15748031L30.944883 0.15748031L31.417324 0.15748031L31.417324 -0.15748031ZM32.834648 -0.15748031L32.362206 -0.15748031L32.362206 0.15748031L32.834648 0.15748031L32.834648 -0.15748031ZM34.251968 -0.15748031L33.77953 -0.15748031L33.77953 0.15748031L34.251968 0.15748031L34.251968 -0.15748031ZM35.669292 -0.15748031L35.19685 -0.15748031L35.19685 0.15748031L35.669292 0.15748031L35.669292 -0.15748031ZM37.086617 -0.15748031L36.614174 -0.15748031L36.614174 0.15748031L37.086617 0.15748031L37.086617 -0.15748031ZM38.503937 -0.15748031L38.031498 -0.15748031L38.031498 0.15748031L38.503937 0.15748031L38.503937 -0.15748031ZM39.921261 -0.15748031L39.448818 -0.15748031L39.448818 0.15748031L39.921261 0.15748031L39.921261 -0.15748031ZM41.338585 -0.15748031L40.866142 -0.15748031L40.866142 0.15748031L41.338585 0.15748031L41.338585 -0.15748031ZM42.755905 -0.15748031L42.283466 -0.15748031L42.283466 0.15748031L42.755905 0.15748031L42.755905 -0.15748031ZM44.173229 -0.15748031L43.70079 -0.15748031L43.70079 0.15748031L44.173229 0.15748031L44.173229 -0.15748031ZM45.590553 -0.15748031L45.118111 -0.15748031L45.118111 0.15748031L45.590553 0.15748031L45.590553 -0.15748031ZM47.007874 -0.15748031L46.535435 -0.15748031L46.535435 0.15748031L47.007874 0.15748031L47.007874 -0.15748031ZM48.425198 -0.15748031L47.952759 -0.15748031L47.952759 0.15748031L48.425198 0.15748031L48.425198 -0.15748031ZM49.842522 -0.15748031L49.370079 -0.15748031L49.370079 0.15748031L49.842522 0.15748031L49.842522 -0.15748031ZM51.259846 -0.15748031L50.787403 -0.15748031L50.787403 0.15748031L51.259846 0.15748031L51.259846 -0.15748031ZM52.677166 -0.15748031L52.204727 -0.15748031L52.204727 0.15748031L52.677166 0.15748031L52.677166 -0.15748031ZM54.09449 -0.15748031L53.622047 -0.15748031L53.622047 0.15748031L54.09449 0.15748031L54.09449 -0.15748031ZM55.511814 -0.15748031L55.039371 -0.15748031L55.039371 0.15748031L55.511814 0.15748031L55.511814 -0.15748031ZM56.929134 -0.15748031L56.456696 -0.15748031L56.456696 0.15748031L56.929134 0.15748031L56.929134 -0.15748031ZM58.346458 -0.15748031L57.874016 -0.15748031L57.874016 0.15748031L58.346458 0.15748031L58.346458 -0.15748031ZM59.763783 -0.15748031L59.29134 -0.15748031L59.29134 0.15748031L59.763783 0.15748031L59.763783 -0.15748031ZM61.181103 -0.15748031L60.708664 -0.15748031L60.708664 0.15748031L61.181103 0.15748031L61.181103 -0.15748031ZM62.598427 -0.15748031L62.125984 -0.15748031L62.125984 0.15748031L62.598427 0.15748031L62.598427 -0.15748031ZM64.015747 -0.15748031L63.543308 -0.15748031L63.543308 0.15748031L64.015747 0.15748031L64.015747 -0.15748031ZM65.433075 -0.15748031L64.960632 -0.15748031L64.960632 0.15748031L65.433075 0.15748031L65.433075 -0.15748031ZM66.850395 -0.15748031L66.377953 -0.15748031L66.377953 0.15748031L66.850395 0.15748031L66.850395 -0.15748031ZM68.267715 -0.15748031L67.79528 -0.15748031L67.79528 0.15748031L68.267715 0.15748031L68.267715 -0.15748031ZM69.685043 -0.15748031L69.212601 -0.15748031L69.212601 0.15748031L69.685043 0.15748031L69.685043 -0.15748031ZM71.102364 -0.15748031L70.629921 -0.15748031L70.629921 0.15748031L71.102364 0.15748031L71.102364 -0.15748031ZM72.519684 -0.15748031L72.047249 -0.15748031L72.047249 0.15748031L72.519684 0.15748031L72.519684 -0.15748031ZM73.937012 -0.15748031L73.464569 -0.15748031L73.464569 0.15748031L73.937012 0.15748031L73.937012 -0.15748031ZM75.354332 -0.15748031L74.881889 -0.15748031L74.881889 0.15748031L75.354332 0.15748031L75.354332 -0.15748031ZM76.771652 -0.15748031L76.299217 -0.15748031L76.299217 0.15748031L76.771652 0.15748031L76.771652 -0.15748031ZM78.18898 -0.15748031L77.716537 -0.15748031L77.716537 0.15748031L78.18898 0.15748031L78.18898 -0.15748031ZM79.6063 -0.15748031L79.133858 -0.15748031L79.133858 0.15748031L79.6063 0.15748031L79.6063 -0.15748031ZM81.023621 -0.15748031L80.551186 -0.15748031L80.551186 0.15748031L81.023621 0.15748031L81.023621 -0.15748031ZM82.440948 -0.15748031L81.968506 -0.15748031L81.968506 0.15748031L82.440948 0.15748031L82.440948 -0.15748031ZM83.858269 -0.15748031L83.385826 -0.15748031L83.385826 0.15748031L83.858269 0.15748031L83.858269 -0.15748031ZM85.275597 -0.15748031L84.803154 -0.15748031L84.803154 0.15748031L85.275597 0.15748031L85.275597 -0.15748031ZM86.692917 -0.15748031L86.220474 -0.15748031L86.220474 0.15748031L86.692917 0.15748031L86.692917 -0.15748031ZM88.110237 -0.15748031L87.637794 -0.15748031L87.637794 0.15748031L88.110237 0.15748031L88.110237 -0.15748031ZM89.527565 -0.15748031L89.055122 -0.15748031L89.055122 0.15748031L89.527565 0.15748031L89.527565 -0.15748031ZM90.944885 -0.15748031L90.472443 -0.15748031L90.472443 0.15748031L90.944885 0.15748031L90.944885 -0.15748031ZM91.889999 -0.15748031L91.889763 -0.15748031L91.889763 0.15748031L91.889999 0.15748031L91.889999 -0.15748031Z" fill-rule="evenodd" transform="translate(13.819, 52.677)" fill="#000000" opacity="0.2"></path><path d="M0.23622048 -0.15748031L0 -0.15748031L0 0.15748031L0.23622048 0.15748031L0.23622048 -0.15748031ZM1.6535434 -0.15748031L1.1811024 -0.15748031L1.1811024 0.15748031L1.6535434 0.15748031L1.6535434 -0.15748031ZM3.0708661 -0.15748031L2.5984254 -0.15748031L2.5984254 0.15748031L3.0708661 0.15748031L3.0708661 -0.15748031ZM4.4881892 -0.15748031L4.015748 -0.15748031L4.015748 0.15748031L4.4881892 0.15748031L4.4881892 -0.15748031ZM5.9055119 -0.15748031L5.4330711 -0.15748031L5.4330711 0.15748031L5.9055119 0.15748031L5.9055119 -0.15748031ZM7.322835 -0.15748031L6.8503938 -0.15748031L6.8503938 0.15748031L7.322835 0.15748031L7.322835 -0.15748031ZM8.7401581 -0.15748031L8.2677164 -0.15748031L8.2677164 0.15748031L8.7401581 0.15748031L8.7401581 -0.15748031ZM10.15748 -0.15748031L9.6850395 -0.15748031L9.6850395 0.15748031L10.15748 0.15748031L10.15748 -0.15748031ZM11.574803 -0.15748031L11.102363 -0.15748031L11.102363 0.15748031L11.574803 0.15748031L11.574803 -0.15748031ZM12.992126 -0.15748031L12.519686 -0.15748031L12.519686 0.15748031L12.992126 0.15748031L12.992126 -0.15748031ZM14.40945 -0.15748031L13.937008 -0.15748031L13.937008 0.15748031L14.40945 0.15748031L14.40945 -0.15748031ZM15.826772 -0.15748031L15.354331 -0.15748031L15.354331 0.15748031L15.826772 0.15748031L15.826772 -0.15748031ZM17.244095 -0.15748031L16.771654 -0.15748031L16.771654 0.15748031L17.244095 0.15748031L17.244095 -0.15748031ZM18.661417 -0.15748031L18.188976 -0.15748031L18.188976 0.15748031L18.661417 0.15748031L18.661417 -0.15748031ZM20.078741 -0.15748031L19.6063 -0.15748031L19.6063 0.15748031L20.078741 0.15748031L20.078741 -0.15748031ZM21.496063 -0.15748031L21.023623 -0.15748031L21.023623 0.15748031L21.496063 0.15748031L21.496063 -0.15748031ZM22.913387 -0.15748031L22.440945 -0.15748031L22.440945 0.15748031L22.913387 0.15748031L22.913387 -0.15748031ZM24.330709 -0.15748031L23.858269 -0.15748031L23.858269 0.15748031L24.330709 0.15748031L24.330709 -0.15748031ZM25.748032 -0.15748031L25.275591 -0.15748031L25.275591 0.15748031L25.748032 0.15748031L25.748032 -0.15748031ZM27.165356 -0.15748031L26.692915 -0.15748031L26.692915 0.15748031L27.165356 0.15748031L27.165356 -0.15748031ZM28.582678 -0.15748031L28.110237 -0.15748031L28.110237 0.15748031L28.582678 0.15748031L28.582678 -0.15748031ZM30 -0.15748031L29.527559 -0.15748031L29.527559 0.15748031L30 0.15748031L30 -0.15748031ZM31.417324 -0.15748031L30.944883 -0.15748031L30.944883 0.15748031L31.417324 0.15748031L31.417324 -0.15748031ZM32.834648 -0.15748031L32.362206 -0.15748031L32.362206 0.15748031L32.834648 0.15748031L32.834648 -0.15748031ZM34.251968 -0.15748031L33.77953 -0.15748031L33.77953 0.15748031L34.251968 0.15748031L34.251968 -0.15748031ZM35.669292 -0.15748031L35.19685 -0.15748031L35.19685 0.15748031L35.669292 0.15748031L35.669292 -0.15748031ZM37.086617 -0.15748031L36.614174 -0.15748031L36.614174 0.15748031L37.086617 0.15748031L37.086617 -0.15748031ZM38.503937 -0.15748031L38.031498 -0.15748031L38.031498 0.15748031L38.503937 0.15748031L38.503937 -0.15748031ZM39.921261 -0.15748031L39.448818 -0.15748031L39.448818 0.15748031L39.921261 0.15748031L39.921261 -0.15748031ZM41.338585 -0.15748031L40.866142 -0.15748031L40.866142 0.15748031L41.338585 0.15748031L41.338585 -0.15748031ZM42.755905 -0.15748031L42.283466 -0.15748031L42.283466 0.15748031L42.755905 0.15748031L42.755905 -0.15748031ZM44.173229 -0.15748031L43.70079 -0.15748031L43.70079 0.15748031L44.173229 0.15748031L44.173229 -0.15748031ZM45.590553 -0.15748031L45.118111 -0.15748031L45.118111 0.15748031L45.590553 0.15748031L45.590553 -0.15748031ZM47.007874 -0.15748031L46.535435 -0.15748031L46.535435 0.15748031L47.007874 0.15748031L47.007874 -0.15748031ZM48.425198 -0.15748031L47.952759 -0.15748031L47.952759 0.15748031L48.425198 0.15748031L48.425198 -0.15748031ZM49.842522 -0.15748031L49.370079 -0.15748031L49.370079 0.15748031L49.842522 0.15748031L49.842522 -0.15748031ZM51.259846 -0.15748031L50.787403 -0.15748031L50.787403 0.15748031L51.259846 0.15748031L51.259846 -0.15748031ZM52.677166 -0.15748031L52.204727 -0.15748031L52.204727 0.15748031L52.677166 0.15748031L52.677166 -0.15748031ZM54.09449 -0.15748031L53.622047 -0.15748031L53.622047 0.15748031L54.09449 0.15748031L54.09449 -0.15748031ZM55.511814 -0.15748031L55.039371 -0.15748031L55.039371 0.15748031L55.511814 0.15748031L55.511814 -0.15748031ZM56.929134 -0.15748031L56.456696 -0.15748031L56.456696 0.15748031L56.929134 0.15748031L56.929134 -0.15748031ZM58.346458 -0.15748031L57.874016 -0.15748031L57.874016 0.15748031L58.346458 0.15748031L58.346458 -0.15748031ZM59.763783 -0.15748031L59.29134 -0.15748031L59.29134 0.15748031L59.763783 0.15748031L59.763783 -0.15748031ZM61.181103 -0.15748031L60.708664 -0.15748031L60.708664 0.15748031L61.181103 0.15748031L61.181103 -0.15748031ZM62.598427 -0.15748031L62.125984 -0.15748031L62.125984 0.15748031L62.598427 0.15748031L62.598427 -0.15748031ZM64.015747 -0.15748031L63.543308 -0.15748031L63.543308 0.15748031L64.015747 0.15748031L64.015747 -0.15748031ZM65.433075 -0.15748031L64.960632 -0.15748031L64.960632 0.15748031L65.433075 0.15748031L65.433075 -0.15748031ZM66.850395 -0.15748031L66.377953 -0.15748031L66.377953 0.15748031L66.850395 0.15748031L66.850395 -0.15748031ZM68.267715 -0.15748031L67.79528 -0.15748031L67.79528 0.15748031L68.267715 0.15748031L68.267715 -0.15748031ZM69.685043 -0.15748031L69.212601 -0.15748031L69.212601 0.15748031L69.685043 0.15748031L69.685043 -0.15748031ZM71.102364 -0.15748031L70.629921 -0.15748031L70.629921 0.15748031L71.102364 0.15748031L71.102364 -0.15748031ZM72.519684 -0.15748031L72.047249 -0.15748031L72.047249 0.15748031L72.519684 0.15748031L72.519684 -0.15748031ZM73.937012 -0.15748031L73.464569 -0.15748031L73.464569 0.15748031L73.937012 0.15748031L73.937012 -0.15748031ZM75.354332 -0.15748031L74.881889 -0.15748031L74.881889 0.15748031L75.354332 0.15748031L75.354332 -0.15748031ZM76.771652 -0.15748031L76.299217 -0.15748031L76.299217 0.15748031L76.771652 0.15748031L76.771652 -0.15748031ZM78.18898 -0.15748031L77.716537 -0.15748031L77.716537 0.15748031L78.18898 0.15748031L78.18898 -0.15748031ZM79.6063 -0.15748031L79.133858 -0.15748031L79.133858 0.15748031L79.6063 0.15748031L79.6063 -0.15748031ZM81.023621 -0.15748031L80.551186 -0.15748031L80.551186 0.15748031L81.023621 0.15748031L81.023621 -0.15748031ZM82.440948 -0.15748031L81.968506 -0.15748031L81.968506 0.15748031L82.440948 0.15748031L82.440948 -0.15748031ZM83.858269 -0.15748031L83.385826 -0.15748031L83.385826 0.15748031L83.858269 0.15748031L83.858269 -0.15748031ZM85.275597 -0.15748031L84.803154 -0.15748031L84.803154 0.15748031L85.275597 0.15748031L85.275597 -0.15748031ZM86.692917 -0.15748031L86.220474 -0.15748031L86.220474 0.15748031L86.692917 0.15748031L86.692917 -0.15748031ZM88.110237 -0.15748031L87.637794 -0.15748031L87.637794 0.15748031L88.110237 0.15748031L88.110237 -0.15748031ZM89.527565 -0.15748031L89.055122 -0.15748031L89.055122 0.15748031L89.527565 0.15748031L89.527565 -0.15748031ZM90.944885 -0.15748031L90.472443 -0.15748031L90.472443 0.15748031L90.944885 0.15748031L90.944885 -0.15748031ZM91.889999 -0.15748031L91.889763 -0.15748031L91.889763 0.15748031L91.889999 0.15748031L91.889999 -0.15748031Z" fill-rule="evenodd" transform="translate(13.819, 61.417)" fill="#000000" opacity="0.2"></path><path d="M1.92 0.67699999L1.206 0.67699999L1.206 2.865L0.71100003 2.865L0.71100003 0.67699999L0 0.67699999L0 0.242L1.92 0.242L1.92 0.67699999ZM2.4389999 0.50999999C2.3859999 0.50999999 2.342 0.50800002 2.3069999 0.50300002C2.2739999 0.498 2.247 0.486 2.224 0.46900001C2.204 0.449 2.1900001 0.42199999 2.1819999 0.389C2.175 0.35699999 2.171 0.31099999 2.171 0.25299999C2.171 0.19499999 2.175 0.15000001 2.1819999 0.117C2.1900001 0.082000002 2.204 0.057 2.224 0.041999999C2.247 0.024 2.2739999 0.013 2.3069999 0.0080000004C2.342 0.003 2.3859999 0 2.4389999 0C2.4920001 0 2.5350001 0.003 2.5680001 0.0080000004C2.6029999 0.013 2.631 0.024 2.651 0.041999999C2.674 0.057 2.6889999 0.082000002 2.6960001 0.117C2.704 0.15000001 2.7079999 0.19499999 2.7079999 0.25299999C2.7079999 0.31099999 2.704 0.35699999 2.6960001 0.389C2.6889999 0.42199999 2.674 0.449 2.651 0.46900001C2.631 0.486 2.6029999 0.498 2.5680001 0.50300002C2.5350001 0.50800002 2.4920001 0.50999999 2.4389999 0.50999999ZM2.201 0.824L2.674 0.824L2.674 2.865L2.201 2.865L2.201 0.824ZM5.5440001 0.78600001C5.7779999 0.78600001 5.9489999 0.84500003 6.0580001 0.96399999C6.1659999 1.08 6.2199998 1.256 6.2199998 1.493L6.2199998 2.865L5.7480001 2.865L5.7480001 1.599C5.7480001 1.455 5.724 1.349 5.6760001 1.281C5.6279998 1.2130001 5.54 1.179 5.4109998 1.179C5.2979999 1.179 5.2030001 1.202 5.1279998 1.247C5.0549998 1.293 5.0029998 1.376 4.973 1.497L4.973 2.865L4.5 2.865L4.5 1.599C4.5 1.455 4.4770002 1.349 4.4289999 1.281C4.3829999 1.2130001 4.2979999 1.179 4.1719999 1.179C4.0580001 1.179 3.9660001 1.201 3.8959999 1.243C3.825 1.286 3.7739999 1.367 3.7409999 1.485L3.7409999 2.865L3.2679999 2.865L3.2679999 0.824L3.7409999 0.824L3.7409999 1.066C3.799 0.96499997 3.8759999 0.89300001 3.971 0.85000002C4.0669999 0.80800003 4.1830001 0.78600001 4.3189998 0.78600001C4.4780002 0.78600001 4.6040001 0.81300002 4.697 0.866C4.79 0.91600001 4.8600001 0.99000001 4.9050002 1.089C4.9629998 0.97799999 5.0489998 0.89999998 5.1620002 0.85399997C5.2750001 0.80900002 5.4029999 0.78600001 5.5440001 0.78600001ZM8.5279999 1.6670001C8.5279999 1.717 8.5249996 1.766 8.5200005 1.814C8.5170002 1.86 8.5139999 1.9 8.5089998 1.9349999L7.171 2.0220001C7.1760001 2.1930001 7.224 2.319 7.3140001 2.4000001C7.4050002 2.4809999 7.552 2.5209999 7.757 2.5209999C7.8169999 2.5209999 7.8790002 2.517 7.9419999 2.51C8.007 2.5020001 8.0690002 2.4920001 8.1269999 2.4790001C8.1870003 2.464 8.243 2.4489999 8.2930002 2.434C8.3439999 2.4159999 8.3859997 2.3989999 8.4219999 2.381L8.4219999 2.767C8.3610001 2.802 8.2629995 2.8329999 8.1269999 2.8610001C7.9910002 2.8889999 7.8400002 2.9030001 7.6729999 2.9030001C7.5170002 2.9030001 7.3790002 2.8859999 7.2579999 2.8540001C7.1370001 2.8210001 7.0349998 2.7639999 6.9510002 2.6830001C6.868 2.6029999 6.8039999 2.494 6.7589998 2.358C6.7160001 2.2219999 6.6939998 2.0510001 6.6939998 1.844C6.6939998 1.638 6.7160001 1.466 6.7589998 1.33C6.8039999 1.194 6.868 1.086 6.9510002 1.005C7.0349998 0.92500001 7.1370001 0.86799997 7.2579999 0.83499998C7.3790002 0.80299997 7.5170002 0.78600001 7.6729999 0.78600001C7.8499999 0.78600001 7.993 0.81 8.1040001 0.85799998C8.2150002 0.903 8.302 0.96600002 8.3649998 1.0470001C8.4280005 1.128 8.4709997 1.221 8.4940004 1.327C8.5159998 1.432 8.5279999 1.546 8.5279999 1.6670001ZM8.0889997 1.618C8.0889997 1.5549999 8.0839996 1.495 8.0740004 1.4400001C8.066 1.382 8.0480003 1.332 8.0170002 1.289C7.987 1.2460001 7.9439998 1.212 7.8889999 1.187C7.836 1.1619999 7.7639999 1.149 7.6729999 1.149C7.5780001 1.149 7.4980001 1.16 7.4349999 1.183C7.3720002 1.206 7.322 1.24 7.2839999 1.285C7.2459998 1.33 7.2189999 1.387 7.2010002 1.455C7.1830001 1.521 7.1729999 1.597 7.171 1.686L8.0889997 1.618ZM9.5139999 0.67299998L9.5139999 1.364L10.497 1.364L10.497 1.795L9.5139999 1.795L9.5139999 2.865L9.0190001 2.865L9.0190001 0.242L10.572 0.242L10.572 0.67299998L9.5139999 0.67299998Z" transform="translate(95.974, 65.639)" fill="#000000" opacity="0.3"></path><g opacity="0.6"><path d="M0 26.219999L16.535 28.583L33.779999 8.0310001L49.369999 23.622L65.196999 11.811L80.787003 0L80.787003 17.243999L65.196999 26.693001L49.369999 29.055L33.779999 20.551001L16.535 36.377998L0 34.015999L0 26.219999Z" transform="translate(20.079, 22.913)" fill="#a6afc4"></path><path d="M0 0L0 0.236L80.787003 0.236L80.787003 0L0 0Z" transform="translate(20.079, 61.417)" fill="#a6afc4"></path></g><path d="M0 26.219999L16.535 21.496L33.779999 5.6690001L49.369999 14.173L65.196999 9.4490004L80.787003 0L80.787003 4.2519999L65.196999 16.063L49.369999 27.874001L33.779999 12.283L16.535 32.834999L0 30.472L0 26.219999Z" transform="translate(20.079, 18.661)" fill="#dde0e9"></path><path d="M0 16.771999L0 21.26L80.787003 21.26L80.787003 0L65.196999 9.4490004L49.369999 11.811L33.779999 3.3069999L16.535 19.134001L0 16.771999Z" transform="translate(20.079, 40.157)" fill="#dde0e9"></path><path d="M16.535 19.134001L0 16.771999L0 21.26L80.787003 21.26L80.787003 0L65.196999 9.4490004L49.369999 11.811L33.779999 3.3069999L16.535 19.134001Z" transform="translate(20.079, 40.157)" fill="#6d7a97" opacity="0.6"></path><path d="M80.715378 -0.46698031C80.654053 -0.45757464 80.595184 -0.4361822 80.54213 -0.40402451L65.03334 8.9957514L49.457062 11.320333L33.709541 2.7304108L16.38036 18.634674L0.066809319 16.304306C0.0053911731 16.295532 -0.057153851 16.298943 -0.11725475 16.314341C-0.17735538 16.329739 -0.23383467 16.356823 -0.2834678 16.394049C-0.33310097 16.431274 -0.37491596 16.477911 -0.40652528 16.531298C-0.43813479 16.584682 -0.4589197 16.643772 -0.46769327 16.705191C-0.47646675 16.766609 -0.47305712 16.829153 -0.45765901 16.889254C-0.4422608 16.949354 -0.4151758 17.005835 -0.37795046 17.055468C-0.340725 17.105101 -0.29408798 17.146915 -0.24070239 17.178524C-0.18731672 17.210135 -0.1282278 17.230919 -0.066809453 17.239693L16.68964 19.633327L33.850456 3.88359L49.282936 12.301666L65.360657 9.9022484L81.031876 0.40402457C81.084938 0.37186688 81.131142 0.32957375 81.167854 0.27955952C81.204567 0.2295455 81.231064 0.17279029 81.245842 0.11253415C81.26062 0.052278131 81.26339 -0.010298699 81.253983 -0.071623132C81.244576 -0.13294783 81.223183 -0.19181958 81.191025 -0.24487697C81.158867 -0.2979342 81.116577 -0.344138 81.066559 -0.38085032C81.016548 -0.41756254 80.959793 -0.44406438 80.899536 -0.45884243C80.839279 -0.47362071 80.776703 -0.47638592 80.715378 -0.46698031Z" fill-rule="evenodd" transform="translate(20.079, 40.157)" fill="#6d7a97"></path><path d="M80.715378 -0.46698031C80.654053 -0.45757464 80.595184 -0.4361822 80.54213 -0.40402451L65.003891 9.0136023L49.423462 13.664005L33.709541 5.092411L16.297832 21.072414L-0.12978223 25.765734C-0.18943697 25.782778 -0.24515095 25.811403 -0.29374298 25.849977C-0.34233481 25.888554 -0.382853 25.936321 -0.41298398 25.990555C-0.44311509 26.044788 -0.46226889 26.104427 -0.46935192 26.166063C-0.47643504 26.227699 -0.47130865 26.290127 -0.45426536 26.349781C-0.43722206 26.409437 -0.4085958 26.465151 -0.3700209 26.513742C-0.33144593 26.562334 -0.28367791 26.602852 -0.22944441 26.632982C-0.17521062 26.663115 -0.11557301 26.682268 -0.053936884 26.689352C0.007699281 26.696434 0.070127092 26.691307 0.12978207 26.674265L16.772167 21.919586L33.850456 6.2455902L49.316536 14.681994L65.390114 9.8843956L81.031876 0.40402457C81.084938 0.37186688 81.131142 0.32957375 81.167854 0.27955952C81.204567 0.2295455 81.231064 0.17279029 81.245842 0.11253415C81.26062 0.052278131 81.26339 -0.010298699 81.253983 -0.071623132C81.244576 -0.13294783 81.223183 -0.19181958 81.191025 -0.24487697C81.158867 -0.2979342 81.116577 -0.344138 81.066559 -0.38085032C81.016548 -0.41756254 80.959793 -0.44406438 80.899536 -0.45884243C80.839279 -0.47362071 80.776703 -0.47638592 80.715378 -0.46698031Z" fill-rule="evenodd" transform="translate(20.079, 18.661)" fill="#a6afc4"></path><path d="M80.667534 -0.45708638C80.607513 -0.4413977 80.551163 -0.4140397 80.501709 -0.37657449L64.914444 11.432368L49.415043 22.998894L33.749504 7.3323503L16.341883 28.078161L0.066837028 25.75231C0.0054193437 25.743532 -0.057125874 25.746939 -0.11722769 25.762333C-0.17732923 25.777727 -0.23381011 25.80481 -0.28344545 25.842031C-0.3330808 25.879255 -0.37489855 25.92589 -0.40651104 25.979273C-0.43812367 26.032658 -0.4589121 26.091743 -0.46768931 26.153162C-0.47646642 26.214581 -0.47306046 26.277126 -0.45766592 26.337227C-0.44227126 26.397329 -0.41518959 26.45381 -0.37796721 26.503445C-0.3407447 26.55308 -0.29411012 26.594898 -0.24072641 26.626511C-0.18734261 26.658123 -0.12825492 26.678911 -0.066837102 26.687689L16.728119 29.087839L33.810493 8.7296495L49.324955 24.245106L65.479553 12.189631L81.072296 0.37657443C81.12175 0.3391093 81.163338 0.29227063 81.194687 0.23873238C81.226036 0.18519436 81.246536 0.12600563 81.255013 0.064545497C81.263489 0.0030854344 81.259781 -0.059442341 81.244087 -0.1194675C81.228401 -0.17949295 81.201042 -0.23584056 81.163574 -0.28529316C81.126114 -0.33474562 81.079269 -0.37633449 81.025734 -0.40768534C80.972198 -0.43903604 80.91301 -0.45953476 80.851547 -0.4680109C80.790085 -0.47648722 80.727562 -0.47277501 80.667534 -0.45708638Z" fill-rule="evenodd" transform="translate(20.079, 22.913)" fill="#a6afc4"></path></svg>